{"glyphs":{"0":{"ha":907,"x_min":83,"x_max":849,"o":"m 83 389 q 115 588 83 492 q 203 758 146 685 q 342 876 260 832 q 524 921 424 921 q 681 881 617 921 q 785 775 746 840 q 836 626 824 710 q 838 453 849 542 q 783 263 824 349 q 685 117 743 178 q 554 22 626 56 q 403 -11 482 -11 q 275 18 333 -11 q 174 99 217 47 q 107 225 131 151 q 83 389 83 299 m 169 457 q 174 302 158 374 q 222 179 189 231 q 305 98 256 128 q 413 68 354 68 q 540 101 476 68 q 651 194 603 135 q 731 334 700 253 q 761 510 761 415 q 746 633 761 574 q 700 740 731 693 q 623 814 669 786 q 513 842 576 842 q 380 808 439 842 q 277 720 321 775 q 206 597 233 665 q 169 457 178 528 z "},"1":{"ha":413,"x_min":113,"x_max":324,"o":"m 113 831 l 122 910 l 324 910 l 213 0 l 129 0 l 231 831 l 113 831 z "},"2":{"ha":733,"x_min":38,"x_max":658,"o":"m 244 79 l 644 79 l 635 0 l 38 0 q 238 176 140 90 q 410 344 335 263 q 530 503 485 426 q 575 653 575 581 q 559 740 575 704 q 518 799 543 776 q 464 831 493 821 q 408 842 435 842 q 300 817 343 842 q 232 759 257 793 q 197 686 207 725 q 186 618 186 647 q 226 493 186 542 l 171 444 q 122 522 139 472 q 106 619 106 571 q 127 732 106 678 q 189 828 149 786 q 287 896 229 871 q 418 921 344 921 q 518 901 474 921 q 594 848 563 882 q 642 768 625 814 q 658 671 658 722 q 622 516 658 592 q 526 367 585 440 q 394 223 468 294 q 244 79 319 151 z "},"3":{"ha":656,"x_min":22,"x_max":629,"o":"m 197 474 q 340 652 267 564 q 485 831 414 740 l 153 831 l 163 910 l 629 910 q 490 740 560 825 q 353 569 421 656 q 438 539 399 561 q 506 483 478 517 q 549 408 533 450 q 565 315 565 365 q 537 190 565 249 q 462 85 508 131 q 354 15 415 40 q 228 -11 293 -11 q 110 15 163 -11 q 22 86 58 42 l 89 143 q 150 88 113 108 q 236 68 188 68 q 328 88 283 68 q 408 140 374 107 q 464 215 443 172 q 485 307 485 258 q 469 383 485 347 q 428 444 454 418 q 367 486 403 471 q 290 501 332 501 q 197 474 242 501 z "},"4":{"ha":733,"x_min":-6,"x_max":669,"o":"m 497 699 q 417 608 460 656 q 330 511 374 560 q 244 414 286 463 q 163 322 201 365 l 451 322 l 497 699 m -6 243 q 301 583 144 411 q 607 921 457 754 l 533 322 l 669 322 l 660 243 l 524 243 l 494 0 l 413 0 l 442 243 l -6 243 z "},"5":{"ha":649,"x_min":33,"x_max":589,"o":"m 129 444 l 186 910 l 589 910 l 579 831 l 247 831 l 214 560 q 256 574 235 568 q 301 579 276 579 q 410 559 361 579 q 494 503 460 539 q 548 420 529 468 q 567 318 567 372 q 538 190 567 250 q 463 85 510 131 q 354 15 415 40 q 228 -11 293 -11 q 119 10 169 -11 q 33 72 69 32 l 100 126 q 160 83 125 99 q 238 68 194 68 q 330 88 285 68 q 409 140 375 107 q 464 215 443 172 q 485 306 485 258 q 470 381 485 346 q 429 443 456 417 q 367 485 403 469 q 290 500 332 500 q 206 488 249 500 q 129 444 163 475 z "},"6":{"ha":743,"x_min":58,"x_max":660,"o":"m 58 251 q 84 393 58 326 q 152 519 110 460 q 250 632 194 579 q 365 731 306 685 q 483 816 424 776 q 594 890 543 856 l 638 826 q 508 740 569 785 q 394 654 446 696 q 305 576 343 613 q 249 511 267 539 q 315 560 276 542 q 394 579 353 579 q 500 558 451 579 q 584 501 549 538 q 640 417 619 465 q 660 314 660 369 q 632 188 660 247 q 558 85 604 129 q 450 15 511 40 q 324 -11 389 -11 q 224 7 272 -11 q 140 58 176 25 q 81 140 103 92 q 58 251 58 189 m 143 263 q 157 187 143 222 q 196 125 171 151 q 256 83 221 99 q 332 68 290 68 q 424 87 379 68 q 503 138 468 106 q 558 214 538 171 q 578 306 578 257 q 563 381 578 346 q 522 443 549 417 q 461 485 496 469 q 385 500 426 500 q 294 481 338 500 q 217 430 250 463 q 163 354 183 397 q 143 263 143 311 z "},"7":{"ha":640,"x_min":94,"x_max":681,"o":"m 99 831 l 108 910 l 681 910 q 433 452 554 675 q 189 0 311 229 l 94 0 q 317 409 203 199 q 543 831 431 619 l 99 831 z "},"8":{"ha":742,"x_min":58,"x_max":660,"o":"m 272 692 q 307 611 272 643 q 394 579 342 579 q 452 590 425 579 q 500 619 479 600 q 533 663 521 638 q 546 717 546 688 q 513 805 546 768 q 426 842 479 842 q 368 829 396 842 q 319 796 340 817 q 285 748 297 775 q 272 692 272 721 m 143 263 q 157 188 143 222 q 196 126 171 153 q 255 83 221 99 q 329 68 289 68 q 422 88 376 68 q 501 140 467 107 q 556 215 535 172 q 576 306 576 258 q 562 381 576 346 q 522 443 547 417 q 461 485 496 469 q 385 500 426 500 q 294 482 338 500 q 217 431 250 464 q 163 356 183 399 q 143 263 143 313 m 58 251 q 76 355 58 307 q 123 441 93 403 q 192 506 153 479 q 272 546 231 532 q 212 606 232 568 q 192 686 192 644 q 212 777 192 735 q 265 851 232 819 q 342 902 299 883 q 433 921 386 921 q 510 906 475 921 q 569 865 544 892 q 609 803 594 839 q 624 726 624 768 q 593 622 624 668 q 506 546 563 575 q 616 461 572 522 q 660 313 660 400 q 633 189 660 247 q 561 86 607 131 q 453 15 515 42 q 321 -11 392 -11 q 213 10 261 -11 q 130 67 164 31 q 77 150 96 103 q 58 251 58 197 z "},"9":{"ha":740,"x_min":96,"x_max":703,"o":"m 613 594 q 606 678 618 639 q 568 747 593 718 q 506 794 543 776 q 425 811 469 811 q 332 792 376 811 q 253 741 288 774 q 199 665 219 708 q 178 574 178 622 q 192 498 178 533 q 233 436 207 463 q 295 394 260 410 q 372 379 331 379 q 458 396 417 379 q 531 442 499 413 q 585 510 564 471 q 613 594 607 550 m 694 594 q 623 398 681 488 q 487 233 565 308 q 321 98 408 158 q 161 -11 233 38 q 140 21 150 4 q 119 53 129 38 q 249 138 188 94 q 363 224 311 182 q 451 303 414 265 q 508 368 489 340 q 442 318 481 336 q 361 300 404 300 q 256 321 304 300 q 172 377 208 342 q 116 461 136 413 q 96 565 96 510 q 124 691 96 632 q 199 794 151 750 q 307 865 246 839 q 433 890 368 890 q 538 870 488 890 q 626 813 589 850 q 683 720 664 775 q 694 594 703 665 z "},"\u0000":{"ha":0,"x_min":0,"x_max":0,"o":""},"\r":{"ha":417,"x_min":0,"x_max":0,"o":""}," ":{"ha":342,"x_min":0,"x_max":0,"o":""},"t":{"ha":394,"x_min":36,"x_max":397,"o":"m 186 799 l 263 799 l 232 550 l 397 550 l 389 481 l 224 481 l 165 0 l 89 0 l 147 481 l 36 481 l 44 550 l 156 550 l 186 799 z "},"b":{"ha":733,"x_min":46,"x_max":668,"o":"m 668 313 q 642 185 668 244 q 572 83 617 126 q 469 14 528 39 q 342 -11 410 -11 q 208 25 264 -11 q 135 114 153 61 q 132 87 132 100 q 129 58 132 74 l 122 0 l 46 0 l 176 1064 l 253 1064 l 176 439 q 272 529 208 490 q 415 568 335 568 q 519 549 472 568 q 599 497 565 531 q 650 417 632 464 q 668 313 668 369 m 586 303 q 573 378 586 343 q 535 438 560 413 q 476 478 511 464 q 400 493 442 493 q 306 475 350 493 q 228 425 261 457 q 174 350 194 393 q 154 257 154 307 q 168 181 154 215 q 208 119 182 146 q 269 78 233 93 q 347 64 304 64 q 441 83 397 64 q 517 134 485 101 q 567 210 549 167 q 586 303 586 253 z "},"l":{"ha":268,"x_min":49,"x_max":256,"o":"m 125 0 l 49 0 l 179 1064 l 256 1064 l 125 0 z "},"m":{"ha":1065,"x_min":46,"x_max":986,"o":"m 114 556 l 179 556 q 178 523 179 543 q 174 481 176 503 q 171 441 172 460 q 168 413 169 422 q 269 524 208 482 q 414 568 331 567 q 534 527 492 568 q 576 419 576 486 q 676 527 617 486 q 818 568 736 568 q 944 522 901 568 q 979 401 986 476 l 931 0 l 854 0 l 900 375 q 877 456 904 422 q 789 492 850 489 q 708 477 746 492 q 639 437 669 463 q 588 376 608 411 q 563 299 568 340 l 526 0 l 450 0 l 496 375 q 473 456 500 422 q 386 492 446 489 q 303 477 342 492 q 233 436 264 463 q 183 374 203 410 q 158 294 164 338 l 122 0 l 46 0 l 114 556 z "},"i":{"ha":263,"x_min":46,"x_max":232,"o":"m 122 751 q 142 795 122 778 q 185 813 161 813 q 218 799 204 813 q 232 763 232 785 q 213 718 232 735 q 171 701 194 701 q 137 715 151 701 q 122 751 122 728 m 122 0 l 46 0 l 114 556 l 190 556 l 122 0 z "},"h":{"ha":667,"x_min":46,"x_max":588,"o":"m 176 1064 l 253 1064 l 174 421 q 272 526 210 485 q 418 568 335 567 q 544 522 501 568 q 581 401 588 476 l 532 0 l 456 0 l 501 375 q 478 456 506 422 q 390 492 451 489 q 306 477 346 492 q 235 436 267 463 q 184 374 204 410 q 158 294 164 338 l 122 0 l 46 0 l 176 1064 z "},"c":{"ha":572,"x_min":38,"x_max":546,"o":"m 449 110 l 489 53 q 399 6 447 22 q 297 -11 350 -11 q 193 9 240 -11 q 111 65 146 29 q 57 147 76 100 q 38 249 38 194 q 65 372 38 314 q 138 474 92 431 q 243 543 183 518 q 368 568 303 568 q 466 551 421 568 q 546 504 511 535 q 518 476 532 489 q 490 447 504 463 q 360 493 438 493 q 265 474 310 493 q 186 424 219 456 q 133 349 153 392 q 114 256 114 306 q 128 180 114 215 q 167 119 142 144 q 228 78 193 93 q 307 64 264 64 q 383 76 347 64 q 449 110 418 88 z "},"q":{"ha":733,"x_min":39,"x_max":661,"o":"m 115 256 q 129 180 115 215 q 169 119 143 144 q 230 78 194 93 q 308 64 265 64 q 403 83 358 64 q 481 133 447 101 q 533 208 514 165 q 553 301 553 251 q 539 377 553 342 q 499 438 525 413 q 438 478 474 464 q 361 493 403 493 q 266 475 311 493 q 188 424 221 457 q 135 349 154 392 q 115 256 115 306 m 39 246 q 65 373 39 314 q 136 475 92 432 q 239 543 181 518 q 363 568 297 568 q 440 557 406 568 q 501 528 475 546 q 545 486 528 510 q 571 439 563 463 q 575 471 572 453 q 581 506 578 489 q 585 538 583 524 q 588 556 588 551 l 661 556 l 560 -267 l 483 -267 l 524 57 q 529 87 526 72 q 533 115 532 101 q 436 26 499 64 q 290 -11 374 -11 q 185 9 232 -11 q 106 64 139 29 q 56 145 74 99 q 39 246 39 192 z "},"u":{"ha":665,"x_min":53,"x_max":594,"o":"m 525 -7 l 461 -7 l 472 143 q 369 31 435 74 q 219 -12 304 -12 q 95 33 138 -12 q 60 154 53 79 l 108 556 l 185 556 l 139 181 q 163 100 136 133 q 250 64 189 67 q 333 78 293 64 q 403 119 372 93 q 456 181 435 144 q 482 260 476 217 l 518 556 l 594 556 l 525 -7 z "},"r":{"ha":407,"x_min":46,"x_max":418,"o":"m 392 472 q 310 459 350 472 q 239 422 271 446 q 185 365 207 399 q 158 289 164 331 l 122 0 l 46 0 l 114 556 l 179 556 l 168 413 q 219 477 189 449 q 284 526 250 506 q 353 557 318 546 q 418 568 388 568 l 392 472 z "},"e":{"ha":631,"x_min":38,"x_max":600,"o":"m 514 67 q 413 10 469 31 q 297 -11 356 -11 q 193 9 240 -11 q 111 65 146 29 q 57 147 76 100 q 38 249 38 194 q 65 372 38 314 q 138 474 92 431 q 242 544 183 518 q 365 569 301 569 q 518 515 457 569 q 600 372 579 460 q 491 331 551 354 q 367 284 431 308 q 240 235 303 260 q 124 190 178 211 q 190 99 142 133 q 304 64 238 64 q 390 79 349 64 q 464 121 432 94 l 514 67 m 507 392 q 449 466 489 439 q 357 493 410 493 q 265 474 308 493 q 188 423 221 456 q 135 349 154 390 q 115 261 115 307 l 115 242 q 212 279 161 260 q 314 319 263 299 q 415 358 365 339 q 507 392 465 376 z "},"p":{"ha":732,"x_min":13,"x_max":668,"o":"m 585 303 q 535 439 585 385 q 399 493 485 493 q 304 475 349 493 q 226 425 260 457 q 174 350 193 393 q 154 257 154 307 q 168 181 154 215 q 208 119 182 146 q 269 78 233 93 q 346 64 304 64 q 440 83 396 64 q 516 134 483 101 q 567 210 549 167 q 585 303 585 253 m 668 313 q 642 185 668 244 q 572 83 617 126 q 469 14 528 39 q 342 -11 410 -11 q 208 25 264 -11 q 135 114 153 61 q 132 87 132 100 q 129 58 132 74 l 89 -267 l 13 -267 l 114 556 l 188 556 q 186 538 188 551 q 183 506 185 524 q 178 471 181 489 q 175 439 176 453 q 271 529 207 490 q 415 568 335 568 q 519 549 472 568 q 599 497 565 531 q 650 417 632 464 q 668 313 668 369 z "},"á":{"ha":732,"x_min":38,"x_max":660,"o":"m 38 246 q 65 370 38 311 q 138 473 92 429 q 242 542 183 517 q 365 568 301 568 q 442 557 407 568 q 503 527 476 546 q 546 485 529 508 q 569 440 563 463 l 589 556 l 660 556 l 592 0 l 515 0 l 522 57 q 526 86 525 72 q 531 113 528 100 q 496 67 518 89 q 443 28 474 46 q 375 -1 413 10 q 294 -11 338 -11 q 189 9 236 -11 q 108 64 142 29 q 56 146 75 99 q 38 246 38 193 m 114 257 q 128 181 114 215 q 167 119 142 146 q 228 78 193 93 q 307 64 264 64 q 401 83 357 64 q 479 133 446 101 q 532 209 513 165 q 551 301 551 253 q 538 377 551 342 q 499 438 524 413 q 438 478 474 464 q 360 493 403 493 q 265 475 310 493 q 188 425 221 457 q 134 350 154 393 q 114 257 114 307 m 353 671 l 503 857 l 585 857 q 499 763 542 810 q 413 671 457 717 l 353 671 z "},"é":{"ha":631,"x_min":38,"x_max":600,"o":"m 514 67 q 413 10 469 31 q 297 -11 356 -11 q 193 9 240 -11 q 111 65 146 29 q 57 147 76 100 q 38 249 38 194 q 65 372 38 314 q 138 474 92 431 q 242 544 183 518 q 365 569 301 569 q 518 515 457 569 q 600 372 579 460 q 491 331 551 354 q 367 284 431 308 q 240 235 303 260 q 124 190 178 211 q 190 99 142 133 q 304 64 238 64 q 390 79 349 64 q 464 121 432 94 l 514 67 m 507 392 q 449 466 489 439 q 357 493 410 493 q 265 474 308 493 q 188 423 221 456 q 135 349 154 390 q 115 261 115 307 l 115 242 q 212 279 161 260 q 314 319 263 299 q 415 358 365 339 q 507 392 465 376 m 332 671 l 482 857 l 564 857 q 478 763 521 810 q 392 671 436 717 l 332 671 z "},"í":{"ha":263,"x_min":46,"x_max":361,"o":"m 122 0 l 46 0 l 114 556 l 190 556 l 122 0 m 129 671 l 279 857 l 361 857 q 276 763 318 810 q 189 671 233 717 l 129 671 z "},"ó":{"ha":689,"x_min":38,"x_max":625,"o":"m 38 247 q 65 372 38 314 q 137 474 92 431 q 242 544 182 518 q 368 569 301 569 q 472 549 425 569 q 553 494 519 529 q 606 410 588 458 q 625 308 625 363 q 599 185 625 243 q 527 83 572 126 q 422 14 482 39 q 296 -11 363 -11 q 193 8 240 -11 q 111 62 146 28 q 57 143 76 96 q 38 247 38 190 m 114 256 q 128 180 114 215 q 168 119 143 144 q 228 78 193 93 q 304 64 263 64 q 397 83 353 64 q 474 133 440 101 q 527 208 507 165 q 547 300 547 251 q 533 376 547 340 q 493 437 518 411 q 433 478 468 463 q 357 493 399 493 q 265 474 308 493 q 188 423 221 456 q 134 347 154 390 q 114 256 114 304 m 378 671 l 528 857 l 610 857 q 524 763 567 810 q 438 671 482 717 l 378 671 z "},"ú":{"ha":667,"x_min":53,"x_max":594,"o":"m 525 -7 l 461 -7 l 472 143 q 369 31 435 74 q 219 -12 304 -12 q 95 33 138 -12 q 60 154 53 79 l 108 556 l 185 556 l 139 181 q 163 100 136 133 q 250 64 189 67 q 333 78 293 64 q 403 119 372 93 q 456 181 435 144 q 482 260 476 217 l 518 556 l 594 556 l 525 -7 m 340 671 l 490 857 l 572 857 q 487 763 529 810 q 400 671 444 717 l 340 671 z "},"ä":{"ha":732,"x_min":38,"x_max":660,"o":"m 38 246 q 65 370 38 311 q 138 473 92 429 q 242 542 183 517 q 365 568 301 568 q 442 557 407 568 q 503 527 476 546 q 546 485 529 508 q 569 440 563 463 l 589 556 l 660 556 l 592 0 l 515 0 l 522 57 q 526 86 525 72 q 531 113 528 100 q 496 67 518 89 q 443 28 474 46 q 375 -1 413 10 q 294 -11 338 -11 q 189 9 236 -11 q 108 64 142 29 q 56 146 75 99 q 38 246 38 193 m 114 257 q 128 181 114 215 q 167 119 142 146 q 228 78 193 93 q 307 64 264 64 q 401 83 357 64 q 479 133 446 101 q 532 209 513 165 q 551 301 551 253 q 538 377 551 342 q 499 438 524 413 q 438 478 474 464 q 360 493 403 493 q 265 475 310 493 q 188 425 221 457 q 134 350 154 393 q 114 257 114 307 m 479 713 q 499 757 479 739 q 543 775 519 775 q 577 760 563 775 q 592 724 592 746 q 571 678 592 696 q 528 661 550 661 q 494 675 508 661 q 479 713 479 689 m 231 713 q 251 757 231 739 q 294 775 271 775 q 328 760 314 775 q 343 724 343 746 q 322 678 343 696 q 279 661 301 661 q 245 675 260 661 q 231 713 231 689 z "},"ë":{"ha":631,"x_min":38,"x_max":600,"o":"m 514 67 q 413 10 469 31 q 297 -11 356 -11 q 193 9 240 -11 q 111 65 146 29 q 57 147 76 100 q 38 249 38 194 q 65 372 38 314 q 138 474 92 431 q 242 544 183 518 q 365 569 301 569 q 518 515 457 569 q 600 372 579 460 q 491 331 551 354 q 367 284 431 308 q 240 235 303 260 q 124 190 178 211 q 190 99 142 133 q 304 64 238 64 q 390 79 349 64 q 464 121 432 94 l 514 67 m 507 392 q 449 466 489 439 q 357 493 410 493 q 265 474 308 493 q 188 423 221 456 q 135 349 154 390 q 115 261 115 307 l 115 242 q 212 279 161 260 q 314 319 263 299 q 415 358 365 339 q 507 392 465 376 m 438 713 q 458 757 438 739 q 501 775 478 775 q 535 760 521 775 q 550 724 550 746 q 529 678 550 696 q 486 661 508 661 q 452 675 467 661 q 438 713 438 689 m 189 713 q 209 757 189 739 q 253 775 229 775 q 287 760 272 775 q 301 724 301 746 q 281 678 301 696 q 238 661 260 661 q 203 675 218 661 q 189 713 189 689 z "},"ö":{"ha":688,"x_min":31,"x_max":624,"o":"m 39 278 q 75 391 46 338 q 149 484 104 444 q 249 547 193 524 q 367 569 306 569 q 471 549 424 569 q 552 494 518 529 q 605 410 586 458 q 624 308 624 363 q 597 185 624 243 q 526 83 571 126 q 421 14 481 39 q 294 -11 361 -11 q 183 10 233 -11 q 99 71 133 32 q 47 163 64 110 q 39 278 31 215 m 115 278 q 122 194 110 233 q 158 126 133 156 q 221 81 183 97 q 303 64 258 64 q 395 83 351 64 q 472 133 439 101 q 526 208 506 165 q 546 300 546 251 q 531 376 546 340 q 492 437 517 411 q 432 478 467 463 q 356 493 397 493 q 269 476 311 493 q 196 431 228 460 q 142 362 164 401 q 115 278 121 322 m 465 713 q 485 757 465 739 q 529 775 506 775 q 563 760 549 775 q 578 724 578 746 q 557 678 578 696 q 514 661 536 661 q 480 675 494 661 q 465 713 465 689 m 217 713 q 237 757 217 739 q 281 775 257 775 q 315 760 300 775 q 329 724 329 746 q 309 678 329 696 q 265 661 289 661 q 231 675 246 661 q 217 713 217 689 z "},"ü":{"ha":667,"x_min":53,"x_max":594,"o":"m 525 -7 l 461 -7 l 472 143 q 369 31 435 74 q 219 -12 304 -12 q 95 33 138 -12 q 60 154 53 79 l 108 556 l 185 556 l 139 181 q 163 100 136 133 q 250 64 189 67 q 333 78 293 64 q 403 119 372 93 q 456 181 435 144 q 482 260 476 217 l 518 556 l 594 556 l 525 -7 m 463 713 q 483 757 463 739 q 526 775 503 775 q 560 760 546 775 q 575 724 575 746 q 555 678 575 696 q 513 661 535 661 q 478 675 493 661 q 463 713 463 689 m 214 713 q 234 757 214 739 q 278 775 254 775 q 312 760 297 775 q 326 724 326 746 q 306 678 326 696 q 264 661 286 661 q 228 675 243 661 q 214 713 214 689 z "},"à":{"ha":732,"x_min":38,"x_max":660,"o":"m 38 246 q 65 370 38 311 q 138 473 92 429 q 242 542 183 517 q 365 568 301 568 q 442 557 407 568 q 503 527 476 546 q 546 485 529 508 q 569 440 563 463 l 589 556 l 660 556 l 592 0 l 515 0 l 522 57 q 526 86 525 72 q 531 113 528 100 q 496 67 518 89 q 443 28 474 46 q 375 -1 413 10 q 294 -11 338 -11 q 189 9 236 -11 q 108 64 142 29 q 56 146 75 99 q 38 246 38 193 m 114 257 q 128 181 114 215 q 167 119 142 146 q 228 78 193 93 q 307 64 264 64 q 401 83 357 64 q 479 133 446 101 q 532 209 513 165 q 551 301 551 253 q 538 377 551 342 q 499 438 524 413 q 438 478 474 464 q 360 493 403 493 q 265 475 310 493 q 188 425 221 457 q 134 350 154 393 q 114 257 114 307 m 317 857 q 367 763 342 810 q 419 671 393 717 l 358 671 l 233 857 l 317 857 z "},"è":{"ha":631,"x_min":38,"x_max":600,"o":"m 514 67 q 413 10 469 31 q 297 -11 356 -11 q 193 9 240 -11 q 111 65 146 29 q 57 147 76 100 q 38 249 38 194 q 65 372 38 314 q 138 474 92 431 q 242 544 183 518 q 365 569 301 569 q 518 515 457 569 q 600 372 579 460 q 491 331 551 354 q 367 284 431 308 q 240 235 303 260 q 124 190 178 211 q 190 99 142 133 q 304 64 238 64 q 390 79 349 64 q 464 121 432 94 l 514 67 m 507 392 q 449 466 489 439 q 357 493 410 493 q 265 474 308 493 q 188 423 221 456 q 135 349 154 390 q 115 261 115 307 l 115 242 q 212 279 161 260 q 314 319 263 299 q 415 358 365 339 q 507 392 465 376 m 283 857 q 334 763 308 810 q 386 671 360 717 l 325 671 l 200 857 l 283 857 z "},"ì":{"ha":263,"x_min":24,"x_max":211,"o":"m 122 0 l 46 0 l 114 556 l 190 556 l 122 0 m 107 857 q 158 763 132 810 q 211 671 183 717 l 150 671 l 24 857 l 107 857 z "},"ò":{"ha":689,"x_min":38,"x_max":625,"o":"m 38 247 q 65 372 38 314 q 137 474 92 431 q 242 544 182 518 q 368 569 301 569 q 472 549 425 569 q 553 494 519 529 q 606 410 588 458 q 625 308 625 363 q 599 185 625 243 q 527 83 572 126 q 422 14 482 39 q 296 -11 363 -11 q 193 8 240 -11 q 111 62 146 28 q 57 143 76 96 q 38 247 38 190 m 114 256 q 128 180 114 215 q 168 119 143 144 q 228 78 193 93 q 304 64 263 64 q 397 83 353 64 q 474 133 440 101 q 527 208 507 165 q 547 300 547 251 q 533 376 547 340 q 493 437 518 411 q 433 478 468 463 q 357 493 399 493 q 265 474 308 493 q 188 423 221 456 q 134 347 154 390 q 114 256 114 304 m 292 857 q 342 763 317 810 q 394 671 368 717 l 333 671 l 208 857 l 292 857 z "},"ù":{"ha":667,"x_min":53,"x_max":594,"o":"m 525 -7 l 461 -7 l 472 143 q 369 31 435 74 q 219 -12 304 -12 q 95 33 138 -12 q 60 154 53 79 l 108 556 l 185 556 l 139 181 q 163 100 136 133 q 250 64 189 67 q 333 78 293 64 q 403 119 372 93 q 456 181 435 144 q 482 260 476 217 l 518 556 l 594 556 l 525 -7 m 336 857 q 387 763 361 810 q 439 671 413 717 l 378 671 l 253 857 l 336 857 z "},",":{"ha":321,"x_min":-44,"x_max":186,"o":"m 186 121 l 31 -168 l -44 -168 q 28 -24 -7 -94 q 100 121 64 47 l 186 121 z "},".":{"ha":289,"x_min":50,"x_max":161,"o":"m 50 51 q 69 96 50 78 q 113 114 89 114 q 147 99 132 114 q 161 63 161 85 q 141 17 161 35 q 99 0 121 0 q 65 14 79 0 q 50 51 50 28 z "},"f":{"ha":408,"x_min":49,"x_max":514,"o":"m 49 479 l 58 554 l 154 554 l 174 718 q 286 973 194 888 q 514 1064 378 1058 l 504 990 q 333 916 401 988 q 250 718 265 844 l 231 554 l 413 554 l 403 479 l 221 479 l 163 0 l 86 0 l 144 479 l 49 479 z "},"å":{"ha":732,"x_min":38,"x_max":660,"o":"m 38 246 q 65 370 38 311 q 138 473 92 429 q 242 542 183 517 q 365 568 301 568 q 442 557 407 568 q 503 527 476 546 q 546 485 529 508 q 569 440 563 463 l 589 556 l 660 556 l 592 0 l 515 0 l 522 57 q 526 86 525 72 q 531 113 528 100 q 496 67 518 89 q 443 28 474 46 q 375 -1 413 10 q 294 -11 338 -11 q 189 9 236 -11 q 108 64 142 29 q 56 146 75 99 q 38 246 38 193 m 114 257 q 128 181 114 215 q 167 119 142 146 q 228 78 193 93 q 307 64 264 64 q 401 83 357 64 q 479 133 446 101 q 532 209 513 165 q 551 301 551 253 q 538 377 551 342 q 499 438 524 413 q 438 478 474 464 q 360 493 403 493 q 265 475 310 493 q 188 425 221 457 q 134 350 154 393 q 114 257 114 307 m 286 700 q 296 744 286 724 q 322 781 306 765 q 360 806 339 797 q 406 815 382 815 q 472 788 446 815 q 499 721 499 761 q 463 640 499 674 q 381 606 428 606 q 313 633 340 606 q 286 700 286 660 m 335 704 q 350 668 335 683 q 386 653 365 653 q 431 672 413 653 q 450 715 450 690 q 436 752 450 738 q 400 767 422 767 q 355 749 375 767 q 335 704 335 731 z "},"v":{"ha":590,"x_min":36,"x_max":596,"o":"m 244 -33 q 139 261 185 115 q 36 556 93 407 l 118 556 q 171 409 150 472 q 208 295 192 346 q 235 201 224 244 q 263 113 247 157 q 310 201 288 157 q 360 295 332 244 q 424 409 388 346 q 514 556 461 472 l 596 556 q 420 261 504 407 q 244 -33 336 115 z "},"j":{"ha":263,"x_min":-60,"x_max":236,"o":"m -12 -267 q -60 -211 -36 -240 q 10 -124 -18 -175 q 46 -4 38 -74 l 114 556 l 190 556 l 122 -4 q 76 -158 111 -92 q -12 -267 40 -224 m 124 751 q 144 795 124 778 q 186 813 164 813 q 222 799 207 813 q 236 763 236 785 q 217 718 236 735 q 174 701 197 701 q 139 715 154 701 q 124 751 124 728 z "},"s":{"ha":460,"x_min":10,"x_max":401,"o":"m 401 503 l 354 449 q 313 477 343 464 q 249 490 282 490 q 216 486 233 490 q 183 472 199 482 q 158 445 168 461 q 149 406 149 429 q 166 360 149 378 q 209 331 183 343 q 265 306 235 318 q 320 276 294 293 q 363 235 346 260 q 381 171 381 210 q 367 101 381 133 q 326 43 353 68 q 263 3 300 18 q 178 -11 225 -11 q 83 6 131 -11 q 10 58 36 22 q 26 74 17 64 q 43 92 35 83 q 57 106 51 100 q 64 113 63 113 q 80 97 68 106 q 109 81 92 89 q 147 68 126 74 q 186 63 167 63 q 225 68 204 63 q 263 85 246 74 q 292 116 281 97 q 304 160 304 135 q 287 205 304 188 q 243 235 269 222 q 187 259 217 247 q 131 288 157 271 q 87 329 104 304 q 69 394 69 354 q 88 473 69 440 q 133 526 106 506 q 192 556 160 546 q 256 565 225 565 q 333 550 292 565 q 401 503 374 535 z "},"k":{"ha":568,"x_min":46,"x_max":532,"o":"m 492 569 l 532 522 q 419 427 472 474 q 307 332 367 381 l 508 0 l 419 0 l 247 281 l 146 197 l 122 0 l 46 0 l 176 1064 l 253 1064 l 158 289 q 325 428 244 361 q 492 569 406 496 z "},"y":{"ha":617,"x_min":38,"x_max":619,"o":"m 139 -267 l 58 -267 q 99 -197 81 -229 q 137 -131 118 -164 q 176 -60 156 -97 q 222 22 196 -24 q 130 288 174 150 q 38 556 86 426 l 119 556 q 174 406 151 472 q 213 284 196 339 q 244 182 231 229 q 272 90 257 135 q 322 182 297 135 q 376 284 346 229 q 446 406 407 339 q 538 556 485 472 l 619 556 l 139 -267 z "},"ø":{"ha":689,"x_min":25,"x_max":625,"o":"m 38 246 q 65 372 38 313 q 137 474 92 431 q 242 544 182 518 q 368 569 301 569 q 451 557 413 569 q 522 522 490 544 l 575 576 l 613 542 l 560 488 q 608 407 592 454 q 625 307 625 360 q 599 184 625 242 q 527 83 572 126 q 422 14 482 39 q 296 -11 363 -11 q 125 46 194 -11 q 88 8 106 25 q 60 -21 71 -8 l 25 17 q 53 45 36 28 q 89 82 69 63 q 51 156 65 114 q 38 246 38 199 m 182 104 q 237 74 206 85 q 304 64 268 64 q 397 83 353 64 q 474 133 440 101 q 527 208 507 165 q 547 299 547 250 q 501 429 547 376 q 424 351 465 393 q 342 267 383 310 q 259 183 300 225 q 182 104 218 142 m 114 256 q 149 142 114 188 q 225 219 185 178 q 307 302 265 260 q 388 385 349 344 q 464 463 428 426 q 357 493 418 493 q 265 474 308 493 q 188 423 221 456 q 134 347 154 390 q 114 256 114 304 z "},"w":{"ha":894,"x_min":40,"x_max":899,"o":"m 414 436 l 375 556 l 443 556 l 582 113 l 822 556 l 899 556 l 564 -33 l 439 361 l 224 -33 l 40 556 l 117 556 l 242 113 q 293 211 265 158 q 348 315 317 256 q 414 436 379 374 z "},"x":{"ha":554,"x_min":-18,"x_max":536,"o":"m 217 288 q 136 422 178 354 q 54 556 94 489 l 149 556 q 211 449 181 497 q 274 344 242 401 q 362 449 319 401 q 450 554 404 497 l 536 554 q 479 485 507 518 q 424 419 451 451 q 369 354 397 388 q 311 283 342 321 q 398 142 351 217 q 483 0 444 67 l 388 0 q 319 109 353 57 q 250 218 285 161 q 160 110 204 161 q 68 0 115 58 l -18 0 q 99 144 40 72 q 217 288 158 215 z "},"z":{"ha":558,"x_min":-12,"x_max":540,"o":"m 467 0 l -12 0 l 393 489 l 158 489 q 88 509 113 489 q 68 571 63 529 l 72 608 l 143 608 l 140 590 q 148 563 138 571 q 182 556 158 556 l 540 556 l 142 75 l 476 75 l 467 0 z "},"o":{"ha":688,"x_min":31,"x_max":624,"o":"m 39 278 q 75 391 46 338 q 149 484 104 444 q 249 547 193 524 q 367 569 306 569 q 471 549 424 569 q 552 494 518 529 q 605 410 586 458 q 624 308 624 363 q 597 185 624 243 q 526 83 571 126 q 421 14 481 39 q 294 -11 361 -11 q 183 10 233 -11 q 99 71 133 32 q 47 163 64 110 q 39 278 31 215 m 115 278 q 122 194 110 233 q 158 126 133 156 q 221 81 183 97 q 303 64 258 64 q 395 83 351 64 q 472 133 439 101 q 526 208 506 165 q 546 300 546 251 q 531 376 546 340 q 492 437 517 411 q 432 478 467 463 q 356 493 397 493 q 269 476 311 493 q 196 431 228 460 q 142 362 164 401 q 115 278 121 322 z "},"æ":{"ha":921,"x_min":18,"x_max":892,"o":"m 463 135 l 457 121 q 596 64 510 64 q 682 79 640 64 q 756 121 724 94 l 806 67 q 704 10 761 31 q 589 -11 647 -11 q 489 6 535 -11 q 408 56 443 24 q 316 6 369 22 q 201 -11 263 -11 q 119 1 153 -11 q 62 33 85 13 q 28 81 39 54 q 18 136 18 107 q 37 210 18 179 q 85 263 56 242 q 149 293 114 283 q 218 303 185 303 l 335 303 q 410 451 354 386 q 286 492 379 492 q 184 479 225 492 q 111 447 143 467 l 85 508 q 184 552 128 536 q 308 568 240 568 q 472 507 429 568 q 560 553 513 536 q 658 569 608 569 q 810 515 750 569 q 892 372 871 460 q 783 331 843 354 q 658 284 722 308 q 532 235 594 260 q 415 190 469 211 q 424 167 419 178 q 436 144 429 156 l 463 135 m 799 392 q 742 466 782 439 q 649 493 701 493 q 556 474 600 493 q 479 423 513 456 q 426 349 446 390 q 407 261 407 307 q 408 242 407 247 q 503 279 453 260 q 606 319 554 299 q 707 358 657 339 q 799 392 757 376 m 92 149 q 103 108 92 124 q 132 82 114 92 q 173 68 150 72 q 219 64 196 64 q 367 108 315 64 q 329 242 329 164 l 258 242 q 177 233 210 242 q 126 212 144 225 q 99 182 107 199 q 92 149 92 165 z "},"A":{"ha":896,"x_min":-28,"x_max":829,"o":"m 733 0 q 688 157 714 64 q 633 354 661 250 l 253 354 q 151 157 200 250 q 67 0 101 64 l -28 0 q 44 133 0 50 q 141 314 89 215 q 250 519 193 413 q 359 724 307 625 q 456 904 411 822 q 528 1038 500 986 q 567 904 543 986 q 619 724 592 822 q 678 519 647 625 q 738 314 710 413 q 790 133 765 215 q 829 0 814 50 l 733 0 m 483 794 q 398 635 447 729 q 296 436 349 540 l 613 436 q 557 635 583 540 q 511 794 531 729 q 508 813 510 800 q 503 838 506 826 q 492 813 499 826 q 483 794 486 800 z "},"ï":{"ha":263,"x_min":-6,"x_max":356,"o":"m 122 0 l 46 0 l 114 556 l 190 556 l 122 0 m 243 713 q 263 757 243 739 q 307 775 283 775 q 341 760 326 775 q 356 724 356 746 q 335 678 356 696 q 292 661 314 661 q 258 675 272 661 q 243 713 243 689 m -6 713 q 15 757 -6 739 q 58 775 35 775 q 92 760 78 775 q 107 724 107 746 q 86 678 107 696 q 43 661 65 661 q 9 675 24 661 q -6 713 -6 689 z "},"ý":{"ha":617,"x_min":38,"x_max":619,"o":"m 139 -267 l 58 -267 q 99 -197 81 -229 q 137 -131 118 -164 q 176 -60 156 -97 q 222 22 196 -24 q 130 288 174 150 q 38 556 86 426 l 119 556 q 174 406 151 472 q 213 284 196 339 q 244 182 231 229 q 272 90 257 135 q 322 182 297 135 q 376 284 346 229 q 446 406 407 339 q 538 556 485 472 l 619 556 l 139 -267 m 324 671 l 474 857 l 556 857 q 470 763 513 810 q 383 671 428 717 l 324 671 z "},"ÿ":{"ha":617,"x_min":38,"x_max":619,"o":"m 139 -267 l 58 -267 q 99 -197 81 -229 q 137 -131 118 -164 q 176 -60 156 -97 q 222 22 196 -24 q 130 288 174 150 q 38 556 86 426 l 119 556 q 174 406 151 472 q 213 284 196 339 q 244 182 231 229 q 272 90 257 135 q 322 182 297 135 q 376 284 346 229 q 446 406 407 339 q 538 556 485 472 l 619 556 l 139 -267 m 426 713 q 446 757 426 739 q 489 775 465 775 q 524 760 508 775 q 539 724 539 746 q 518 678 539 696 q 475 661 497 661 q 441 675 456 661 q 426 713 426 689 m 178 713 q 197 757 178 739 q 240 775 217 775 q 275 760 260 775 q 290 724 290 746 q 270 678 290 696 q 226 661 250 661 q 192 675 207 661 q 178 713 178 689 z "},"B":{"ha":807,"x_min":94,"x_max":725,"o":"m 300 906 l 256 540 l 422 540 q 510 557 472 540 q 575 603 549 574 q 615 671 601 632 q 629 754 629 710 q 580 869 629 833 q 449 906 531 906 l 300 906 m 246 458 l 200 86 l 369 86 q 467 99 421 86 q 547 137 513 111 q 602 201 582 163 q 622 292 622 240 q 603 368 622 336 q 553 420 585 400 q 481 449 522 440 q 394 458 439 458 l 246 458 m 94 0 l 217 992 l 449 992 q 650 941 575 992 q 725 774 725 890 q 715 688 725 731 q 684 608 706 644 q 626 544 663 572 q 539 501 590 515 q 606 478 574 494 q 663 436 638 463 q 702 374 688 410 q 717 292 717 339 q 687 162 717 217 q 608 71 657 107 q 495 17 558 35 q 367 0 432 0 l 94 0 z "},"D":{"ha":990,"x_min":94,"x_max":936,"o":"m 217 992 l 447 992 q 676 952 582 992 q 827 849 769 913 q 910 706 885 786 q 936 544 936 625 q 889 320 936 421 q 764 149 842 219 q 585 39 686 78 q 374 0 483 0 l 94 0 l 217 992 m 375 90 q 554 122 469 90 q 703 211 639 153 q 804 353 767 269 q 842 540 842 436 q 816 683 842 617 q 742 797 790 749 q 624 873 693 846 q 465 900 554 900 l 301 900 l 201 90 l 375 90 z "},"E":{"ha":849,"x_min":94,"x_max":842,"o":"m 94 0 l 217 992 l 842 992 l 831 906 l 300 906 l 256 543 l 731 543 l 719 454 l 244 454 l 200 89 l 750 89 l 739 0 l 94 0 z "},"H":{"ha":1040,"x_min":94,"x_max":974,"o":"m 94 0 l 217 992 l 313 992 l 257 544 l 821 544 l 876 992 l 974 992 q 958 865 968 943 q 937 692 949 786 q 912 497 925 599 q 887 301 899 394 q 865 128 875 207 q 849 0 854 49 l 754 0 l 810 454 l 246 454 l 190 0 l 94 0 z "},"I":{"ha":379,"x_min":94,"x_max":313,"o":"m 217 992 l 313 992 l 190 0 l 94 0 l 217 992 z "},"J":{"ha":414,"x_min":-121,"x_max":349,"o":"m -121 -203 l -110 -114 q -16 -92 -60 -111 q 63 -39 28 -74 q 121 47 97 -4 q 153 165 144 99 l 254 992 l 349 992 l 247 161 q 203 8 236 75 q 122 -106 171 -60 q 10 -176 72 -151 q -121 -203 -53 -201 z "},"K":{"ha":864,"x_min":94,"x_max":901,"o":"m 699 0 q 531 256 611 132 q 361 514 450 381 q 306 465 333 489 q 249 418 278 442 q 224 209 235 310 q 199 0 213 108 l 94 0 l 217 992 l 321 992 l 269 575 q 265 553 268 564 q 260 529 263 542 q 275 546 267 539 q 290 563 283 553 q 534 776 414 667 q 779 992 654 886 l 901 992 q 673 785 788 889 q 443 579 558 682 q 631 290 542 431 q 818 0 721 149 l 699 0 z "},"M":{"ha":1247,"x_min":94,"x_max":1186,"o":"m 222 1036 q 276 941 243 997 q 346 819 308 885 q 424 686 383 754 q 501 555 464 618 q 569 439 538 492 q 619 353 600 386 q 672 418 633 371 q 763 528 711 465 q 876 663 815 590 q 994 806 936 736 q 1102 937 1051 876 q 1186 1036 1153 997 l 1058 0 l 958 0 l 1044 707 q 1050 733 1047 719 q 1054 757 1053 747 q 988 677 1026 724 q 908 578 950 631 q 821 470 865 525 q 735 364 776 415 q 658 268 693 313 q 600 194 624 224 q 557 266 585 219 q 496 370 529 313 q 428 490 463 428 q 363 606 393 551 q 309 701 332 660 q 278 757 286 742 q 277 733 276 747 q 275 707 278 719 l 189 0 l 94 0 l 222 1036 z "},"N":{"ha":1128,"x_min":94,"x_max":1061,"o":"m 1061 992 l 933 -46 q 849 70 900 3 q 738 214 797 138 q 615 370 678 290 q 493 526 551 450 q 387 669 435 603 q 308 783 339 735 q 298 799 306 789 q 285 819 290 810 l 285 775 l 189 0 l 94 0 l 222 1038 q 306 919 256 986 q 416 778 357 853 q 538 624 475 703 q 658 470 600 544 q 767 330 717 396 q 849 215 817 264 q 858 198 851 208 q 871 178 865 188 l 872 224 l 967 992 l 1061 992 z "},"P":{"ha":765,"x_min":94,"x_max":747,"o":"m 249 488 l 396 488 q 519 513 469 488 q 597 574 568 538 q 639 650 626 610 q 651 721 651 690 q 639 788 651 756 q 601 847 626 821 q 538 888 576 872 q 449 903 500 903 l 300 903 l 249 488 m 94 0 l 217 992 l 457 992 q 567 976 514 992 q 660 929 619 961 q 724 849 700 897 q 747 736 747 801 q 726 615 747 675 q 662 506 706 554 q 550 428 618 458 q 386 397 482 397 l 238 397 l 189 0 l 94 0 z "},"R":{"ha":836,"x_min":94,"x_max":760,"o":"m 94 0 l 217 992 l 457 992 q 567 976 514 992 q 660 929 619 961 q 724 849 700 897 q 747 736 747 801 q 735 647 747 692 q 700 560 724 601 q 639 485 676 519 q 550 428 601 450 q 593 336 564 396 q 654 211 622 276 q 715 88 686 146 q 760 0 744 29 l 644 0 q 606 77 632 25 q 551 188 581 129 q 494 305 522 247 q 446 400 465 363 q 417 397 432 397 q 386 397 401 397 l 238 397 l 189 0 l 94 0 m 249 488 l 396 488 q 519 513 469 488 q 597 574 568 538 q 639 650 626 610 q 651 721 651 690 q 639 788 651 756 q 601 847 626 821 q 538 888 576 872 q 449 903 500 903 l 300 903 l 249 488 z "},"U":{"ha":964,"x_min":114,"x_max":910,"o":"m 433 -11 q 297 13 358 -11 q 193 82 235 38 q 133 191 151 126 q 124 338 114 256 l 204 992 l 299 992 l 219 342 q 226 233 213 282 q 269 151 239 185 q 344 98 299 117 q 444 79 389 79 q 549 98 499 79 q 638 151 599 117 q 703 233 676 185 q 736 342 729 282 l 815 992 l 910 992 l 829 338 q 784 191 819 256 q 695 82 749 126 q 574 13 642 38 q 433 -11 507 -11 z "},"Y":{"ha":882,"x_min":99,"x_max":932,"o":"m 485 346 l 442 0 l 346 0 l 389 346 q 351 427 374 376 q 300 540 328 478 q 243 669 272 601 q 186 798 214 736 q 135 910 158 860 q 99 992 113 961 l 206 992 q 253 886 225 950 q 314 751 282 822 q 378 606 346 679 q 436 471 410 532 l 447 429 l 469 471 q 560 606 511 532 q 658 751 610 679 q 750 886 707 822 q 824 992 793 950 l 932 992 l 485 346 z "},"~":{"ha":650,"x_min":144,"x_max":583,"o":"m 350 682 q 315 713 331 706 q 281 721 300 721 q 256 718 269 721 q 230 708 243 715 q 206 686 217 700 q 190 651 196 672 l 144 654 q 164 703 150 682 q 197 738 178 724 q 238 760 217 753 q 281 767 260 767 q 336 754 313 767 q 379 718 360 742 q 413 687 399 694 q 447 679 428 679 q 471 682 457 679 q 498 692 485 685 q 522 714 511 700 q 538 749 532 728 l 583 746 q 565 697 579 718 q 531 662 550 676 q 490 640 511 647 q 447 633 468 633 q 392 647 415 633 q 350 682 369 660 z "},"ñ":{"ha":667,"x_min":46,"x_max":617,"o":"m 114 556 l 179 556 l 168 413 q 273 525 208 482 q 421 568 338 568 q 545 522 503 568 q 581 401 588 476 l 532 0 l 456 0 l 501 375 q 478 456 506 422 q 390 492 451 489 q 306 477 346 492 q 235 436 267 463 q 184 374 204 410 q 158 294 164 338 l 122 0 l 46 0 l 114 556 m 382 693 q 348 724 363 717 q 314 732 333 732 q 290 729 303 732 q 263 719 276 726 q 240 697 250 711 q 224 663 229 683 l 178 665 q 197 714 182 693 q 231 749 211 735 q 272 771 250 764 q 314 778 293 778 q 369 765 346 778 q 411 729 392 753 q 446 698 431 706 q 481 690 461 690 q 504 693 490 690 q 531 703 518 696 q 555 725 544 711 q 571 760 565 739 l 617 757 q 597 708 611 729 q 564 673 583 688 q 523 651 544 658 q 481 644 501 644 q 425 658 449 644 q 382 693 401 671 z "},"F":{"ha":771,"x_min":94,"x_max":785,"o":"m 94 0 l 217 992 l 785 992 l 774 904 l 300 904 l 254 529 l 672 529 l 661 440 l 243 440 l 189 0 l 94 0 z "},"L":{"ha":779,"x_min":94,"x_max":728,"o":"m 94 0 l 217 992 l 311 992 l 200 90 l 728 90 l 717 0 l 94 0 z "},"C":{"ha":893,"x_min":78,"x_max":910,"o":"m 819 67 q 694 14 771 39 q 521 -11 618 -11 q 333 24 415 -11 q 194 120 251 60 q 108 262 138 181 q 78 433 78 343 q 126 658 78 554 q 253 839 174 763 q 438 959 333 915 q 656 1003 542 1003 q 731 998 693 1003 q 803 983 769 993 q 864 961 836 974 q 910 933 892 949 q 897 915 901 922 q 887 901 892 908 q 875 883 882 893 q 858 858 868 874 q 760 900 818 886 q 649 914 703 914 q 468 876 554 914 q 317 776 382 839 q 213 629 251 713 q 175 454 175 546 q 200 314 175 381 q 272 197 225 247 q 385 116 318 146 q 536 86 453 86 q 615 92 576 86 q 686 109 653 99 q 745 131 719 119 q 786 153 771 142 l 819 67 z "},"Q":{"ha":1154,"x_min":78,"x_max":1099,"o":"m 78 443 q 125 658 78 556 q 251 836 172 760 q 434 958 331 913 q 650 1003 538 1003 q 829 967 747 1003 q 971 868 911 931 q 1065 722 1031 806 q 1099 544 1099 639 q 1078 404 1099 471 q 1022 278 1058 338 q 935 170 986 219 q 824 83 885 121 l 1078 90 l 1067 0 l 632 0 q 578 -8 604 -6 q 525 -11 553 -11 q 346 24 428 -11 q 204 121 264 60 q 111 265 144 182 q 78 443 78 349 m 172 453 q 199 307 172 375 q 275 188 226 239 q 390 108 324 138 q 536 79 457 79 q 713 115 628 79 q 862 214 797 151 q 965 360 926 276 q 1004 536 1004 443 q 976 683 1004 614 q 900 802 949 751 q 785 882 851 853 q 639 911 718 911 q 463 874 547 911 q 313 775 378 838 q 210 629 249 713 q 172 453 172 546 z "},"T":{"ha":743,"x_min":124,"x_max":756,"o":"m 756 992 l 744 901 l 481 901 l 369 0 l 274 0 l 385 901 l 124 901 l 135 992 l 756 992 z "},"‹":{"ha":390,"x_min":57,"x_max":326,"o":"m 265 86 l 57 335 q 114 386 76 351 q 192 458 151 421 q 269 531 232 496 q 326 582 307 565 l 315 489 q 278 453 299 474 q 235 412 257 433 q 192 370 214 390 q 154 335 171 350 q 183 299 167 319 q 215 257 199 279 q 248 214 232 235 q 276 178 264 193 l 265 86 z "},">":{"ha":778,"x_min":67,"x_max":721,"o":"m 67 -21 l 81 89 l 535 333 l 140 578 l 153 686 q 437 510 296 599 q 721 333 578 421 l 67 -21 z "},"<":{"ha":775,"x_min":43,"x_max":697,"o":"m 624 89 l 611 -21 l 43 333 q 370 510 207 421 q 697 686 533 599 l 685 578 q 457 456 571 517 q 231 333 343 396 q 428 210 329 271 q 624 89 526 150 z "},"=":{"ha":901,"x_min":71,"x_max":822,"o":"m 789 256 l 779 176 l 71 176 l 81 256 l 789 256 m 822 528 l 813 447 l 104 447 l 114 528 l 822 528 z "},"@":{"ha":1300,"x_min":47,"x_max":1211,"o":"m 315 246 q 342 370 315 311 q 415 473 369 429 q 519 542 460 517 q 643 568 578 568 q 719 557 685 568 q 781 527 754 546 q 824 485 807 508 q 847 440 840 463 l 867 556 l 938 556 l 878 71 l 954 71 q 1017 87 985 71 q 1075 137 1049 103 q 1118 224 1101 171 q 1135 354 1135 278 q 1106 516 1135 439 q 1022 651 1076 593 q 886 744 967 710 q 703 778 806 778 q 464 729 571 778 q 281 601 357 681 q 163 423 204 522 q 122 222 122 324 q 156 47 122 128 q 248 -96 189 -35 q 389 -192 307 -157 q 567 -226 471 -226 q 728 -201 650 -226 q 876 -132 807 -176 l 914 -185 q 742 -269 836 -240 q 554 -299 647 -299 q 353 -258 446 -299 q 192 -148 260 -218 q 85 16 124 -78 q 47 218 47 110 q 97 451 47 338 q 235 653 146 565 q 445 796 324 742 q 713 850 567 850 q 923 810 831 850 q 1079 704 1015 771 q 1177 549 1143 638 q 1211 363 1211 460 q 1189 200 1211 268 q 1129 88 1167 132 q 1043 22 1092 43 q 942 0 994 0 l 793 0 l 800 57 q 804 86 803 72 q 808 113 806 100 q 773 67 796 89 q 720 28 750 46 q 653 -1 690 10 q 572 -11 615 -11 q 467 9 514 -11 q 386 64 419 29 q 334 146 353 99 q 315 246 315 193 m 392 257 q 406 181 392 215 q 445 119 419 146 q 506 78 471 93 q 583 64 542 64 q 678 83 633 64 q 757 133 724 101 q 810 209 790 165 q 829 301 829 253 q 815 377 829 342 q 776 438 801 413 q 715 478 750 464 q 636 493 679 493 q 542 475 586 493 q 464 425 497 457 q 411 350 431 393 q 392 257 392 307 z "},"?":{"ha":663,"x_min":103,"x_max":643,"o":"m 169 796 l 103 821 q 143 890 118 854 q 204 956 168 926 q 289 1006 240 986 q 400 1025 338 1025 q 499 1006 454 1025 q 575 953 543 986 q 625 875 607 919 q 643 779 643 831 q 598 628 643 692 q 474 513 553 565 q 424 482 449 496 q 379 450 400 468 q 344 406 358 432 q 324 339 329 379 l 310 229 l 228 229 l 244 365 q 268 438 250 410 q 313 486 286 465 q 374 526 340 507 q 443 572 407 544 q 532 665 504 615 q 560 774 560 715 q 513 897 560 849 q 390 946 467 946 q 256 906 310 946 q 169 796 201 867 m 242 13 q 208 26 222 13 q 193 64 193 40 q 213 108 193 90 q 256 126 233 126 q 290 112 275 126 q 304 75 304 97 q 283 30 304 47 q 242 13 263 13 z "},"!":{"ha":351,"x_min":79,"x_max":297,"o":"m 215 1050 l 297 1050 l 197 232 l 115 232 l 215 1050 m 131 18 q 94 35 108 18 q 82 75 79 51 q 103 117 85 101 q 144 132 122 132 q 181 117 165 132 q 193 75 196 101 q 171 35 190 51 q 131 18 151 18 z "},":":{"ha":288,"x_min":47,"x_max":206,"o":"m 92 418 q 112 463 92 444 q 156 481 132 481 q 190 466 175 481 q 206 429 206 451 q 185 384 206 401 q 142 367 165 367 q 107 381 122 367 q 92 418 92 394 m 47 51 q 67 96 47 78 q 111 114 88 114 q 145 99 131 114 q 160 63 160 85 q 140 17 160 35 q 97 0 119 0 q 63 14 78 0 q 47 51 47 28 z "},";":{"ha":349,"x_min":-42,"x_max":247,"o":"m 135 401 q 155 446 135 428 q 199 464 175 464 q 233 449 218 464 q 247 413 247 435 q 227 367 247 385 q 185 350 207 350 q 150 364 165 350 q 135 401 135 378 m 189 121 q 110 -24 149 47 q 32 -168 72 -94 l -42 -168 q 30 -24 -6 -94 q 103 121 65 47 l 189 121 z "},"\"":{"ha":464,"x_min":132,"x_max":444,"o":"m 132 661 l 175 1008 l 258 1008 l 210 661 l 132 661 m 319 661 l 363 1008 l 444 1008 l 396 661 l 319 661 z "},"#":{"ha":797,"x_min":46,"x_max":768,"o":"m 376 0 l 444 282 l 269 282 q 235 141 253 211 q 201 0 217 71 l 119 0 q 153 141 136 71 q 186 282 171 211 l 46 282 q 56 322 50 301 q 64 361 61 342 l 207 361 q 228 449 218 406 q 250 538 238 493 l 110 538 l 126 617 l 268 617 l 339 900 l 419 900 q 385 759 401 829 q 350 617 368 689 l 526 617 l 596 900 l 678 900 q 642 759 658 829 q 608 617 625 689 l 768 617 l 750 538 l 589 538 l 546 361 l 706 361 l 686 282 l 526 282 l 458 0 l 376 0 m 332 538 q 310 449 321 493 q 288 361 299 406 l 464 361 l 507 538 l 332 538 z "},"%":{"ha":940,"x_min":81,"x_max":857,"o":"m 596 146 q 617 90 596 113 q 675 67 639 67 q 746 96 717 67 q 775 165 775 125 q 753 222 775 199 q 696 244 732 244 q 625 215 654 244 q 596 146 596 186 m 665 -12 q 558 31 600 -12 q 515 140 515 75 q 531 211 515 178 q 573 269 547 244 q 633 309 599 294 q 706 324 668 324 q 765 312 738 324 q 813 280 793 300 q 845 232 833 260 q 857 174 857 204 q 841 101 857 135 q 798 42 825 67 q 737 2 771 17 q 665 -12 703 -12 m 163 535 q 184 478 163 501 q 242 456 206 456 q 311 485 282 456 q 340 554 340 514 q 319 610 340 588 q 264 632 299 632 q 192 603 222 632 q 163 535 163 575 m 232 376 q 124 419 167 376 q 81 528 81 463 q 97 599 81 565 q 140 658 113 633 q 201 698 167 683 q 274 713 236 713 q 332 701 304 713 q 380 669 360 689 q 412 621 400 649 q 424 561 424 593 q 408 489 424 522 q 365 431 392 456 q 303 391 338 406 q 232 376 268 376 m 169 0 q 420 350 294 176 q 672 700 546 524 l 761 700 q 510 350 635 524 q 258 0 385 176 l 169 0 z "},"’":{"ha":256,"x_min":125,"x_max":253,"o":"m 161 796 l 125 826 q 176 896 158 854 q 192 986 194 938 l 249 996 q 229 885 253 938 q 161 796 206 833 z "},"(":{"ha":383,"x_min":57,"x_max":436,"o":"m 57 306 q 85 539 57 428 q 158 744 113 650 q 259 915 203 839 q 372 1044 315 992 l 436 1013 q 329 888 382 960 q 234 726 276 815 q 165 532 192 636 q 139 310 139 428 q 151 153 139 228 q 183 14 163 79 q 231 -105 204 -51 q 288 -197 258 -158 l 217 -229 q 156 -134 185 -190 q 104 -9 126 -78 q 69 140 82 60 q 57 306 57 219 z "},")":{"ha":385,"x_min":-46,"x_max":333,"o":"m 333 510 q 306 275 333 386 q 233 69 278 164 q 131 -102 188 -26 q 17 -232 75 -178 q -15 -216 1 -224 q -46 -201 -31 -208 q 60 -76 7 -149 q 156 85 114 -4 q 225 279 199 175 q 251 501 251 383 q 240 657 251 582 q 207 797 228 732 q 159 916 186 863 q 103 1008 132 969 q 138 1025 121 1017 q 174 1043 156 1033 q 235 947 206 1003 q 285 822 264 890 q 320 674 307 753 q 333 510 333 594 z "},"*":{"ha":543,"x_min":124,"x_max":517,"o":"m 376 799 q 437 763 407 781 q 497 725 467 744 q 478 699 486 713 q 458 672 469 686 l 342 747 l 321 603 l 265 603 l 283 747 q 216 712 250 729 q 149 675 182 694 l 124 729 l 260 800 l 143 875 q 159 900 150 888 q 176 924 168 913 l 296 849 l 314 1000 l 375 1000 q 365 925 371 963 q 356 849 360 888 l 494 922 q 506 899 500 911 q 517 874 511 886 l 376 799 z "},"+":{"ha":632,"x_min":51,"x_max":565,"o":"m 236 71 l 263 285 l 51 285 l 61 363 l 272 363 l 299 575 l 381 575 l 354 363 l 565 363 l 556 285 l 344 285 l 318 71 l 236 71 z "},"|":{"ha":340,"x_min":43,"x_max":283,"o":"m 43 -325 l 203 981 l 283 981 l 124 -325 l 43 -325 z "},"{":{"ha":424,"x_min":88,"x_max":504,"o":"m 88 374 l 99 458 q 157 479 133 460 q 196 526 181 499 q 219 587 211 554 q 232 647 228 619 l 261 879 q 285 977 269 943 q 324 1026 301 1011 q 373 1043 346 1042 q 429 1044 400 1044 l 504 1044 l 494 965 l 426 965 q 390 958 406 965 q 365 935 375 951 q 347 889 354 918 q 335 817 340 860 l 311 625 q 292 539 304 574 q 263 480 279 504 q 230 442 247 456 q 196 418 213 428 q 224 394 210 408 q 249 355 239 379 q 263 296 260 331 q 261 211 267 261 l 238 19 q 238 -99 226 -68 q 293 -129 250 -129 l 361 -129 l 351 -208 l 276 -208 q 219 -207 246 -208 q 174 -189 192 -206 q 149 -135 156 -172 q 150 -25 142 -97 l 175 185 q 178 246 179 214 q 169 306 178 278 q 142 353 161 335 q 88 374 122 372 z "},"}":{"ha":421,"x_min":-29,"x_max":386,"o":"m 386 458 l 375 374 q 313 350 338 372 q 274 296 289 328 q 251 228 258 264 q 240 167 243 193 l 215 -43 q 191 -142 207 -108 q 152 -190 175 -175 q 101 -207 129 -206 q 44 -208 74 -208 l -29 -208 l -19 -129 l 49 -129 q 85 -122 69 -129 q 110 -99 100 -115 q 127 -53 121 -82 q 139 19 133 -25 l 165 231 q 184 307 171 275 q 214 360 197 339 q 248 396 231 382 q 279 418 265 410 q 251 442 265 428 q 227 480 238 456 q 212 539 217 504 q 214 625 207 574 l 238 817 q 243 889 243 860 q 237 935 243 918 q 217 958 231 951 q 183 965 204 965 l 115 965 l 125 1044 l 199 1044 q 255 1043 228 1044 q 301 1027 282 1042 q 328 978 319 1013 q 328 879 336 944 l 301 667 q 297 604 299 639 q 303 538 296 569 q 329 483 310 506 q 386 458 349 460 z "},"-":{"ha":435,"x_min":71,"x_max":339,"o":"m 71 247 l 81 326 l 339 326 l 329 247 l 71 247 z "},"/":{"ha":583,"x_min":6,"x_max":606,"o":"m 6 -26 q 265 502 136 240 q 524 1031 393 764 l 606 1031 q 347 502 475 764 q 88 -26 218 240 l 6 -26 z "},"\\":{"ha":586,"x_min":132,"x_max":483,"o":"m 222 1031 l 483 -26 l 393 -26 l 132 1031 l 222 1031 z "},"G":{"ha":949,"x_min":76,"x_max":924,"o":"m 865 454 l 818 60 q 682 8 757 26 q 528 -11 607 -11 q 338 22 421 -11 q 196 115 254 56 q 107 254 138 174 q 76 428 76 335 q 125 656 76 550 q 254 838 174 761 q 440 959 335 915 q 658 1003 546 1003 q 800 985 729 1003 q 924 932 871 967 l 867 854 q 764 898 824 882 q 646 914 704 914 q 470 877 556 914 q 319 776 385 840 q 213 627 253 713 q 172 446 172 542 q 198 304 172 371 q 271 188 224 238 q 386 108 318 138 q 539 79 454 79 q 637 90 585 79 q 738 121 689 100 l 768 371 l 554 371 l 564 454 l 865 454 z "},"V":{"ha":899,"x_min":96,"x_max":953,"o":"m 190 992 q 222 881 204 944 q 260 744 240 817 q 301 595 281 672 q 342 446 322 518 q 381 310 363 374 q 413 199 399 246 l 421 154 l 440 199 q 499 310 465 246 q 571 446 533 374 q 648 595 608 518 q 726 744 688 672 q 797 881 764 817 q 857 992 831 944 l 953 992 q 881 858 925 940 q 783 678 836 776 q 674 473 731 579 q 565 269 618 367 q 468 88 513 171 q 396 -46 424 6 q 357 88 381 6 q 305 269 333 171 q 246 473 276 367 q 187 678 215 579 q 135 858 158 776 q 96 992 111 940 l 190 992 z "},"S":{"ha":769,"x_min":14,"x_max":732,"o":"m 732 940 l 688 864 q 584 897 642 883 q 471 911 526 911 q 375 897 418 911 q 301 860 332 883 q 254 805 271 836 q 238 739 238 774 q 272 660 238 690 q 356 607 306 631 q 466 562 407 583 q 576 508 525 540 q 660 427 626 475 q 694 304 694 379 q 668 175 694 233 q 592 76 642 117 q 470 12 542 35 q 310 -11 399 -11 q 203 -1 251 -11 q 119 24 156 10 q 56 54 82 39 q 14 81 31 69 l 67 164 q 181 107 113 132 q 319 82 250 82 q 408 94 360 82 q 500 131 457 106 q 572 196 543 156 q 600 294 600 236 q 566 390 600 353 q 481 453 532 426 q 370 501 429 479 q 260 550 311 522 q 174 618 208 578 q 140 721 140 658 q 164 824 140 775 q 231 913 188 874 q 336 974 275 951 q 472 997 397 997 q 551 991 511 997 q 627 976 592 985 q 690 957 663 967 q 732 940 718 947 z "},"Z":{"ha":881,"x_min":-29,"x_max":894,"o":"m 271 992 l 894 992 l 147 92 l 810 92 l 799 0 l -29 0 q 73 124 13 50 q 203 285 133 199 q 348 463 274 371 q 492 640 422 554 q 622 797 561 725 q 724 917 682 869 l 235 917 q 163 935 190 917 q 140 993 135 953 l 146 1042 l 233 1042 l 231 1024 q 238 998 228 1004 q 271 992 247 992 z "},"W":{"ha":1308,"x_min":99,"x_max":1358,"o":"m 1358 989 q 1262 803 1314 903 q 1157 599 1210 703 q 1052 396 1104 496 q 956 210 1000 296 q 879 57 913 124 q 829 -44 846 -10 l 681 515 q 676 529 678 521 q 674 544 674 538 q 669 536 671 542 q 665 526 668 531 q 661 515 663 521 q 553 304 606 407 q 506 213 531 260 q 458 121 482 167 q 413 32 435 75 q 375 -46 392 -11 q 237 472 303 215 q 99 989 171 729 l 206 989 q 244 842 224 921 q 286 685 265 764 q 326 530 307 606 q 362 391 346 454 q 388 282 378 328 q 401 217 399 236 l 407 175 q 415 195 408 179 q 425 215 422 211 q 437 240 426 219 q 463 292 447 261 q 497 363 478 324 q 536 442 517 401 q 640 653 582 536 q 604 810 619 739 q 590 869 597 840 q 578 924 583 899 q 568 966 572 949 q 564 989 564 983 l 656 989 q 738 671 700 821 q 771 540 754 607 q 802 413 788 474 q 829 301 817 353 q 849 217 842 250 q 852 196 851 206 q 854 175 853 186 l 871 217 q 901 283 879 236 q 955 393 924 329 q 1024 533 986 457 q 1103 688 1063 608 q 1183 844 1143 767 q 1258 989 1224 922 l 1358 989 z "},"X":{"ha":825,"x_min":-22,"x_max":860,"o":"m 367 508 q 334 570 354 532 q 290 655 314 608 q 240 751 265 701 q 190 846 214 800 q 147 930 167 892 q 114 992 126 968 l 231 992 q 274 907 247 958 q 328 800 300 856 q 383 692 357 744 q 428 607 410 640 l 440 574 l 461 607 q 525 692 486 640 q 604 800 564 744 q 683 907 644 856 q 747 992 722 958 l 860 992 l 490 504 q 524 439 503 479 q 571 351 546 399 q 623 251 596 303 q 675 152 650 200 q 721 65 700 104 q 756 0 742 25 l 638 0 l 454 356 q 435 395 447 369 q 415 436 424 421 q 403 417 408 426 q 394 404 397 407 l 94 0 l -22 0 q 28 65 -3 25 q 97 154 60 106 q 173 254 133 203 q 249 354 213 306 q 317 443 286 403 q 367 508 347 483 z "},"Æ":{"ha":947,"x_min":-26,"x_max":946,"o":"m 382 0 l 425 354 l 254 354 q 152 157 201 250 q 68 0 103 64 l -26 0 q 44 129 1 50 q 136 302 86 208 q 240 496 186 396 q 342 690 293 596 q 434 862 392 783 q 504 992 476 940 l 946 992 l 935 906 l 583 906 l 539 543 l 835 543 l 824 454 l 528 454 l 483 89 l 854 89 l 843 0 l 382 0 m 478 781 q 394 623 442 715 q 293 431 346 531 l 435 431 l 478 781 z "},"Ñ":{"ha":1126,"x_min":93,"x_max":1060,"o":"m 1060 992 l 932 -46 q 847 70 899 3 q 736 214 796 138 q 613 370 676 290 q 492 526 550 450 q 385 669 433 603 q 307 783 338 735 q 297 799 304 789 q 283 819 289 810 l 283 775 l 188 0 l 93 0 l 221 1038 q 305 919 254 986 q 415 778 356 853 q 536 624 474 703 q 657 470 599 544 q 765 330 715 396 q 847 215 815 264 q 857 198 850 208 q 869 178 864 188 l 871 224 l 965 992 l 1060 992 m 646 1097 q 611 1128 626 1121 q 576 1136 596 1136 q 552 1133 565 1136 q 526 1123 539 1131 q 502 1101 513 1115 q 486 1067 492 1088 l 442 1069 q 460 1118 446 1097 q 494 1153 475 1139 q 534 1175 513 1168 q 576 1182 556 1182 q 632 1169 608 1182 q 675 1133 656 1157 q 710 1102 694 1110 q 744 1094 725 1094 q 768 1097 754 1094 q 795 1108 782 1100 q 819 1129 808 1115 q 835 1164 829 1143 l 881 1161 q 861 1113 875 1133 q 828 1077 847 1092 q 787 1056 808 1063 q 744 1049 765 1049 q 689 1062 713 1049 q 646 1097 665 1075 z "},"Å":{"ha":896,"x_min":-28,"x_max":829,"o":"m 733 0 q 688 157 714 64 q 633 354 661 250 l 253 354 q 151 157 200 250 q 67 0 101 64 l -28 0 q 44 133 0 50 q 141 314 89 215 q 250 519 193 413 q 359 724 307 625 q 456 904 411 822 q 528 1038 500 986 q 567 904 543 986 q 619 724 592 822 q 678 519 647 625 q 738 314 710 413 q 790 133 765 215 q 829 0 814 50 l 733 0 m 483 794 q 398 635 447 729 q 296 436 349 540 l 613 436 q 557 635 583 540 q 511 794 531 729 q 508 813 510 800 q 503 838 506 826 q 492 813 499 826 q 483 794 486 800 m 439 1160 q 449 1204 439 1183 q 475 1241 458 1225 q 513 1266 492 1257 q 558 1275 535 1275 q 625 1248 599 1275 q 651 1181 651 1221 q 642 1136 651 1157 q 615 1099 632 1115 q 577 1074 599 1083 q 532 1065 556 1065 q 465 1092 492 1065 q 439 1160 439 1119 m 488 1164 q 502 1128 488 1143 q 538 1113 517 1113 q 583 1131 564 1113 q 603 1175 603 1150 q 589 1212 603 1197 q 551 1226 575 1226 q 508 1208 528 1226 q 488 1164 488 1190 z "},"Á":{"ha":896,"x_min":-28,"x_max":829,"o":"m 829 0 q 790 133 814 50 q 738 314 765 215 q 678 519 710 413 q 619 724 647 625 q 567 904 592 822 q 528 1038 543 986 q 456 904 500 986 q 359 724 411 822 q 250 519 307 625 q 141 314 193 413 q 44 133 89 215 q -28 0 0 50 l 67 0 q 151 157 101 64 q 253 354 200 250 l 633 354 q 688 157 661 250 q 733 0 714 64 l 829 0 m 483 794 q 492 813 486 800 q 503 838 499 826 q 508 813 506 826 q 511 794 510 800 q 557 635 531 729 q 613 436 583 540 l 296 436 q 398 635 349 540 q 483 794 447 729 m 488 1056 l 638 1242 l 719 1242 q 634 1148 676 1194 q 547 1056 592 1101 l 488 1056 z "},"É":{"ha":849,"x_min":94,"x_max":842,"o":"m 94 0 l 217 992 l 842 992 l 831 906 l 300 906 l 256 543 l 731 543 l 719 454 l 244 454 l 200 89 l 750 89 l 739 0 l 94 0 m 489 1056 l 639 1242 l 721 1242 q 635 1148 678 1194 q 549 1056 593 1101 l 489 1056 z "},"Í":{"ha":379,"x_min":94,"x_max":451,"o":"m 217 992 l 313 992 l 190 0 l 94 0 l 217 992 m 219 1056 l 369 1242 l 451 1242 q 366 1148 408 1194 q 279 1056 324 1101 l 219 1056 z "},"Ó":{"ha":1149,"x_min":78,"x_max":1099,"o":"m 78 443 q 125 658 78 556 q 251 836 172 760 q 434 958 331 913 q 650 1003 538 1003 q 829 967 747 1003 q 971 868 911 931 q 1065 722 1031 806 q 1099 544 1099 639 q 1051 330 1099 431 q 924 153 1004 229 q 741 33 844 78 q 525 -11 638 -11 q 346 24 428 -11 q 204 121 264 60 q 111 265 144 182 q 78 443 78 349 m 172 453 q 199 307 172 375 q 275 188 226 239 q 390 108 324 138 q 536 79 457 79 q 713 115 628 79 q 862 214 797 151 q 965 360 926 276 q 1004 536 1004 443 q 976 683 1004 614 q 900 802 949 751 q 785 882 851 853 q 639 911 718 911 q 463 874 547 911 q 313 775 378 838 q 210 629 249 713 q 172 453 172 546 m 596 1056 l 746 1242 l 828 1242 q 742 1148 785 1194 q 656 1056 700 1101 l 596 1056 z "},"Ú":{"ha":964,"x_min":114,"x_max":910,"o":"m 433 -11 q 297 13 358 -11 q 193 82 235 38 q 133 191 151 126 q 124 338 114 256 l 204 992 l 299 992 l 219 342 q 226 233 213 282 q 269 151 239 185 q 344 98 299 117 q 444 79 389 79 q 549 98 499 79 q 638 151 599 117 q 703 233 676 185 q 736 342 729 282 l 815 992 l 910 992 l 829 338 q 784 191 819 256 q 695 82 749 126 q 574 13 642 38 q 433 -11 507 -11 m 515 1056 l 664 1242 l 746 1242 q 661 1148 704 1194 q 575 1056 618 1101 l 515 1056 z "},"Ä":{"ha":896,"x_min":-28,"x_max":829,"o":"m 829 0 q 790 133 814 50 q 738 314 765 215 q 678 519 710 413 q 619 724 647 625 q 567 904 592 822 q 528 1038 543 986 q 456 904 500 986 q 359 724 411 822 q 250 519 307 625 q 141 314 193 413 q 44 133 89 215 q -28 0 0 50 l 67 0 q 151 157 101 64 q 253 354 200 250 l 633 354 q 688 157 661 250 q 733 0 714 64 l 829 0 m 483 794 q 492 813 486 800 q 503 838 499 826 q 508 813 506 826 q 511 794 510 800 q 557 635 531 729 q 613 436 583 540 l 296 436 q 398 635 349 540 q 483 794 447 729 m 607 1124 q 627 1168 607 1150 q 671 1186 647 1186 q 705 1172 690 1186 q 719 1135 719 1157 q 699 1090 719 1107 q 657 1072 679 1072 q 622 1086 636 1072 q 607 1124 607 1100 m 358 1124 q 378 1168 358 1150 q 422 1186 399 1186 q 456 1172 442 1186 q 471 1135 471 1157 q 451 1090 471 1107 q 408 1072 431 1072 q 373 1086 388 1072 q 358 1124 358 1100 z "},"Ë":{"ha":849,"x_min":94,"x_max":842,"o":"m 94 0 l 217 992 l 842 992 l 831 906 l 300 906 l 256 543 l 731 543 l 719 454 l 244 454 l 200 89 l 750 89 l 739 0 l 94 0 m 629 1124 q 649 1168 629 1150 q 693 1186 669 1186 q 727 1172 713 1186 q 742 1135 742 1157 q 722 1090 742 1107 q 679 1072 701 1072 q 644 1086 658 1072 q 629 1124 629 1100 m 381 1124 q 401 1168 381 1150 q 444 1186 421 1186 q 478 1172 464 1186 q 493 1135 493 1157 q 473 1090 493 1107 q 431 1072 453 1072 q 395 1086 410 1072 q 381 1124 381 1100 z "},"Ï":{"ha":379,"x_min":94,"x_max":464,"o":"m 217 992 l 313 992 l 190 0 l 94 0 l 217 992 m 351 1124 q 372 1168 351 1150 q 415 1186 392 1186 q 449 1172 435 1186 q 464 1135 464 1157 q 444 1090 464 1107 q 401 1072 424 1072 q 366 1086 381 1072 q 351 1124 351 1100 m 103 1124 q 123 1168 103 1150 q 167 1186 143 1186 q 201 1172 186 1186 q 215 1135 215 1157 q 195 1090 215 1107 q 153 1072 175 1072 q 117 1086 132 1072 q 103 1124 103 1100 z "},"Ö":{"ha":1147,"x_min":68,"x_max":1097,"o":"m 81 494 q 144 691 93 599 q 273 853 196 783 q 447 963 350 922 q 649 1003 544 1003 q 828 967 746 1003 q 969 868 910 931 q 1063 722 1029 806 q 1097 544 1097 639 q 1050 330 1097 431 q 923 153 1003 229 q 740 33 843 78 q 524 -11 636 -11 q 332 28 419 -11 q 184 137 244 68 q 96 298 124 206 q 81 494 68 390 m 175 494 q 187 333 164 408 q 259 201 210 257 q 379 112 308 144 q 535 79 450 79 q 711 115 626 79 q 860 214 796 151 q 964 360 925 276 q 1003 536 1003 443 q 975 683 1003 614 q 899 802 947 751 q 783 882 850 853 q 638 911 717 911 q 473 878 551 911 q 331 789 394 846 q 226 656 268 732 q 175 494 185 581 m 729 1124 q 749 1168 729 1150 q 793 1186 769 1186 q 827 1172 813 1186 q 842 1135 842 1157 q 822 1090 842 1107 q 779 1072 801 1072 q 744 1086 758 1072 q 729 1124 729 1100 m 481 1124 q 501 1168 481 1150 q 544 1186 521 1186 q 578 1172 564 1186 q 593 1135 593 1157 q 573 1090 593 1107 q 531 1072 553 1072 q 495 1086 510 1072 q 481 1124 481 1100 z "},"Ü":{"ha":964,"x_min":114,"x_max":910,"o":"m 433 -11 q 297 13 358 -11 q 193 82 235 38 q 133 191 151 126 q 124 338 114 256 l 204 992 l 299 992 l 219 342 q 226 233 213 282 q 269 151 239 185 q 344 98 299 117 q 444 79 389 79 q 549 98 499 79 q 638 151 599 117 q 703 233 676 185 q 736 342 729 282 l 815 992 l 910 992 l 829 338 q 784 191 819 256 q 695 82 749 126 q 574 13 642 38 q 433 -11 507 -11 m 657 1124 q 676 1168 657 1150 q 719 1186 696 1186 q 753 1172 739 1186 q 768 1135 768 1157 q 749 1090 768 1107 q 706 1072 729 1072 q 672 1086 686 1072 q 657 1124 657 1100 m 408 1124 q 428 1168 408 1150 q 471 1186 447 1186 q 505 1172 490 1186 q 519 1135 519 1157 q 500 1090 519 1107 q 457 1072 481 1072 q 423 1086 438 1072 q 408 1124 408 1100 z "},"À":{"ha":896,"x_min":-28,"x_max":829,"o":"m 829 0 q 790 133 814 50 q 738 314 765 215 q 678 519 710 413 q 619 724 647 625 q 567 904 592 822 q 528 1038 543 986 q 456 904 500 986 q 359 724 411 822 q 250 519 307 625 q 141 314 193 413 q 44 133 89 215 q -28 0 0 50 l 67 0 q 151 157 101 64 q 253 354 200 250 l 633 354 q 688 157 661 250 q 733 0 714 64 l 829 0 m 483 794 q 492 813 486 800 q 503 838 499 826 q 508 813 506 826 q 511 794 510 800 q 557 635 531 729 q 613 436 583 540 l 296 436 q 398 635 349 540 q 483 794 447 729 m 471 1242 q 522 1148 496 1194 q 574 1056 547 1101 l 513 1056 l 388 1242 l 471 1242 z "},"È":{"ha":849,"x_min":94,"x_max":842,"o":"m 94 0 l 217 992 l 842 992 l 831 906 l 300 906 l 256 543 l 731 543 l 719 454 l 244 454 l 200 89 l 750 89 l 739 0 l 94 0 m 522 1242 q 573 1148 547 1194 q 625 1056 599 1101 l 564 1056 l 439 1242 l 522 1242 z "},"Ì":{"ha":379,"x_min":94,"x_max":324,"o":"m 217 992 l 313 992 l 190 0 l 94 0 l 217 992 m 221 1242 q 272 1148 246 1194 q 324 1056 297 1101 l 263 1056 l 138 1242 l 221 1242 z "},"Ò":{"ha":1149,"x_min":78,"x_max":1099,"o":"m 78 443 q 125 658 78 556 q 251 836 172 760 q 434 958 331 913 q 650 1003 538 1003 q 829 967 747 1003 q 971 868 911 931 q 1065 722 1031 806 q 1099 544 1099 639 q 1051 330 1099 431 q 924 153 1004 229 q 741 33 844 78 q 525 -11 638 -11 q 346 24 428 -11 q 204 121 264 60 q 111 265 144 182 q 78 443 78 349 m 172 453 q 199 307 172 375 q 275 188 226 239 q 390 108 324 138 q 536 79 457 79 q 713 115 628 79 q 862 214 797 151 q 965 360 926 276 q 1004 536 1004 443 q 976 683 1004 614 q 900 802 949 751 q 785 882 851 853 q 639 911 718 911 q 463 874 547 911 q 313 775 378 838 q 210 629 249 713 q 172 453 172 546 m 613 1242 q 663 1148 638 1194 q 715 1056 689 1101 l 654 1056 l 529 1242 l 613 1242 z "},"Ù":{"ha":964,"x_min":114,"x_max":910,"o":"m 433 -11 q 297 13 358 -11 q 193 82 235 38 q 133 191 151 126 q 124 338 114 256 l 204 992 l 299 992 l 219 342 q 226 233 213 282 q 269 151 239 185 q 344 98 299 117 q 444 79 389 79 q 549 98 499 79 q 638 151 599 117 q 703 233 676 185 q 736 342 729 282 l 815 992 l 910 992 l 829 338 q 784 191 819 256 q 695 82 749 126 q 574 13 642 38 q 433 -11 507 -11 m 526 1242 q 578 1148 553 1194 q 631 1056 603 1101 l 569 1056 l 443 1242 l 526 1242 z "},"Ý":{"ha":882,"x_min":99,"x_max":932,"o":"m 485 346 l 442 0 l 346 0 l 389 346 q 351 427 374 376 q 300 540 328 478 q 243 669 272 601 q 186 798 214 736 q 135 910 158 860 q 99 992 113 961 l 206 992 q 253 886 225 950 q 314 751 282 822 q 378 606 346 679 q 436 471 410 532 l 447 429 l 469 471 q 560 606 511 532 q 658 751 610 679 q 750 886 707 822 q 824 992 793 950 l 932 992 l 485 346 m 483 1056 l 632 1242 l 714 1242 q 629 1148 672 1194 q 543 1056 586 1101 l 483 1056 z "},"¡":{"ha":347,"x_min":50,"x_max":269,"o":"m 150 524 l 232 524 l 132 -294 l 50 -294 l 150 524 m 218 738 q 254 721 239 738 q 267 681 269 704 q 244 639 264 654 q 204 624 225 624 q 167 639 182 624 q 156 681 153 654 q 177 721 158 704 q 218 738 196 738 z "},"Ø":{"ha":1149,"x_min":78,"x_max":1099,"o":"m 78 443 q 125 658 78 556 q 251 836 172 760 q 434 958 331 913 q 650 1003 538 1003 q 803 977 733 1003 q 932 907 874 951 q 985 960 960 935 q 1029 1007 1010 986 l 1069 965 l 976 868 q 1067 722 1035 807 q 1099 544 1099 638 q 1051 330 1099 431 q 924 153 1004 229 q 741 33 844 78 q 525 -11 638 -11 q 360 17 436 -11 q 225 96 285 46 l 121 -12 l 81 29 l 185 138 q 106 276 133 196 q 78 443 78 356 m 294 167 q 403 102 342 125 q 536 79 464 79 q 713 115 628 79 q 862 214 797 151 q 965 360 926 276 q 1004 536 1004 443 q 978 680 1004 611 q 907 797 953 749 l 294 167 m 172 451 q 194 319 172 382 q 253 208 215 256 l 864 836 q 762 892 818 872 q 639 911 706 911 q 463 874 547 911 q 313 775 378 838 q 210 628 249 713 q 172 451 172 544 z "},"¿":{"ha":663,"x_min":17,"x_max":557,"o":"m 490 -47 l 557 -72 q 517 -142 542 -106 q 455 -208 492 -178 q 370 -257 418 -237 q 260 -276 322 -276 q 162 -257 207 -276 q 85 -204 117 -237 q 35 -126 53 -171 q 17 -31 17 -82 q 62 120 17 57 q 186 236 107 183 q 235 267 211 253 q 281 299 260 281 q 316 343 301 317 q 336 410 331 369 l 350 519 l 432 519 l 415 383 q 392 311 410 339 q 347 263 374 283 q 286 222 319 242 q 217 176 253 203 q 128 83 156 133 q 100 -25 100 33 q 147 -149 100 -100 q 269 -197 193 -197 q 404 -158 350 -197 q 490 -47 458 -118 m 418 736 q 452 722 438 736 q 467 685 467 708 q 447 640 467 658 q 404 622 426 622 q 370 637 385 622 q 356 674 356 651 q 376 719 356 701 q 418 736 397 736 z "},"Ã":{"ha":896,"x_min":-28,"x_max":829,"o":"m 829 0 q 790 133 814 50 q 738 314 765 215 q 678 519 710 413 q 619 724 647 625 q 567 904 592 822 q 528 1038 543 986 q 456 904 500 986 q 359 724 411 822 q 250 519 307 625 q 141 314 193 413 q 44 133 89 215 q -28 0 0 50 l 67 0 q 151 157 101 64 q 253 354 200 250 l 633 354 q 688 157 661 250 q 733 0 714 64 l 829 0 m 483 794 q 492 813 486 800 q 503 838 499 826 q 508 813 506 826 q 511 794 510 800 q 557 635 531 729 q 613 436 583 540 l 296 436 q 398 635 349 540 q 483 794 447 729 m 524 1101 q 490 1133 504 1125 q 456 1140 475 1140 q 431 1138 444 1140 q 405 1127 418 1135 q 381 1106 392 1119 q 365 1071 371 1092 l 319 1074 q 338 1122 324 1101 q 372 1158 353 1143 q 413 1179 392 1172 q 456 1186 435 1186 q 511 1174 488 1186 q 554 1138 535 1161 q 588 1106 574 1114 q 622 1099 603 1099 q 646 1101 632 1099 q 673 1112 660 1104 q 697 1133 686 1119 q 713 1168 707 1147 l 758 1165 q 740 1117 754 1138 q 706 1081 725 1096 q 665 1060 686 1067 q 622 1053 643 1053 q 567 1066 590 1053 q 524 1101 543 1079 z "},"Õ":{"ha":1149,"x_min":78,"x_max":1099,"o":"m 78 443 q 125 658 78 556 q 251 836 172 760 q 434 958 331 913 q 650 1003 538 1003 q 829 967 747 1003 q 971 868 911 931 q 1065 722 1031 806 q 1099 544 1099 639 q 1051 330 1099 431 q 924 153 1004 229 q 741 33 844 78 q 525 -11 638 -11 q 346 24 428 -11 q 204 121 264 60 q 111 265 144 182 q 78 443 78 349 m 172 453 q 199 307 172 375 q 275 188 226 239 q 390 108 324 138 q 536 79 457 79 q 713 115 628 79 q 862 214 797 151 q 965 360 926 276 q 1004 536 1004 443 q 976 683 1004 614 q 900 802 949 751 q 785 882 851 853 q 639 911 718 911 q 463 874 547 911 q 313 775 378 838 q 210 629 249 713 q 172 453 172 546 m 646 1144 q 612 1176 626 1168 q 578 1183 597 1183 q 553 1181 567 1183 q 527 1170 540 1178 q 503 1149 514 1163 q 486 1114 492 1135 l 442 1117 q 460 1165 446 1144 q 494 1201 475 1186 q 535 1222 514 1215 q 578 1229 557 1229 q 633 1217 610 1229 q 675 1181 656 1204 q 710 1149 694 1157 q 744 1142 725 1142 q 768 1144 754 1142 q 795 1155 782 1147 q 819 1176 808 1163 q 835 1211 829 1190 l 881 1208 q 861 1160 875 1181 q 828 1124 847 1139 q 787 1103 808 1110 q 744 1096 765 1096 q 689 1109 713 1096 q 646 1144 665 1122 z "},"â":{"ha":732,"x_min":38,"x_max":660,"o":"m 38 246 q 65 370 38 311 q 138 473 92 429 q 242 542 183 517 q 365 568 301 568 q 442 557 407 568 q 503 527 476 546 q 546 485 529 508 q 569 440 563 463 l 589 556 l 660 556 l 592 0 l 515 0 l 522 57 q 526 86 525 72 q 531 113 528 100 q 496 67 518 89 q 443 28 474 46 q 375 -1 413 10 q 294 -11 338 -11 q 189 9 236 -11 q 108 64 142 29 q 56 146 75 99 q 38 246 38 193 m 114 257 q 128 181 114 215 q 167 119 142 146 q 228 78 193 93 q 307 64 264 64 q 401 83 357 64 q 479 133 446 101 q 532 209 513 165 q 551 301 551 253 q 538 377 551 342 q 499 438 524 413 q 438 478 474 464 q 360 493 403 493 q 265 475 310 493 q 188 425 221 457 q 134 350 154 393 q 114 257 114 307 m 438 922 q 505 796 471 860 q 574 669 539 732 l 513 669 q 492 706 504 686 q 469 746 481 725 q 445 787 457 767 q 425 822 433 807 q 396 787 413 807 q 361 746 379 767 q 326 706 343 725 q 297 669 310 686 l 238 669 l 438 922 z "},"ê":{"ha":631,"x_min":38,"x_max":600,"o":"m 514 67 q 413 10 469 31 q 297 -11 356 -11 q 193 9 240 -11 q 111 65 146 29 q 57 147 76 100 q 38 249 38 194 q 65 372 38 314 q 138 474 92 431 q 242 544 183 518 q 365 569 301 569 q 518 515 457 569 q 600 372 579 460 q 491 331 551 354 q 367 284 431 308 q 240 235 303 260 q 124 190 178 211 q 190 99 142 133 q 304 64 238 64 q 390 79 349 64 q 464 121 432 94 l 514 67 m 507 392 q 449 466 489 439 q 357 493 410 493 q 265 474 308 493 q 188 423 221 456 q 135 349 154 390 q 115 261 115 307 l 115 242 q 212 279 161 260 q 314 319 263 299 q 415 358 365 339 q 507 392 465 376 m 392 924 q 459 797 425 861 q 528 671 493 733 l 467 671 q 447 707 458 688 q 423 747 435 726 q 399 788 411 768 q 379 824 388 808 q 350 788 367 808 q 315 747 333 768 q 281 707 297 726 q 251 671 264 688 l 192 671 l 392 924 z "},"î":{"ha":263,"x_min":0,"x_max":336,"o":"m 122 0 l 46 0 l 114 556 l 190 556 l 122 0 m 199 924 q 267 797 233 861 q 336 671 300 733 l 275 671 q 255 707 267 688 q 231 747 243 726 q 208 788 219 768 q 188 824 196 808 q 158 788 175 808 q 124 747 142 768 q 89 707 106 726 q 60 671 72 688 l 0 671 l 199 924 z "},"ô":{"ha":689,"x_min":38,"x_max":625,"o":"m 38 247 q 65 372 38 314 q 137 474 92 431 q 242 544 182 518 q 368 569 301 569 q 472 549 425 569 q 553 494 519 529 q 606 410 588 458 q 625 308 625 363 q 599 185 625 243 q 527 83 572 126 q 422 14 482 39 q 296 -11 363 -11 q 193 8 240 -11 q 111 62 146 28 q 57 143 76 96 q 38 247 38 190 m 114 256 q 128 180 114 215 q 168 119 143 144 q 228 78 193 93 q 304 64 263 64 q 397 83 353 64 q 474 133 440 101 q 527 208 507 165 q 547 300 547 251 q 533 376 547 340 q 493 437 518 411 q 433 478 468 463 q 357 493 399 493 q 265 474 308 493 q 188 423 221 456 q 134 347 154 390 q 114 256 114 304 m 411 924 q 478 797 444 861 q 547 671 513 733 l 486 671 q 466 707 478 688 q 442 747 454 726 q 419 788 431 768 q 399 824 407 808 q 369 788 386 808 q 335 747 353 768 q 300 707 317 726 q 271 671 283 688 l 211 671 l 411 924 z "},"û":{"ha":665,"x_min":117,"x_max":658,"o":"m 589 -7 l 525 -7 l 536 143 q 433 31 499 74 q 283 -12 368 -12 q 159 33 201 -12 q 124 154 117 79 l 172 556 l 249 556 l 203 181 q 226 100 200 133 q 314 64 253 67 q 397 78 357 64 q 467 119 436 93 q 519 181 499 144 q 546 260 540 217 l 582 556 l 658 556 l 589 -7 m 486 924 q 553 797 519 861 q 622 671 588 733 l 561 671 q 541 707 553 688 q 517 747 529 726 q 494 788 506 768 q 474 824 482 808 q 444 788 461 808 q 410 747 428 768 q 375 707 392 726 q 346 671 358 688 l 286 671 l 486 924 z "},"ã":{"ha":732,"x_min":38,"x_max":660,"o":"m 38 246 q 65 370 38 311 q 138 473 92 429 q 242 542 183 517 q 365 568 301 568 q 442 557 407 568 q 503 527 476 546 q 546 485 529 508 q 569 440 563 463 l 589 556 l 660 556 l 592 0 l 515 0 l 522 57 q 526 86 525 72 q 531 113 528 100 q 496 67 518 89 q 443 28 474 46 q 375 -1 413 10 q 294 -11 338 -11 q 189 9 236 -11 q 108 64 142 29 q 56 146 75 99 q 38 246 38 193 m 114 257 q 128 181 114 215 q 167 119 142 146 q 228 78 193 93 q 307 64 264 64 q 401 83 357 64 q 479 133 446 101 q 532 209 513 165 q 551 301 551 253 q 538 377 551 342 q 499 438 524 413 q 438 478 474 464 q 360 493 403 493 q 265 475 310 493 q 188 425 221 457 q 134 350 154 393 q 114 257 114 307 m 399 682 q 365 713 379 706 q 331 721 350 721 q 306 718 319 721 q 280 708 293 715 q 256 686 267 700 q 240 651 246 672 l 194 654 q 213 703 199 682 q 247 738 228 724 q 288 760 267 753 q 331 767 310 767 q 385 754 363 767 q 428 718 408 742 q 463 687 447 694 q 497 679 478 679 q 521 682 507 679 q 548 692 535 685 q 572 714 561 700 q 588 749 582 728 l 633 746 q 614 697 628 718 q 581 662 600 676 q 540 640 561 647 q 497 633 518 633 q 442 647 465 633 q 399 682 418 660 z "},"`":{"ha":281,"x_min":53,"x_max":240,"o":"m 136 857 q 187 763 161 810 q 240 671 213 717 l 179 671 l 53 857 l 136 857 z "},"^":{"ha":533,"x_min":135,"x_max":471,"o":"m 333 924 q 401 797 368 861 q 471 671 435 733 l 410 671 q 390 707 401 688 q 366 747 378 726 q 342 788 354 768 q 322 824 331 808 q 293 788 310 808 q 258 747 276 768 q 224 707 240 726 q 194 671 207 688 l 135 671 l 333 924 z "},"õ":{"ha":689,"x_min":38,"x_max":625,"o":"m 38 247 q 65 372 38 314 q 137 474 92 431 q 242 544 182 518 q 368 569 301 569 q 472 549 425 569 q 553 494 519 529 q 606 410 588 458 q 625 308 625 363 q 599 185 625 243 q 527 83 572 126 q 422 14 482 39 q 296 -11 363 -11 q 193 8 240 -11 q 111 62 146 28 q 57 143 76 96 q 38 247 38 190 m 114 256 q 128 180 114 215 q 168 119 143 144 q 228 78 193 93 q 304 64 263 64 q 397 83 353 64 q 474 133 440 101 q 527 208 507 165 q 547 300 547 251 q 533 376 547 340 q 493 437 518 411 q 433 478 468 463 q 357 493 399 493 q 265 474 308 493 q 188 423 221 456 q 134 347 154 390 q 114 256 114 304 m 376 682 q 342 713 357 706 q 308 721 328 721 q 284 718 297 721 q 258 708 271 715 q 234 686 244 700 q 218 651 224 672 l 172 654 q 191 703 176 682 q 225 738 206 724 q 266 760 244 753 q 308 767 288 767 q 363 754 340 767 q 406 718 386 742 q 440 687 425 694 q 475 679 456 679 q 499 682 485 679 q 526 692 513 685 q 549 714 539 700 q 565 749 560 728 l 611 746 q 592 697 606 718 q 558 662 578 676 q 517 640 539 647 q 475 633 496 633 q 419 647 443 633 q 376 682 396 660 z "},"'":{"ha":281,"x_min":132,"x_max":260,"o":"m 132 661 l 175 1008 l 260 1008 l 211 661 l 132 661 z "},"_":{"ha":739,"x_min":44,"x_max":614,"o":"m 604 0 l 44 0 l 54 79 l 614 79 l 604 0 z "},"[":{"ha":425,"x_min":57,"x_max":465,"o":"m 57 -208 l 211 1044 l 465 1044 l 456 965 l 283 965 l 149 -129 l 321 -129 l 311 -208 l 57 -208 z "},"]":{"ha":425,"x_min":-32,"x_max":376,"o":"m 376 1044 l 222 -208 l -32 -208 l -22 -129 l 150 -129 l 285 965 l 113 965 l 122 1044 l 376 1044 z "},"°":{"ha":407,"x_min":121,"x_max":381,"o":"m 243 708 q 302 733 276 708 q 328 792 328 757 q 309 839 328 819 q 261 858 290 858 q 202 834 228 858 q 176 775 176 810 q 195 728 176 747 q 243 708 214 708 m 121 769 q 133 825 121 799 q 165 870 144 851 q 212 900 185 889 q 268 911 239 911 q 349 878 317 911 q 381 797 381 846 q 369 742 381 768 q 337 697 357 715 q 291 667 317 678 q 236 656 265 656 q 153 688 185 656 q 121 769 121 721 z "},"ç":{"ha":572,"x_min":38,"x_max":546,"o":"m 449 110 l 489 53 q 399 6 447 22 q 299 -11 350 -11 q 301 -42 296 -31 q 313 -60 306 -53 q 328 -74 319 -68 q 346 -85 338 -79 q 380 -128 369 -104 q 390 -178 390 -153 q 379 -240 390 -211 q 347 -290 368 -269 q 298 -324 326 -311 q 235 -336 269 -336 q 158 -312 192 -336 q 114 -240 125 -289 q 139 -228 126 -233 q 165 -217 151 -222 q 188 -258 169 -242 q 238 -274 207 -274 q 303 -246 278 -274 q 329 -178 329 -218 q 315 -133 329 -149 q 283 -104 300 -118 q 253 -74 265 -90 q 244 -28 240 -58 l 247 -7 q 163 24 201 1 q 96 81 124 47 q 53 158 68 115 q 38 249 38 200 q 65 372 38 314 q 138 474 92 431 q 243 543 183 518 q 368 568 303 568 q 466 551 421 568 q 546 504 511 535 q 518 476 532 489 q 490 447 504 463 q 360 493 438 493 q 265 474 310 493 q 186 424 219 456 q 133 349 153 392 q 114 256 114 306 q 128 180 114 215 q 167 119 142 144 q 228 78 193 93 q 307 64 264 64 q 383 76 347 64 q 449 110 418 88 z "},"Ç":{"ha":893,"x_min":78,"x_max":910,"o":"m 819 67 q 702 15 774 39 q 539 -11 631 -8 q 540 -42 536 -31 q 552 -60 544 -53 q 569 -74 560 -68 q 586 -85 578 -79 q 620 -128 610 -104 q 631 -178 631 -153 q 619 -240 631 -211 q 588 -290 608 -269 q 538 -324 567 -311 q 475 -336 510 -336 q 399 -312 432 -336 q 354 -240 365 -289 q 406 -217 378 -228 q 428 -258 410 -242 q 478 -274 447 -274 q 544 -246 518 -274 q 569 -178 569 -218 q 554 -133 569 -149 q 522 -104 539 -118 q 492 -74 504 -90 q 483 -28 479 -58 l 486 -10 q 313 33 389 -4 q 184 131 236 71 q 105 268 132 190 q 78 433 78 346 q 126 658 78 554 q 253 839 174 763 q 438 959 333 915 q 656 1003 543 1003 q 731 998 693 1003 q 803 983 769 993 q 864 961 836 974 q 910 933 892 949 q 897 915 901 922 q 887 901 892 908 q 875 883 882 893 q 858 858 868 874 q 760 900 818 886 q 649 914 703 914 q 468 876 554 914 q 317 776 382 839 q 213 629 251 713 q 175 454 175 546 q 200 314 175 381 q 272 197 225 247 q 385 116 318 146 q 536 86 453 86 q 615 92 576 86 q 686 109 653 99 q 745 131 719 119 q 786 153 771 142 l 819 67 z "},"–":{"ha":604,"x_min":74,"x_max":504,"o":"m 74 240 l 83 319 l 504 319 l 494 240 l 74 240 z "},"—":{"ha":886,"x_min":74,"x_max":786,"o":"m 74 240 l 83 319 l 786 319 l 776 240 l 74 240 z "},"¸":{"ha":633,"x_min":129,"x_max":406,"o":"m 263 0 l 315 0 l 314 -10 q 315 -41 311 -29 q 328 -60 319 -53 q 345 -74 336 -68 q 363 -85 354 -79 q 396 -128 386 -104 q 406 -178 406 -153 q 394 -240 406 -211 q 363 -290 383 -269 q 315 -324 343 -311 q 251 -336 286 -336 q 174 -312 208 -336 q 129 -240 140 -289 q 154 -228 142 -233 q 181 -217 167 -222 q 203 -258 185 -242 q 253 -274 222 -274 q 319 -246 293 -274 q 344 -178 344 -218 q 330 -133 344 -149 q 299 -103 315 -117 q 269 -76 282 -90 q 258 -39 256 -62 l 263 0 z "},"´":{"ha":356,"x_min":222,"x_max":453,"o":"m 222 671 l 371 857 l 453 857 q 368 763 411 810 q 282 671 325 717 l 222 671 z "},"¨":{"ha":518,"x_min":174,"x_max":535,"o":"m 422 713 q 442 757 422 739 q 486 775 463 775 q 520 760 506 775 q 535 724 535 746 q 514 678 535 696 q 471 661 493 661 q 437 675 451 661 q 422 713 422 689 m 174 713 q 194 757 174 739 q 238 775 214 775 q 272 760 257 775 q 286 724 286 746 q 265 678 286 696 q 222 661 244 661 q 188 675 203 661 q 174 713 174 689 z "},"Ð":{"ha":1001,"x_min":71,"x_max":947,"o":"m 79 525 l 169 525 l 226 992 l 457 992 q 685 952 592 992 q 838 849 779 913 q 922 706 896 786 q 947 544 947 625 q 900 320 947 421 q 774 149 853 219 q 594 39 696 78 q 383 0 493 0 l 104 0 l 161 458 l 71 458 l 79 525 m 385 90 q 564 122 479 90 q 713 211 649 153 q 815 353 778 269 q 853 540 853 436 q 827 683 853 617 q 753 797 801 749 q 634 873 704 846 q 475 900 564 900 l 311 900 l 265 525 l 485 525 l 476 458 l 257 458 l 211 90 l 385 90 z "},"þ":{"ha":732,"x_min":13,"x_max":668,"o":"m 668 313 q 642 185 668 244 q 572 83 617 126 q 469 14 528 39 q 342 -11 410 -11 q 208 25 264 -11 q 135 114 153 61 q 132 87 132 100 q 129 58 132 74 l 89 -267 l 13 -267 l 176 1064 l 253 1064 l 175 439 q 271 529 207 490 q 415 568 335 568 q 519 549 472 568 q 599 497 565 531 q 650 417 632 464 q 668 313 668 369 m 585 303 q 535 439 585 385 q 399 493 485 493 q 304 475 349 493 q 226 425 260 457 q 174 350 193 393 q 154 257 154 307 q 168 181 154 215 q 208 119 182 146 q 269 78 233 93 q 346 64 304 64 q 440 83 396 64 q 516 134 483 101 q 567 210 549 167 q 585 303 585 253 z "},"ð":{"ha":693,"x_min":38,"x_max":629,"o":"m 38 247 q 65 372 38 314 q 137 474 92 431 q 242 544 182 518 q 368 569 301 569 q 454 556 414 569 q 526 518 494 542 q 478 675 513 589 q 379 853 443 761 l 275 754 l 236 794 q 292 849 264 822 q 349 901 321 875 q 290 971 321 938 q 226 1033 260 1004 l 276 1076 q 339 1017 308 1049 q 399 950 369 986 q 449 997 424 974 q 497 1046 474 1021 l 536 1007 l 431 904 q 508 776 472 846 q 572 632 544 706 q 614 483 599 558 q 629 338 629 408 q 628 302 629 315 q 625 281 626 289 q 622 270 624 274 q 621 265 621 267 q 582 157 611 207 q 509 69 553 107 q 410 10 465 32 q 296 -11 356 -11 q 193 8 240 -11 q 111 62 146 28 q 57 143 76 96 q 38 247 38 190 m 114 256 q 128 180 114 215 q 168 119 143 144 q 228 78 193 93 q 304 64 263 64 q 397 83 353 64 q 474 133 440 101 q 527 208 507 165 q 547 300 547 251 q 533 376 547 340 q 493 437 518 411 q 433 478 468 463 q 357 493 399 493 q 265 474 308 493 q 188 423 221 456 q 134 347 154 390 q 114 256 114 304 z "},"Þ":{"ha":750,"x_min":94,"x_max":722,"o":"m 94 0 l 215 981 l 310 981 l 286 788 l 432 788 q 542 772 489 788 q 635 725 594 757 q 699 645 675 693 q 722 532 722 597 q 701 410 722 471 q 637 302 681 350 q 525 224 593 254 q 361 193 457 193 l 213 193 l 189 0 l 94 0 m 224 283 l 371 283 q 494 308 444 283 q 572 369 543 333 q 614 446 601 406 q 626 517 626 486 q 614 584 626 551 q 576 642 601 617 q 513 683 551 668 q 424 699 475 699 l 275 699 l 224 283 z "},"Â":{"ha":896,"x_min":-28,"x_max":829,"o":"m 829 0 q 790 133 814 50 q 738 314 765 215 q 678 519 710 413 q 619 724 647 625 q 567 904 592 822 q 528 1038 543 986 q 456 904 500 986 q 359 724 411 822 q 250 519 307 625 q 141 314 193 413 q 44 133 89 215 q -28 0 0 50 l 67 0 q 151 157 101 64 q 253 354 200 250 l 633 354 q 688 157 661 250 q 733 0 714 64 l 829 0 m 483 794 q 492 813 486 800 q 503 838 499 826 q 508 813 506 826 q 511 794 510 800 q 557 635 531 729 q 613 436 583 540 l 296 436 q 398 635 349 540 q 483 794 447 729 m 597 1308 q 665 1182 631 1246 q 733 1056 699 1118 l 672 1056 q 652 1092 664 1072 q 628 1132 640 1111 q 605 1173 617 1153 q 585 1208 593 1193 q 556 1173 572 1193 q 521 1132 539 1153 q 486 1092 503 1111 q 457 1056 469 1072 l 397 1056 l 597 1308 z "},"Ê":{"ha":849,"x_min":94,"x_max":842,"o":"m 94 0 l 217 992 l 842 992 l 831 906 l 300 906 l 256 543 l 731 543 l 719 454 l 244 454 l 200 89 l 750 89 l 739 0 l 94 0 m 579 1308 q 647 1182 613 1246 q 715 1056 681 1118 l 654 1056 q 634 1092 646 1072 q 610 1132 622 1111 q 587 1173 599 1153 q 567 1208 575 1193 q 538 1173 554 1193 q 503 1132 521 1153 q 468 1092 485 1111 q 439 1056 451 1072 l 379 1056 l 579 1308 z "},"Î":{"ha":379,"x_min":94,"x_max":442,"o":"m 217 992 l 313 992 l 190 0 l 94 0 l 217 992 m 306 1308 q 373 1182 339 1246 q 442 1056 407 1118 l 381 1056 q 360 1092 372 1072 q 337 1132 349 1111 q 313 1173 325 1153 q 293 1208 301 1193 q 264 1173 281 1193 q 229 1132 247 1153 q 194 1092 211 1111 q 165 1056 178 1072 l 106 1056 l 306 1308 z "},"Ô":{"ha":1149,"x_min":78,"x_max":1099,"o":"m 78 443 q 125 658 78 556 q 251 836 172 760 q 434 958 331 913 q 650 1003 538 1003 q 829 967 747 1003 q 971 868 911 931 q 1065 722 1031 806 q 1099 544 1099 639 q 1051 330 1099 431 q 924 153 1004 229 q 741 33 844 78 q 525 -11 638 -11 q 346 24 428 -11 q 204 121 264 60 q 111 265 144 182 q 78 443 78 349 m 172 453 q 199 307 172 375 q 275 188 226 239 q 390 108 324 138 q 536 79 457 79 q 713 115 628 79 q 862 214 797 151 q 965 360 926 276 q 1004 536 1004 443 q 976 683 1004 614 q 900 802 949 751 q 785 882 851 853 q 639 911 718 911 q 463 874 547 911 q 313 775 378 838 q 210 629 249 713 q 172 453 172 546 m 685 1308 q 752 1182 718 1246 q 821 1056 786 1118 l 760 1056 q 740 1092 751 1072 q 716 1132 728 1111 q 692 1173 704 1153 q 672 1208 681 1193 q 643 1173 660 1193 q 608 1132 626 1153 q 574 1092 590 1111 q 544 1056 557 1072 l 485 1056 l 685 1308 z "},"Û":{"ha":964,"x_min":114,"x_max":910,"o":"m 433 -11 q 297 13 358 -11 q 193 82 235 38 q 133 191 151 126 q 124 338 114 256 l 204 992 l 299 992 l 219 342 q 226 233 213 282 q 269 151 239 185 q 344 98 299 117 q 444 79 389 79 q 549 98 499 79 q 638 151 599 117 q 703 233 676 185 q 736 342 729 282 l 815 992 l 910 992 l 829 338 q 784 191 819 256 q 695 82 749 126 q 574 13 642 38 q 433 -11 507 -11 m 608 1326 q 676 1200 642 1264 q 744 1074 710 1136 l 683 1074 q 663 1110 675 1090 q 640 1150 651 1129 q 616 1191 628 1171 q 596 1226 604 1211 q 567 1191 583 1211 q 532 1150 550 1171 q 497 1110 514 1129 q 468 1074 481 1090 l 408 1074 l 608 1326 z "},"±":{"ha":724,"x_min":83,"x_max":642,"o":"m 313 296 l 339 508 l 128 508 l 138 588 l 349 588 l 375 799 l 457 799 l 431 588 l 642 588 l 632 508 l 421 508 l 394 296 l 313 296 m 588 147 l 83 147 l 93 226 l 597 226 l 588 147 z "},"$":{"ha":768,"x_min":15,"x_max":733,"o":"m 733 940 l 689 864 q 586 897 643 883 q 475 911 529 910 l 435 574 q 527 535 481 556 q 611 483 574 514 q 672 410 649 453 q 696 306 696 367 q 672 184 696 239 q 603 89 647 129 q 498 24 560 49 q 363 -8 436 -1 l 353 -94 l 294 -94 l 304 -11 q 199 0 246 -11 q 117 26 153 11 q 55 56 81 40 q 15 81 29 71 l 68 164 q 180 108 113 132 q 315 82 247 83 l 367 503 q 283 538 324 519 q 212 582 243 557 q 161 640 181 607 q 142 721 142 674 q 162 816 142 769 q 219 899 182 863 q 310 962 257 936 q 428 994 363 988 l 439 1083 l 497 1083 l 486 997 q 563 990 524 996 q 635 974 601 983 q 694 956 668 965 q 733 940 719 947 m 601 294 q 587 360 601 332 q 548 410 572 389 q 491 449 524 432 q 422 481 458 465 l 374 86 q 453 107 413 92 q 526 147 493 122 q 581 209 560 172 q 601 294 601 246 m 239 739 q 279 652 239 685 q 379 596 319 619 l 417 906 q 286 844 333 892 q 239 739 239 797 z "},"¢":{"ha":593,"x_min":39,"x_max":547,"o":"m 450 110 l 490 53 q 403 7 450 24 q 306 -11 356 -10 l 296 -94 l 238 -94 l 247 -7 q 163 24 201 1 q 97 81 125 47 q 54 158 69 115 q 39 249 39 200 q 61 360 39 307 q 122 456 83 414 q 210 526 160 497 q 318 564 261 554 l 328 646 l 386 646 l 376 568 q 471 550 428 567 q 547 504 514 533 q 519 476 533 489 q 492 447 506 463 q 368 493 442 490 l 315 64 q 387 77 353 65 q 450 110 421 89 m 115 256 q 153 135 115 186 q 257 69 192 85 l 308 488 q 232 456 267 478 q 171 405 197 435 q 130 337 144 375 q 115 256 115 299 z "},"•":{"ha":521,"x_min":115,"x_max":411,"o":"m 115 404 q 129 467 115 438 q 166 519 143 497 q 219 555 189 542 q 281 568 249 568 q 375 529 339 568 q 411 435 411 490 q 397 372 411 401 q 360 322 383 343 q 308 288 338 300 q 244 275 278 275 q 151 313 188 275 q 115 404 115 350 z "},"“":{"ha":397,"x_min":133,"x_max":379,"o":"m 235 826 l 190 796 q 144 885 154 833 q 153 996 133 938 l 207 986 q 200 896 192 938 q 235 826 208 854 m 379 826 q 336 796 360 811 q 290 885 300 833 q 299 996 279 938 l 353 986 q 345 896 338 938 q 379 826 353 854 z "},"”":{"ha":400,"x_min":125,"x_max":399,"o":"m 306 796 l 271 826 q 321 896 303 854 q 336 986 339 938 l 394 996 q 375 885 399 938 q 306 796 351 833 m 161 796 l 125 826 q 176 896 158 854 q 192 986 194 938 l 249 996 q 229 885 253 938 q 161 796 206 833 z "},"‘":{"ha":253,"x_min":133,"x_max":235,"o":"m 235 826 l 192 796 q 144 885 156 833 q 153 996 133 938 l 208 986 q 201 896 193 938 q 235 826 208 854 z "},"„":{"ha":415,"x_min":11,"x_max":283,"o":"m 192 -71 l 156 -40 q 207 29 189 -12 q 222 119 225 71 l 279 129 q 260 19 283 71 q 192 -71 236 -33 m 46 -71 q 11 -40 26 -57 q 61 29 43 -12 q 76 119 79 71 l 133 129 q 114 19 138 71 q 46 -71 90 -33 z "},"‚":{"ha":268,"x_min":11,"x_max":138,"o":"m 46 -71 q 11 -40 26 -57 q 61 29 43 -12 q 76 119 79 71 l 133 129 q 114 19 138 71 q 46 -71 90 -33 z "},"›":{"ha":390,"x_min":53,"x_max":322,"o":"m 64 178 q 101 214 81 193 q 144 257 122 235 q 187 299 165 279 q 225 335 208 319 q 197 370 213 350 q 164 412 181 390 q 131 453 147 433 q 103 489 115 474 l 114 582 q 158 531 129 565 q 217 458 186 496 q 278 386 249 421 q 322 335 307 351 l 53 86 l 64 178 z "},"«":{"ha":631,"x_min":57,"x_max":567,"o":"m 506 86 l 296 335 q 353 386 315 351 q 431 458 390 421 q 508 531 471 496 q 567 582 546 565 l 556 490 q 517 455 539 475 q 474 413 496 435 q 432 370 453 390 q 394 335 411 350 q 423 299 407 319 q 456 257 439 279 q 488 214 472 235 q 517 178 504 193 l 506 86 m 265 86 l 57 335 q 114 386 76 351 q 192 458 151 421 q 269 531 232 496 q 326 582 307 565 l 315 489 q 278 453 299 474 q 235 412 257 433 q 192 370 214 390 q 154 335 171 350 q 183 299 167 319 q 215 257 199 279 q 248 214 232 235 q 276 178 264 193 l 265 86 z "},"»":{"ha":631,"x_min":53,"x_max":563,"o":"m 64 178 q 102 214 81 193 q 145 257 124 235 q 188 299 167 279 q 225 335 208 319 q 197 370 213 350 q 164 413 181 390 q 131 455 147 435 q 103 490 115 475 l 114 582 q 159 531 131 565 q 219 458 188 496 q 279 386 250 421 q 324 335 308 351 l 53 86 l 64 178 m 304 178 q 342 214 321 193 q 384 257 363 235 q 427 299 406 279 q 465 335 449 319 q 437 370 453 350 q 404 412 421 390 q 372 453 388 433 q 343 489 356 474 l 354 582 q 398 531 369 565 q 458 458 426 496 q 518 386 489 421 q 563 335 547 351 l 293 86 l 304 178 z "},"¥":{"ha":921,"x_min":115,"x_max":949,"o":"m 501 346 l 483 196 l 667 196 l 660 139 l 476 139 l 458 0 l 363 0 l 381 139 l 197 139 l 204 196 l 388 196 l 406 346 l 396 365 l 225 365 l 232 422 l 369 422 q 304 567 340 485 q 232 731 268 649 q 165 883 196 813 q 115 992 133 954 l 222 992 q 270 886 242 950 q 331 751 299 822 q 394 606 363 679 q 453 471 426 532 l 464 429 l 486 471 q 577 606 528 532 q 675 751 626 679 q 767 886 724 822 q 840 992 810 950 l 949 992 l 554 422 l 694 422 l 688 365 l 515 365 l 501 346 z "},"©":{"ha":897,"x_min":104,"x_max":826,"o":"m 424 192 q 565 219 497 192 q 683 295 632 247 q 763 409 733 343 q 793 551 793 475 q 772 669 793 615 q 712 761 750 722 q 620 822 674 800 q 504 843 567 843 q 365 815 432 843 q 248 739 299 788 q 167 624 197 690 q 138 481 138 557 q 159 365 138 418 q 219 274 181 313 q 309 214 257 236 q 424 192 361 192 m 422 160 q 294 183 353 160 q 194 250 236 207 q 128 351 151 293 q 104 478 104 408 q 137 635 104 563 q 226 761 169 708 q 355 844 282 814 q 510 875 428 875 q 636 851 578 875 q 737 785 694 828 q 803 684 779 743 q 826 556 826 625 q 794 399 826 472 q 706 274 761 326 q 576 190 650 221 q 422 160 503 160 m 579 326 q 524 302 558 314 q 444 290 489 290 q 360 306 397 290 q 297 350 322 322 q 258 414 271 378 q 244 492 244 450 q 266 593 244 546 q 324 675 288 640 q 407 730 360 710 q 507 750 454 750 q 572 741 542 750 q 621 718 603 732 q 611 703 614 708 q 597 685 608 699 q 552 703 578 697 q 503 710 526 710 q 421 693 460 710 q 353 647 382 676 q 306 581 324 618 q 289 501 289 543 q 300 438 289 468 q 332 384 311 407 q 383 348 353 361 q 451 335 414 335 q 519 345 488 335 q 565 365 551 356 l 579 326 z "},"®":{"ha":897,"x_min":104,"x_max":826,"o":"m 422 160 q 294 183 353 160 q 194 250 236 207 q 128 351 151 293 q 104 478 104 408 q 137 635 104 563 q 226 761 169 708 q 355 844 282 814 q 510 875 428 875 q 636 851 578 875 q 737 785 694 828 q 803 684 779 743 q 826 556 826 625 q 794 399 826 472 q 706 274 761 326 q 576 190 650 221 q 422 160 503 160 m 424 192 q 565 219 497 192 q 683 295 632 247 q 763 409 733 343 q 793 551 793 475 q 772 669 793 615 q 712 761 750 722 q 620 822 674 800 q 504 843 567 843 q 365 815 432 843 q 248 739 299 788 q 167 624 197 690 q 138 481 138 557 q 159 365 138 418 q 219 274 181 313 q 309 214 257 236 q 424 192 361 192 m 317 292 l 375 761 l 489 761 q 584 731 543 761 q 625 640 625 701 q 603 555 625 596 q 532 493 581 514 q 553 450 539 478 q 581 392 567 422 q 610 333 596 361 q 631 292 624 306 l 576 292 q 559 328 571 303 q 533 381 547 353 q 506 436 519 408 q 485 481 493 464 q 470 479 478 479 q 456 479 463 479 l 385 479 l 361 292 l 317 292 m 390 522 l 460 522 q 518 534 494 522 q 556 563 542 546 q 575 599 569 581 q 581 633 581 618 q 557 692 581 665 q 485 718 533 718 l 414 718 l 390 522 z "},"÷":{"ha":697,"x_min":85,"x_max":599,"o":"m 589 290 l 85 290 l 94 369 l 599 369 l 589 290 m 313 517 q 333 561 313 543 q 378 579 354 579 q 412 565 397 579 q 426 528 426 550 q 406 483 426 500 q 363 465 386 465 q 328 479 343 465 q 313 517 313 493 m 265 133 q 286 178 265 160 q 331 196 307 196 q 365 181 350 196 q 379 144 379 167 q 359 99 379 117 q 317 82 339 82 q 281 96 297 82 q 265 133 265 110 z "},"½":{"ha":1158,"x_min":121,"x_max":1076,"o":"m 783 56 l 1067 56 l 1060 0 l 636 0 q 778 125 710 64 q 900 244 847 186 q 985 356 953 301 q 1017 461 1017 411 q 1006 524 1017 499 q 977 566 994 550 q 939 589 960 582 q 900 596 918 596 q 824 578 854 596 q 775 537 793 561 q 749 485 757 513 q 742 438 742 458 q 771 349 742 385 l 732 315 q 697 369 708 335 q 686 438 686 404 q 701 518 686 479 q 744 586 717 557 q 813 633 772 615 q 907 651 854 651 q 978 638 946 651 q 1031 600 1010 624 q 1065 544 1053 576 q 1076 475 1076 513 q 1051 365 1076 418 q 983 260 1025 311 q 889 158 942 208 q 783 56 836 107 m 225 -26 l 743 1029 l 825 1029 q 566 502 694 764 q 307 -26 438 240 l 225 -26 m 121 914 l 128 971 l 271 971 l 192 325 l 132 325 l 204 914 l 121 914 z "},"¼":{"ha":1103,"x_min":121,"x_max":1033,"o":"m 533 181 q 760 433 644 306 q 989 686 876 561 l 933 240 l 1033 240 l 1026 181 l 926 181 l 904 0 l 843 0 l 865 181 l 533 181 m 211 -26 l 729 1029 l 811 1029 q 552 502 681 764 q 293 -26 424 240 l 211 -26 m 121 914 l 128 971 l 271 971 l 192 325 l 132 325 l 204 914 l 121 914 m 907 521 l 657 240 l 872 240 l 907 521 z "},"ª":{"ha":594,"x_min":94,"x_max":544,"o":"m 94 603 q 114 692 94 650 q 167 765 133 733 q 243 816 200 797 q 332 835 286 835 q 431 805 393 835 q 479 743 468 775 l 493 825 l 544 825 l 496 425 l 439 425 l 444 467 q 448 488 446 478 q 451 506 450 497 q 388 445 432 474 q 281 417 343 417 q 205 431 239 417 q 146 471 171 446 q 108 530 121 496 q 94 603 94 564 m 150 610 q 189 510 150 550 q 289 471 228 471 q 357 484 325 471 q 413 521 389 497 q 451 576 438 544 q 465 643 465 607 q 427 741 465 701 q 326 781 389 781 q 258 767 290 781 q 203 731 226 754 q 165 677 179 708 q 150 610 150 646 z "},"£":{"ha":819,"x_min":11,"x_max":750,"o":"m 207 79 l 486 79 q 559 83 529 79 q 607 94 589 86 q 633 117 625 103 q 644 153 642 131 l 653 221 l 735 221 l 722 119 q 712 73 719 94 q 685 35 704 51 q 633 10 667 19 q 542 0 599 0 l 11 0 l 21 79 l 82 79 q 121 86 106 79 q 147 111 136 93 q 163 162 157 129 q 176 244 169 194 l 196 401 l 103 401 l 113 481 l 204 481 l 235 728 q 265 815 240 776 q 327 881 289 854 q 416 923 365 908 q 525 938 467 938 q 674 901 622 938 q 750 803 726 865 l 685 768 q 664 801 675 785 q 635 831 653 818 q 589 851 617 843 q 518 858 561 858 q 372 817 419 858 q 315 710 324 776 l 288 481 l 456 481 l 446 401 l 278 401 l 253 201 q 239 130 247 161 q 207 79 231 99 z "},"¹":{"ha":257,"x_min":132,"x_max":228,"o":"m 132 939 l 136 975 l 228 975 l 176 557 l 139 557 l 186 939 l 132 939 z "},"¾":{"ha":1368,"x_min":56,"x_max":1299,"o":"m 797 181 q 1024 433 907 306 q 1251 686 1142 561 l 1197 240 l 1299 240 l 1292 181 l 1190 181 l 1168 0 l 1107 0 l 1129 181 l 797 181 m 442 -26 q 702 502 574 240 q 961 1031 831 764 l 1043 1031 q 784 502 913 764 q 524 -26 656 240 l 442 -26 m 190 651 q 301 790 243 722 q 413 928 358 858 l 156 928 l 163 989 l 522 989 q 416 858 469 922 q 310 726 363 793 q 428 660 382 713 q 475 529 475 607 q 453 432 475 478 q 395 352 432 386 q 311 298 358 318 q 214 278 264 278 q 124 298 164 278 q 56 353 83 318 l 107 397 q 155 354 126 369 q 221 339 183 339 q 292 353 258 339 q 353 393 326 368 q 395 451 379 418 q 411 522 411 485 q 368 631 411 588 q 261 674 325 674 q 190 651 222 674 m 1171 521 l 921 240 l 1136 240 l 1171 521 z "},"²":{"ha":471,"x_min":110,"x_max":418,"o":"m 211 560 l 410 560 l 406 521 l 110 521 q 209 608 161 565 q 294 690 257 650 q 353 769 331 731 q 375 843 375 807 q 367 886 375 868 q 347 915 360 904 q 321 931 335 926 q 294 936 307 936 q 241 924 263 936 q 207 896 219 913 q 189 860 194 879 q 183 825 183 840 q 203 764 183 788 l 175 740 q 151 778 160 754 q 143 826 143 803 q 153 883 143 856 q 184 930 164 910 q 233 963 204 950 q 299 975 263 975 q 386 940 354 975 q 418 853 418 906 q 400 776 418 813 q 352 702 382 739 q 285 630 322 665 q 211 560 249 594 z "},"¶":{"ha":753,"x_min":104,"x_max":672,"o":"m 315 0 l 235 0 l 307 592 q 226 608 263 592 q 162 651 189 624 q 119 717 135 679 q 104 797 104 754 q 125 895 104 849 q 182 976 146 942 q 265 1030 218 1010 q 364 1050 311 1050 l 672 1050 l 543 0 l 463 0 l 582 971 l 435 971 l 315 0 z "},"¬":{"ha":710,"x_min":97,"x_max":608,"o":"m 510 207 l 519 283 l 97 283 l 104 343 l 608 343 l 592 207 l 510 207 z "},"³":{"ha":403,"x_min":94,"x_max":393,"o":"m 181 761 q 251 849 214 806 q 322 936 289 892 l 158 936 l 163 976 l 393 976 l 257 808 q 333 766 303 800 q 363 683 363 732 q 349 621 363 650 q 312 569 335 592 q 258 535 289 547 q 196 522 228 522 q 138 535 164 522 q 94 571 113 549 l 128 599 q 200 561 151 561 q 246 571 224 561 q 285 597 268 581 q 312 634 301 613 q 322 679 322 656 q 294 747 322 719 q 226 775 267 775 q 181 761 204 775 z "},"¦":{"ha":344,"x_min":44,"x_max":286,"o":"m 125 -326 l 44 -326 l 104 164 l 185 164 l 125 -326 m 225 490 l 144 490 l 206 981 l 286 981 l 225 490 z "},"&":{"ha":901,"x_min":46,"x_max":879,"o":"m 804 0 l 713 0 q 690 31 711 0 q 633 114 668 63 q 506 24 585 58 q 335 -11 426 -11 q 216 8 269 -11 q 125 62 163 28 q 67 143 88 96 q 46 246 46 190 q 69 360 46 307 q 134 454 93 413 q 228 524 175 496 q 340 564 282 553 q 296 639 314 607 q 271 688 278 671 q 249 750 258 719 q 240 815 240 781 q 262 911 240 868 q 319 984 283 954 q 401 1031 354 1014 q 499 1047 449 1047 q 608 1030 560 1049 q 688 990 657 1011 q 680 980 688 989 q 664 960 672 971 q 648 942 656 950 q 640 932 640 933 q 585 959 615 947 q 519 974 556 971 q 448 966 483 975 q 385 937 413 957 q 340 886 357 917 q 322 815 322 856 q 333 748 322 776 q 346 715 343 719 l 639 257 l 797 569 l 879 569 l 685 188 l 804 0 m 385 493 q 293 474 339 492 q 210 424 247 456 q 149 349 172 393 q 125 254 125 306 q 143 173 125 208 q 192 113 161 138 q 263 76 222 89 q 349 64 303 64 q 419 72 383 64 q 488 95 456 81 q 548 130 521 110 q 594 174 575 150 q 489 331 544 247 q 385 493 433 415 z "},"ß":{"ha":765,"x_min":54,"x_max":701,"o":"m 238 19 l 279 90 q 372 67 319 67 q 465 86 421 67 q 544 138 510 106 q 599 214 579 171 q 619 306 619 257 q 605 381 619 346 q 565 443 590 417 q 503 484 539 469 q 426 499 468 499 l 425 499 l 435 578 q 542 617 497 578 q 586 719 586 656 q 553 805 586 768 q 450 842 519 842 q 303 774 354 842 q 238 592 251 706 l 165 0 l 85 0 l 144 486 l 54 486 l 64 565 l 154 565 l 158 594 q 194 731 168 671 q 259 833 221 792 q 346 897 297 875 q 450 921 394 919 q 550 905 508 921 q 617 863 592 889 q 656 804 643 838 q 668 735 668 771 q 635 619 668 669 q 543 546 603 568 q 603 517 574 538 q 653 465 632 496 q 688 395 675 435 q 701 311 701 356 q 673 188 701 246 q 598 85 644 129 q 490 14 551 40 q 363 -12 429 -12 q 238 19 293 -12 z "},"¤":{"ha":633,"x_min":104,"x_max":556,"o":"m 131 481 q 145 555 131 521 q 185 617 160 589 l 146 663 l 192 703 l 231 658 q 290 689 258 678 q 356 700 321 700 q 419 688 390 700 q 469 657 447 676 l 519 703 l 556 661 l 507 618 q 526 573 519 599 q 532 521 532 547 q 517 447 532 481 q 475 382 503 413 l 515 333 l 471 293 l 428 340 q 370 313 401 322 q 307 303 339 303 q 247 313 275 303 q 196 339 218 322 l 142 292 l 104 332 l 160 381 q 131 481 131 425 m 190 488 q 226 396 190 433 q 314 358 261 358 q 375 371 346 358 q 426 405 404 383 q 460 455 447 426 q 474 515 474 483 q 439 606 474 568 q 349 643 404 643 q 290 631 318 643 q 239 597 261 618 q 203 548 217 576 q 190 488 190 519 z "},"§":{"ha":521,"x_min":90,"x_max":460,"o":"m 196 211 q 157 292 172 260 q 132 347 142 325 q 116 381 122 368 q 106 406 110 394 q 91 472 92 436 q 101 541 90 507 q 132 605 111 575 q 185 656 153 635 q 308 678 242 689 q 281 735 293 706 q 254 794 268 764 q 230 867 235 836 q 230 919 225 897 q 248 958 235 942 q 281 986 261 974 q 334 1020 304 1006 q 392 1050 364 1035 l 424 982 q 391 965 408 974 q 358 947 374 957 q 318 898 322 928 q 343 806 314 868 l 344 806 l 443 596 q 458 530 457 564 q 449 463 460 496 q 415 400 438 429 q 361 350 393 371 q 238 325 303 314 l 293 207 q 318 135 313 165 q 318 81 324 104 q 299 42 313 58 q 267 14 285 26 q 215 -20 244 -6 q 157 -50 185 -35 q 142 -16 150 -33 q 126 19 133 1 l 190 54 q 219 76 210 64 q 230 107 229 89 q 222 150 231 125 q 196 211 214 175 m 172 479 q 201 419 174 442 q 267 397 229 396 q 311 408 290 399 q 347 435 332 418 q 372 472 363 451 q 381 515 381 493 q 351 586 381 560 q 281 613 322 613 q 231 598 253 610 q 195 567 210 586 q 174 526 181 549 q 172 479 168 503 z "},"·":{"ha":288,"x_min":89,"x_max":200,"o":"m 89 389 q 108 433 89 415 q 151 451 128 451 q 185 437 171 451 q 200 400 200 422 q 180 355 200 372 q 138 338 160 338 q 103 351 118 338 q 89 389 89 365 z "},"º":{"ha":554,"x_min":90,"x_max":518,"o":"m 96 625 q 123 707 101 668 q 176 774 144 746 q 249 819 208 803 q 333 836 289 836 q 408 822 374 836 q 466 781 442 807 q 504 721 490 756 q 518 647 518 686 q 499 558 518 600 q 447 484 479 515 q 372 435 415 453 q 282 417 329 417 q 201 433 238 417 q 140 476 165 449 q 103 542 115 504 q 96 625 90 581 m 151 625 q 183 515 144 560 q 288 471 222 471 q 353 484 322 471 q 409 520 385 497 q 448 574 433 543 q 463 640 463 606 q 424 740 463 700 q 325 781 385 781 q 263 768 293 781 q 210 735 233 756 q 171 685 186 714 q 151 625 156 657 z "},"¯":{"ha":560,"x_min":203,"x_max":532,"o":"m 203 676 l 210 731 l 532 731 l 525 676 l 203 676 z "},"µ":{"ha":740,"x_min":42,"x_max":629,"o":"m 560 -7 l 496 -7 l 506 143 q 403 31 468 74 q 254 -12 339 -12 q 153 14 192 -12 l 117 -279 l 42 -279 l 93 135 q 93 154 90 143 l 142 556 l 219 556 l 174 181 q 197 100 169 133 q 283 64 224 67 q 367 78 326 64 q 438 119 407 93 q 490 181 469 144 q 517 260 511 217 l 553 556 l 629 556 l 560 -7 z "},"×":{"ha":603,"x_min":50,"x_max":514,"o":"m 401 0 l 272 146 q 191 74 232 110 q 110 1 150 38 l 50 68 l 214 215 l 85 361 l 163 431 l 292 283 q 374 357 332 321 q 456 429 415 393 q 485 396 471 414 q 514 361 499 378 q 433 289 474 325 q 351 217 392 253 q 416 143 385 181 q 481 69 447 106 l 401 0 z "},"O":{"ha":1147,"x_min":68,"x_max":1097,"o":"m 81 494 q 144 691 93 599 q 273 853 196 783 q 447 963 350 922 q 649 1003 544 1003 q 828 967 746 1003 q 969 868 910 931 q 1063 722 1029 806 q 1097 544 1097 639 q 1050 330 1097 431 q 923 153 1003 229 q 740 33 843 78 q 524 -11 636 -11 q 332 28 419 -11 q 184 137 244 68 q 96 298 124 206 q 81 494 68 390 m 175 494 q 187 333 164 408 q 259 201 210 257 q 379 112 308 144 q 535 79 450 79 q 711 115 626 79 q 860 214 796 151 q 964 360 925 276 q 1003 536 1003 443 q 975 683 1003 614 q 899 802 947 751 q 783 882 850 853 q 638 911 717 911 q 473 878 551 911 q 331 789 394 846 q 226 656 268 732 q 175 494 185 581 z "},"g":{"ha":733,"x_min":22,"x_max":661,"o":"m 39 246 q 65 372 39 314 q 136 474 92 431 q 239 543 181 518 q 361 568 297 568 q 443 556 407 568 q 506 524 479 543 q 549 483 532 506 q 571 440 565 461 q 580 497 574 468 q 590 556 586 526 l 661 556 l 594 10 q 563 -101 588 -50 q 498 -188 539 -151 q 399 -246 457 -225 q 265 -267 340 -267 q 131 -237 186 -267 q 22 -151 76 -208 l 78 -99 q 173 -172 126 -151 q 272 -193 219 -193 q 446 -138 389 -193 q 515 6 503 -83 q 519 25 518 17 q 524 57 519 33 q 526 70 524 61 q 529 90 528 79 q 533 109 531 100 q 535 121 535 118 q 440 28 503 68 q 292 -11 376 -11 q 188 8 235 -11 q 108 63 142 28 q 57 144 75 97 q 39 246 39 192 m 115 256 q 129 180 115 215 q 169 119 143 144 q 230 78 194 93 q 308 64 265 64 q 403 83 358 64 q 481 133 447 101 q 533 208 514 165 q 553 301 553 251 q 539 377 553 342 q 499 438 525 413 q 438 478 474 464 q 361 493 403 493 q 266 475 311 493 q 188 424 221 457 q 135 349 154 392 q 115 256 115 306 z "},"d":{"ha":733,"x_min":39,"x_max":724,"o":"m 39 246 q 65 373 39 314 q 136 475 92 432 q 239 543 181 518 q 363 568 297 568 q 440 557 406 568 q 501 528 475 546 q 545 486 528 510 q 571 439 563 463 l 647 1064 l 724 1064 l 593 0 l 517 0 l 524 57 q 529 87 526 72 q 533 115 532 101 q 436 26 499 64 q 290 -11 374 -11 q 185 9 232 -11 q 106 64 139 29 q 56 145 74 99 q 39 246 39 192 m 115 256 q 129 180 115 215 q 169 119 143 144 q 230 78 194 93 q 308 64 265 64 q 403 83 358 64 q 481 133 447 101 q 533 208 514 165 q 553 301 553 251 q 539 377 553 342 q 499 438 525 413 q 438 478 474 464 q 361 493 403 493 q 266 475 311 493 q 188 424 221 457 q 135 349 154 392 q 115 256 115 306 z "},"a":{"ha":732,"x_min":38,"x_max":660,"o":"m 38 246 q 65 370 38 311 q 138 473 92 429 q 242 542 183 517 q 365 568 301 568 q 442 557 407 568 q 503 527 476 546 q 546 485 529 508 q 569 440 563 463 l 589 556 l 660 556 l 592 0 l 515 0 l 522 57 q 526 86 525 72 q 531 113 528 100 q 496 67 518 89 q 443 28 474 46 q 375 -1 413 10 q 294 -11 338 -11 q 189 9 236 -11 q 108 64 142 29 q 56 146 75 99 q 38 246 38 193 m 114 257 q 128 181 114 215 q 167 119 142 146 q 228 78 193 93 q 307 64 264 64 q 401 83 357 64 q 479 133 446 101 q 532 209 513 165 q 551 301 551 253 q 538 377 551 342 q 499 438 524 413 q 438 478 474 464 q 360 493 403 493 q 265 475 310 493 q 188 425 221 457 q 134 350 154 393 q 114 257 114 307 z "},"n":{"ha":667,"x_min":46,"x_max":588,"o":"m 114 556 l 179 556 l 168 413 q 273 525 208 482 q 421 568 338 568 q 545 522 503 568 q 581 401 588 476 l 532 0 l 456 0 l 501 375 q 478 456 506 422 q 390 492 451 489 q 306 477 346 492 q 235 436 267 463 q 184 374 204 410 q 158 294 164 338 l 122 0 l 46 0 l 114 556 z "},"˛":{"ha":917,"x_min":133,"x_max":399,"o":"m 321 -39 q 297 -80 317 -65 q 256 -109 278 -94 q 215 -143 233 -124 q 197 -199 197 -162 q 215 -252 197 -231 q 268 -274 233 -274 q 319 -258 297 -274 q 353 -217 342 -242 q 376 -228 364 -222 q 399 -240 388 -233 q 337 -312 376 -289 q 253 -336 297 -336 q 165 -301 196 -336 q 133 -211 133 -267 q 149 -142 133 -175 q 204 -85 165 -110 q 224 -74 214 -79 q 244 -60 235 -68 q 261 -41 254 -53 q 271 -10 268 -29 l 272 0 l 325 0 l 321 -39 z "},"ˇ":{"ha":618,"x_min":271,"x_max":607,"o":"m 271 924 l 331 924 l 419 771 l 546 924 l 607 924 q 507 797 557 861 q 408 671 457 733 l 271 924 z "},"˝":{"ha":669,"x_min":194,"x_max":731,"o":"m 499 671 q 574 763 536 717 q 647 857 611 810 l 731 857 q 646 763 689 810 q 560 671 603 717 l 499 671 m 194 671 l 343 857 l 425 857 q 340 763 383 810 q 254 671 297 717 l 194 671 z "},"˙":{"ha":304,"x_min":188,"x_max":297,"o":"m 188 751 q 207 795 188 778 q 250 813 226 813 q 283 799 269 813 q 297 763 297 785 q 278 718 297 735 q 236 701 260 701 q 202 715 217 701 q 188 751 188 728 z "},"˘":{"ha":888,"x_min":247,"x_max":701,"o":"m 451 694 q 367 711 406 694 q 301 757 328 728 q 260 826 274 786 q 251 913 247 867 l 299 913 q 306 846 296 876 q 336 792 315 815 q 388 755 357 768 q 457 742 419 742 q 529 755 496 742 q 588 792 563 768 q 631 846 614 815 q 653 913 647 876 l 701 913 q 673 826 696 867 q 616 757 650 786 q 540 711 582 728 q 451 694 497 694 z "},"Ą":{"ha":894,"x_min":-29,"x_max":860,"o":"m 786 0 l 782 -39 q 759 -80 779 -65 q 717 -109 739 -94 q 676 -143 694 -124 q 658 -199 658 -162 q 676 -252 658 -231 q 729 -274 694 -274 q 781 -258 758 -274 q 814 -217 803 -242 q 837 -228 825 -222 q 860 -240 849 -233 q 798 -312 838 -289 q 714 -336 758 -336 q 626 -301 657 -336 q 594 -211 594 -267 q 610 -142 594 -175 q 665 -85 626 -110 q 685 -74 675 -79 q 706 -60 696 -68 q 722 -41 715 -53 q 732 -10 729 -29 l 733 0 l 732 0 q 686 157 713 64 q 632 354 660 250 l 251 354 q 149 157 199 250 q 65 0 100 64 l -29 0 q 43 133 -1 50 q 140 314 88 215 q 249 519 192 413 q 358 724 306 625 q 454 904 410 822 q 526 1038 499 986 q 566 904 542 986 q 618 724 590 822 q 677 519 646 625 q 736 314 708 413 q 788 133 764 215 q 828 0 813 50 l 786 0 m 482 794 q 397 635 446 729 q 294 436 347 540 l 611 436 q 556 635 582 540 q 510 794 529 729 q 506 813 508 800 q 501 838 504 826 q 491 813 497 826 q 482 794 485 800 z "},"Ł":{"ha":790,"x_min":51,"x_max":739,"o":"m 106 0 l 154 389 l 51 357 l 61 436 l 164 468 l 228 992 l 322 992 l 263 500 l 581 603 l 571 524 l 253 421 l 211 90 l 739 90 l 728 0 l 106 0 z "},"Ľ":{"ha":779,"x_min":94,"x_max":728,"o":"m 94 0 l 217 992 l 311 992 l 200 90 l 728 90 l 717 0 l 94 0 m 508 796 l 472 826 q 524 896 506 854 q 539 986 542 938 l 596 996 q 576 885 600 938 q 508 796 553 833 z "},"Ś":{"ha":769,"x_min":14,"x_max":732,"o":"m 732 940 l 688 864 q 584 897 642 883 q 471 911 526 911 q 375 897 418 911 q 301 860 332 883 q 254 805 271 836 q 238 739 238 774 q 272 660 238 690 q 356 607 306 631 q 466 562 407 583 q 576 508 525 540 q 660 427 626 475 q 694 304 694 379 q 668 175 694 233 q 592 76 642 117 q 470 12 542 35 q 310 -11 399 -11 q 203 -1 251 -11 q 119 24 156 10 q 56 54 82 39 q 14 81 31 69 l 67 164 q 181 107 113 132 q 319 82 250 82 q 408 94 360 82 q 500 131 457 106 q 572 196 543 156 q 600 294 600 236 q 566 390 600 353 q 481 453 532 426 q 370 501 429 479 q 260 550 311 522 q 174 618 208 578 q 140 721 140 658 q 164 824 140 775 q 231 913 188 874 q 336 974 275 951 q 472 997 397 997 q 551 991 511 997 q 627 976 592 985 q 690 957 663 967 q 732 940 718 947 m 394 1056 l 544 1242 l 626 1242 q 541 1148 583 1194 q 454 1056 499 1101 l 394 1056 z "},"Š":{"ha":769,"x_min":14,"x_max":732,"o":"m 732 940 l 688 864 q 584 897 642 883 q 471 911 526 911 q 375 897 418 911 q 301 860 332 883 q 254 805 271 836 q 238 739 238 774 q 272 660 238 690 q 356 607 306 631 q 466 562 407 583 q 576 508 525 540 q 660 427 626 475 q 694 304 694 379 q 668 175 694 233 q 592 76 642 117 q 470 12 542 35 q 310 -11 399 -11 q 203 -1 251 -11 q 119 24 156 10 q 56 54 82 39 q 14 81 31 69 l 67 164 q 181 107 113 132 q 319 82 250 82 q 408 94 360 82 q 500 131 457 106 q 572 196 543 156 q 600 294 600 236 q 566 390 600 353 q 481 453 532 426 q 370 501 429 479 q 260 550 311 522 q 174 618 208 578 q 140 721 140 658 q 164 824 140 775 q 231 913 188 874 q 336 974 275 951 q 472 997 397 997 q 551 991 511 997 q 627 976 592 985 q 690 957 663 967 q 732 940 718 947 m 328 1276 l 388 1276 l 476 1124 l 603 1276 l 664 1276 q 563 1150 613 1214 q 464 1024 514 1086 l 328 1276 z "},"Ş":{"ha":769,"x_min":14,"x_max":732,"o":"m 732 940 l 688 864 q 584 897 642 883 q 471 911 526 911 q 375 897 418 911 q 301 860 332 883 q 254 805 271 836 q 238 739 238 774 q 272 660 238 690 q 356 607 306 631 q 466 562 407 583 q 576 508 525 540 q 660 427 626 475 q 694 304 694 379 q 670 181 694 236 q 601 84 646 125 q 490 19 556 43 q 343 -10 425 -6 q 344 -41 340 -29 q 356 -60 349 -53 q 373 -74 364 -68 q 390 -85 382 -79 q 424 -128 414 -104 q 435 -178 435 -153 q 424 -240 435 -211 q 392 -290 413 -269 q 342 -324 371 -311 q 279 -336 314 -336 q 203 -312 236 -336 q 158 -240 169 -289 q 210 -217 182 -228 q 233 -258 214 -242 q 282 -274 251 -274 q 348 -246 322 -274 q 374 -178 374 -218 q 359 -133 374 -149 q 327 -103 344 -117 q 297 -76 310 -90 q 286 -39 283 -62 l 289 -11 q 190 1 235 -10 q 112 27 146 13 q 53 56 78 42 q 14 81 29 71 l 67 164 q 181 107 113 132 q 319 82 250 82 q 408 94 360 82 q 500 131 457 106 q 572 196 543 156 q 600 294 600 236 q 566 390 600 353 q 481 453 532 426 q 370 501 429 479 q 260 550 311 522 q 174 618 208 578 q 140 721 140 658 q 164 824 140 775 q 231 913 188 874 q 336 974 275 951 q 472 997 397 997 q 551 991 511 997 q 627 976 592 985 q 690 957 663 967 q 732 940 718 947 z "},"Ť":{"ha":743,"x_min":124,"x_max":756,"o":"m 756 992 l 744 901 l 481 901 l 369 0 l 274 0 l 385 901 l 124 901 l 135 992 l 756 992 m 311 1276 l 371 1276 l 461 1124 l 586 1276 l 647 1276 q 547 1150 597 1214 q 449 1024 497 1086 l 311 1276 z "},"Ź":{"ha":881,"x_min":-29,"x_max":894,"o":"m 271 992 l 894 992 l 147 92 l 810 92 l 799 0 l -29 0 q 73 124 13 50 q 203 285 133 199 q 348 463 274 371 q 492 640 422 554 q 622 797 561 725 q 724 917 682 869 l 235 917 q 163 935 190 917 q 140 993 135 953 l 146 1042 l 233 1042 l 231 1024 q 238 998 228 1004 q 271 992 247 992 m 489 1056 l 639 1242 l 721 1242 q 635 1148 678 1194 q 549 1056 593 1101 l 489 1056 z "},"Ž":{"ha":881,"x_min":-29,"x_max":894,"o":"m 271 992 l 894 992 l 147 92 l 810 92 l 799 0 l -29 0 q 73 124 13 50 q 203 285 133 199 q 348 463 274 371 q 492 640 422 554 q 622 797 561 725 q 724 917 682 869 l 235 917 q 163 935 190 917 q 140 993 135 953 l 146 1042 l 233 1042 l 231 1024 q 238 998 228 1004 q 271 992 247 992 m 386 1276 l 446 1276 l 535 1124 l 661 1276 l 722 1276 q 622 1150 671 1214 q 522 1024 572 1086 l 386 1276 z "},"Ż":{"ha":881,"x_min":-29,"x_max":894,"o":"m 271 992 l 894 992 l 147 92 l 810 92 l 799 0 l -29 0 q 73 124 13 50 q 203 285 133 199 q 348 463 274 371 q 492 640 422 554 q 622 797 561 725 q 724 917 682 869 l 235 917 q 163 935 190 917 q 140 993 135 953 l 146 1042 l 233 1042 l 231 1024 q 238 998 228 1004 q 271 992 247 992 m 490 1097 q 510 1141 490 1124 q 553 1158 531 1158 q 587 1144 572 1158 q 601 1108 601 1131 q 583 1064 601 1081 q 540 1047 564 1047 q 506 1060 521 1047 q 490 1097 490 1074 z "},"ą":{"ha":732,"x_min":38,"x_max":660,"o":"m 38 246 q 65 370 38 311 q 138 473 92 429 q 242 542 183 517 q 365 568 301 568 q 442 557 407 568 q 503 527 476 546 q 546 485 529 508 q 569 440 563 463 l 589 556 l 660 556 l 592 0 l 515 0 l 522 57 q 526 86 525 72 q 531 113 528 100 q 496 67 518 89 q 443 28 474 46 q 375 -1 413 10 q 294 -11 338 -11 q 189 9 236 -11 q 108 64 142 29 q 56 146 75 99 q 38 246 38 193 m 114 257 q 128 181 114 215 q 167 119 142 146 q 228 78 193 93 q 307 64 264 64 q 401 83 357 64 q 479 133 446 101 q 532 209 513 165 q 551 301 551 253 q 538 377 551 342 q 499 438 524 413 q 438 478 474 464 q 360 493 403 493 q 265 475 310 493 q 188 425 221 457 q 134 350 154 393 q 114 257 114 307 m 569 0 l 517 0 l 515 -10 q 506 -41 513 -29 q 489 -60 499 -53 q 469 -74 479 -68 q 449 -85 458 -79 q 394 -142 410 -110 q 378 -211 378 -175 q 409 -301 378 -267 q 497 -336 440 -336 q 581 -312 542 -336 q 643 -240 621 -289 q 620 -228 632 -233 q 597 -217 608 -222 q 564 -258 586 -242 q 513 -274 542 -274 q 460 -252 478 -274 q 442 -199 442 -231 q 460 -143 442 -162 q 500 -109 478 -124 q 542 -80 522 -94 q 565 -39 563 -65 l 569 0 z "},"ł":{"ha":303,"x_min":29,"x_max":299,"o":"m 133 0 l 57 0 l 104 381 l 29 357 l 39 436 l 114 460 l 188 1064 l 264 1064 l 193 486 l 299 521 l 289 442 l 183 407 l 133 0 z "},"ľ":{"ha":268,"x_min":49,"x_max":424,"o":"m 125 0 l 49 0 l 179 1064 l 256 1064 l 125 0 m 332 796 l 296 826 q 347 896 329 854 q 363 986 365 938 l 419 996 q 400 885 424 938 q 332 796 376 833 z "},"ś":{"ha":460,"x_min":10,"x_max":460,"o":"m 401 503 l 354 449 q 313 477 343 464 q 249 490 282 490 q 216 486 233 490 q 183 472 199 482 q 158 445 168 461 q 149 406 149 429 q 166 360 149 378 q 209 331 183 343 q 265 306 235 318 q 320 276 294 293 q 363 235 346 260 q 381 171 381 210 q 367 101 381 133 q 326 43 353 68 q 263 3 300 18 q 178 -11 225 -11 q 83 6 131 -11 q 10 58 36 22 q 26 74 17 64 q 43 92 35 83 q 57 106 51 100 q 64 113 63 113 q 80 97 68 106 q 109 81 92 89 q 147 68 126 74 q 186 63 167 63 q 225 68 204 63 q 263 85 246 74 q 292 116 281 97 q 304 160 304 135 q 287 205 304 188 q 243 235 269 222 q 187 259 217 247 q 131 288 157 271 q 87 329 104 304 q 69 394 69 354 q 88 473 69 440 q 133 526 106 506 q 192 556 160 546 q 256 565 225 565 q 333 550 292 565 q 401 503 374 535 m 228 671 l 378 857 l 460 857 q 374 763 417 810 q 288 671 332 717 l 228 671 z "},"š":{"ha":460,"x_min":10,"x_max":460,"o":"m 401 503 l 354 449 q 313 477 343 464 q 249 490 282 490 q 216 486 233 490 q 183 472 199 482 q 158 445 168 461 q 149 406 149 429 q 166 360 149 378 q 209 331 183 343 q 265 306 235 318 q 320 276 294 293 q 363 235 346 260 q 381 171 381 210 q 367 101 381 133 q 326 43 353 68 q 263 3 300 18 q 178 -11 225 -11 q 83 6 131 -11 q 10 58 36 22 q 26 74 17 64 q 43 92 35 83 q 57 106 51 100 q 64 113 63 113 q 80 97 68 106 q 109 81 92 89 q 147 68 126 74 q 186 63 167 63 q 225 68 204 63 q 263 85 246 74 q 292 116 281 97 q 304 160 304 135 q 287 205 304 188 q 243 235 269 222 q 187 259 217 247 q 131 288 157 271 q 87 329 104 304 q 69 394 69 354 q 88 473 69 440 q 133 526 106 506 q 192 556 160 546 q 256 565 225 565 q 333 550 292 565 q 401 503 374 535 m 124 924 l 183 924 l 274 771 l 399 924 l 460 924 q 360 797 410 861 q 261 671 311 733 l 124 924 z "},"ş":{"ha":460,"x_min":10,"x_max":401,"o":"m 401 503 l 354 449 q 313 477 343 464 q 249 490 282 490 q 216 486 233 490 q 183 472 199 482 q 158 445 168 461 q 149 406 149 429 q 166 360 149 378 q 209 331 183 343 q 265 306 235 318 q 320 276 294 293 q 363 235 346 260 q 381 171 381 210 q 334 51 381 101 q 206 -10 288 0 q 207 -41 203 -29 q 219 -60 211 -53 q 235 -74 226 -68 q 253 -85 244 -79 q 287 -128 276 -104 q 297 -178 297 -153 q 286 -240 297 -211 q 254 -290 275 -269 q 205 -324 233 -311 q 142 -336 176 -336 q 65 -312 99 -336 q 21 -240 32 -289 q 72 -217 44 -228 q 95 -258 76 -242 q 144 -274 114 -274 q 210 -246 185 -274 q 236 -178 236 -218 q 222 -133 236 -149 q 190 -103 207 -117 q 159 -76 172 -90 q 149 -39 146 -62 l 153 -10 q 71 10 110 -6 q 10 58 32 26 q 26 74 17 64 q 43 92 35 83 q 57 106 51 100 q 64 113 63 113 q 80 97 68 106 q 109 81 92 89 q 147 68 126 74 q 186 63 167 63 q 225 68 204 63 q 263 85 246 74 q 292 116 281 97 q 304 160 304 135 q 287 205 304 188 q 243 235 269 222 q 187 259 217 247 q 131 288 157 271 q 87 329 104 304 q 69 394 69 354 q 88 473 69 440 q 133 526 106 506 q 192 556 160 546 q 256 565 225 565 q 333 550 292 565 q 401 503 374 535 z "},"ť":{"ha":394,"x_min":36,"x_max":493,"o":"m 186 799 l 263 799 l 232 550 l 397 550 l 389 481 l 224 481 l 165 0 l 89 0 l 147 481 l 36 481 l 44 550 l 156 550 l 186 799 m 401 796 l 365 826 q 417 896 399 854 q 432 986 435 938 l 489 996 q 469 885 493 938 q 401 796 446 833 z "},"ź":{"ha":558,"x_min":-12,"x_max":540,"o":"m 467 0 l -12 0 l 393 489 l 158 489 q 88 509 113 489 q 68 571 63 529 l 72 608 l 143 608 l 140 590 q 148 563 138 571 q 182 556 158 556 l 540 556 l 142 75 l 476 75 l 467 0 m 271 671 l 421 857 l 503 857 q 417 763 460 810 q 331 671 375 717 l 271 671 z "},"ž":{"ha":558,"x_min":-12,"x_max":540,"o":"m 467 0 l -12 0 l 393 489 l 158 489 q 88 509 113 489 q 68 571 63 529 l 72 608 l 143 608 l 140 590 q 148 563 138 571 q 182 556 158 556 l 540 556 l 142 75 l 476 75 l 467 0 m 190 924 l 250 924 l 339 771 l 465 924 l 526 924 q 426 797 475 861 q 326 671 376 733 l 190 924 z "},"ż":{"ha":558,"x_min":-12,"x_max":540,"o":"m 467 0 l -12 0 l 393 489 l 158 489 q 88 509 113 489 q 68 571 63 529 l 72 608 l 143 608 l 140 590 q 148 563 138 571 q 182 556 158 556 l 540 556 l 142 75 l 476 75 l 467 0 m 265 751 q 285 795 265 778 q 328 813 304 813 q 361 799 347 813 q 375 763 375 785 q 356 718 375 735 q 314 701 338 701 q 280 715 294 701 q 265 751 265 728 z "},"Ŕ":{"ha":836,"x_min":94,"x_max":760,"o":"m 94 0 l 217 992 l 457 992 q 567 976 514 992 q 660 929 619 961 q 724 849 700 897 q 747 736 747 801 q 735 647 747 692 q 700 560 724 601 q 639 485 676 519 q 550 428 601 450 q 593 336 564 396 q 654 211 622 276 q 715 88 686 146 q 760 0 744 29 l 644 0 q 606 77 632 25 q 551 188 581 129 q 494 305 522 247 q 446 400 465 363 q 417 397 432 397 q 386 397 401 397 l 238 397 l 189 0 l 94 0 m 249 488 l 396 488 q 519 513 469 488 q 597 574 568 538 q 639 650 626 610 q 651 721 651 690 q 639 788 651 756 q 601 847 626 821 q 538 888 576 872 q 449 903 500 903 l 300 903 l 249 488 m 435 1056 l 585 1242 l 667 1242 q 581 1148 624 1194 q 494 1056 539 1101 l 435 1056 z "},"Ă":{"ha":896,"x_min":-28,"x_max":829,"o":"m 829 0 q 790 133 814 50 q 738 314 765 215 q 678 519 710 413 q 619 724 647 625 q 567 904 592 822 q 528 1038 543 986 q 456 904 500 986 q 359 724 411 822 q 250 519 307 625 q 141 314 193 413 q 44 133 89 215 q -28 0 0 50 l 67 0 q 151 157 101 64 q 253 354 200 250 l 633 354 q 688 157 661 250 q 733 0 714 64 l 829 0 m 483 794 q 492 813 486 800 q 503 838 499 826 q 508 813 506 826 q 511 794 510 800 q 557 635 531 729 q 613 436 583 540 l 296 436 q 398 635 349 540 q 483 794 447 729 m 532 1058 q 447 1075 486 1058 q 381 1121 408 1092 q 341 1190 354 1150 q 332 1276 328 1231 l 379 1276 q 385 1210 375 1240 q 417 1156 396 1179 q 469 1119 438 1132 q 538 1106 500 1106 q 610 1119 576 1106 q 669 1156 643 1132 q 711 1210 694 1179 q 733 1276 728 1240 l 782 1276 q 753 1190 776 1231 q 697 1121 731 1150 q 620 1075 663 1092 q 532 1058 578 1058 z "},"Ĺ":{"ha":779,"x_min":94,"x_max":728,"o":"m 94 0 l 217 992 l 311 992 l 200 90 l 728 90 l 717 0 l 94 0 m 454 1056 l 604 1242 l 686 1242 q 601 1148 643 1194 q 514 1056 558 1101 l 454 1056 z "},"Ć":{"ha":893,"x_min":78,"x_max":910,"o":"m 819 67 q 694 14 771 39 q 521 -11 618 -11 q 333 24 415 -11 q 194 120 251 60 q 108 262 138 181 q 78 433 78 343 q 126 658 78 554 q 253 839 174 763 q 438 959 333 915 q 656 1003 542 1003 q 731 998 693 1003 q 803 983 769 993 q 864 961 836 974 q 910 933 892 949 q 897 915 901 922 q 887 901 892 908 q 875 883 882 893 q 858 858 868 874 q 760 900 818 886 q 649 914 703 914 q 468 876 554 914 q 317 776 382 839 q 213 629 251 713 q 175 454 175 546 q 200 314 175 381 q 272 197 225 247 q 385 116 318 146 q 536 86 453 86 q 615 92 576 86 q 686 109 653 99 q 745 131 719 119 q 786 153 771 142 l 819 67 m 572 1056 l 722 1242 l 804 1242 q 718 1148 761 1194 q 632 1056 675 1101 l 572 1056 z "},"Č":{"ha":893,"x_min":78,"x_max":910,"o":"m 819 67 q 694 14 771 39 q 521 -11 618 -11 q 333 24 415 -11 q 194 120 251 60 q 108 262 138 181 q 78 433 78 343 q 126 658 78 554 q 253 839 174 763 q 438 959 333 915 q 656 1003 542 1003 q 731 998 693 1003 q 803 983 769 993 q 864 961 836 974 q 910 933 892 949 q 897 915 901 922 q 887 901 892 908 q 875 883 882 893 q 858 858 868 874 q 760 900 818 886 q 649 914 703 914 q 468 876 554 914 q 317 776 382 839 q 213 629 251 713 q 175 454 175 546 q 200 314 175 381 q 272 197 225 247 q 385 116 318 146 q 536 86 453 86 q 615 92 576 86 q 686 109 653 99 q 745 131 719 119 q 786 153 771 142 l 819 67 m 513 1276 l 572 1276 l 661 1124 l 788 1276 l 849 1276 q 748 1150 797 1214 q 649 1024 699 1086 l 513 1276 z "},"Ę":{"ha":849,"x_min":94,"x_max":842,"o":"m 739 0 l 94 0 l 217 992 l 842 992 l 831 906 l 300 906 l 256 543 l 731 543 l 719 454 l 244 454 l 200 89 l 750 89 l 739 0 m 738 0 l 685 0 l 683 -10 q 674 -41 681 -29 q 657 -60 667 -53 q 637 -74 647 -68 q 617 -85 626 -79 q 562 -142 578 -110 q 546 -211 546 -175 q 577 -301 546 -267 q 665 -336 608 -336 q 749 -312 710 -336 q 811 -240 789 -289 q 788 -228 800 -233 q 765 -217 776 -222 q 732 -258 754 -242 q 681 -274 710 -274 q 628 -252 646 -274 q 610 -199 610 -231 q 628 -143 610 -162 q 668 -109 646 -124 q 710 -80 690 -94 q 733 -39 731 -65 l 738 0 z "},"Ě":{"ha":849,"x_min":94,"x_max":842,"o":"m 94 0 l 217 992 l 842 992 l 831 906 l 300 906 l 256 543 l 731 543 l 719 454 l 244 454 l 200 89 l 750 89 l 739 0 l 94 0 m 429 1276 l 489 1276 l 578 1124 l 704 1276 l 765 1276 q 665 1150 714 1214 q 565 1024 615 1086 l 429 1276 z "},"Ď":{"ha":990,"x_min":94,"x_max":936,"o":"m 217 992 l 447 992 q 676 952 582 992 q 827 849 769 913 q 910 706 885 786 q 936 544 936 625 q 889 320 936 421 q 764 149 842 219 q 585 39 686 78 q 374 0 483 0 l 94 0 l 217 992 m 375 90 q 554 122 469 90 q 703 211 639 153 q 804 353 767 269 q 842 540 842 436 q 816 683 842 617 q 742 797 790 749 q 624 873 693 846 q 465 900 554 900 l 301 900 l 201 90 l 375 90 m 406 1276 l 465 1276 l 554 1124 l 681 1276 l 742 1276 q 641 1150 690 1214 q 542 1024 592 1086 l 406 1276 z "},"Đ":{"ha":1000,"x_min":75,"x_max":946,"o":"m 83 564 l 174 564 l 226 992 l 457 992 q 685 952 592 992 q 837 849 779 913 q 920 706 894 786 q 946 544 946 625 q 899 320 946 421 q 774 149 851 219 q 594 39 696 78 q 383 0 493 0 l 104 0 l 165 497 l 75 497 l 83 564 m 385 90 q 564 122 479 90 q 713 211 649 153 q 814 353 776 269 q 851 540 851 436 q 826 683 851 617 q 751 797 800 749 q 633 873 703 846 q 475 900 564 900 l 311 900 l 269 564 l 489 564 l 481 497 l 261 497 l 211 90 l 385 90 z "},"Ń":{"ha":1126,"x_min":93,"x_max":1060,"o":"m 1060 992 l 932 -46 q 847 70 899 3 q 736 214 796 138 q 613 370 676 290 q 492 526 550 450 q 385 669 433 603 q 307 783 338 735 q 297 799 304 789 q 283 819 289 810 l 283 775 l 188 0 l 93 0 l 221 1038 q 305 919 254 986 q 415 778 356 853 q 536 624 474 703 q 657 470 599 544 q 765 330 715 396 q 847 215 815 264 q 857 198 850 208 q 869 178 864 188 l 871 224 l 965 992 l 1060 992 m 596 1056 l 746 1242 l 828 1242 q 742 1148 785 1194 q 656 1056 700 1101 l 596 1056 z "},"Ň":{"ha":1128,"x_min":94,"x_max":1061,"o":"m 1061 992 l 933 -46 q 849 70 900 3 q 738 214 797 138 q 615 370 678 290 q 493 526 551 450 q 387 669 435 603 q 308 783 339 735 q 298 799 306 789 q 285 819 290 810 l 285 775 l 189 0 l 94 0 l 222 1038 q 306 919 256 986 q 416 778 357 853 q 538 624 475 703 q 658 470 600 544 q 767 330 717 396 q 849 215 817 264 q 858 198 851 208 q 871 178 865 188 l 872 224 l 967 992 l 1061 992 m 503 1276 l 563 1276 l 651 1124 l 778 1276 l 839 1276 q 738 1150 788 1214 q 639 1024 689 1086 l 503 1276 z "},"Ő":{"ha":1149,"x_min":78,"x_max":1099,"o":"m 78 443 q 125 658 78 556 q 251 836 172 760 q 434 958 331 913 q 650 1003 538 1003 q 829 967 747 1003 q 971 868 911 931 q 1065 722 1031 806 q 1099 544 1099 639 q 1051 330 1099 431 q 924 153 1004 229 q 741 33 844 78 q 525 -11 638 -11 q 346 24 428 -11 q 204 121 264 60 q 111 265 144 182 q 78 443 78 349 m 172 453 q 199 307 172 375 q 275 188 226 239 q 390 108 324 138 q 536 79 457 79 q 713 115 628 79 q 862 214 797 151 q 965 360 926 276 q 1004 536 1004 443 q 976 683 1004 614 q 900 802 949 751 q 785 882 851 853 q 639 911 718 911 q 463 874 547 911 q 313 775 378 838 q 210 629 249 713 q 172 453 172 546 m 769 1053 q 844 1145 807 1099 q 919 1239 882 1192 l 1003 1239 q 917 1145 960 1192 q 831 1053 874 1099 l 769 1053 m 465 1053 l 615 1239 l 697 1239 q 611 1145 654 1192 q 525 1053 568 1099 l 465 1053 z "},"Ř":{"ha":836,"x_min":94,"x_max":760,"o":"m 94 0 l 217 992 l 457 992 q 567 976 514 992 q 660 929 619 961 q 724 849 700 897 q 747 736 747 801 q 735 647 747 692 q 700 560 724 601 q 639 485 676 519 q 550 428 601 450 q 593 336 564 396 q 654 211 622 276 q 715 88 686 146 q 760 0 744 29 l 644 0 q 606 77 632 25 q 551 188 581 129 q 494 305 522 247 q 446 400 465 363 q 417 397 432 397 q 386 397 401 397 l 238 397 l 189 0 l 94 0 m 249 488 l 396 488 q 519 513 469 488 q 597 574 568 538 q 639 650 626 610 q 651 721 651 690 q 639 788 651 756 q 601 847 626 821 q 538 888 576 872 q 449 903 500 903 l 300 903 l 249 488 m 343 1276 l 403 1276 l 492 1124 l 618 1276 l 679 1276 q 578 1150 628 1214 q 479 1024 529 1086 l 343 1276 z "},"Ů":{"ha":964,"x_min":114,"x_max":910,"o":"m 528 1151 q 542 1115 528 1131 q 579 1100 557 1100 q 623 1119 603 1100 q 643 1163 643 1138 q 628 1199 643 1185 q 593 1214 614 1214 q 548 1196 568 1214 q 528 1151 528 1178 m 479 1147 q 489 1192 479 1171 q 515 1228 499 1213 q 553 1253 532 1244 q 599 1263 575 1263 q 665 1235 639 1263 q 690 1169 690 1208 q 656 1087 690 1121 q 572 1053 621 1053 q 506 1080 532 1053 q 479 1147 479 1107 m 433 -11 q 297 13 358 -11 q 193 82 235 38 q 133 191 151 126 q 124 338 114 256 l 204 992 l 299 992 l 219 342 q 226 233 213 282 q 269 151 239 185 q 344 98 299 117 q 444 79 389 79 q 549 98 499 79 q 638 151 599 117 q 703 233 676 185 q 736 342 729 282 l 815 992 l 910 992 l 829 338 q 784 191 819 256 q 695 82 749 126 q 574 13 642 38 q 433 -11 507 -11 z "},"Ű":{"ha":964,"x_min":114,"x_max":910,"o":"m 433 -11 q 297 13 358 -11 q 193 82 235 38 q 133 191 151 126 q 124 338 114 256 l 204 992 l 299 992 l 219 342 q 226 233 213 282 q 269 151 239 185 q 344 98 299 117 q 444 79 389 79 q 549 98 499 79 q 638 151 599 117 q 703 233 676 185 q 736 342 729 282 l 815 992 l 910 992 l 829 338 q 784 191 819 256 q 695 82 749 126 q 574 13 642 38 q 433 -11 507 -11 m 663 1053 q 738 1145 701 1099 q 813 1239 775 1192 l 896 1239 q 810 1145 853 1192 q 724 1053 768 1099 l 663 1053 m 358 1053 l 508 1239 l 590 1239 q 505 1145 547 1192 q 418 1053 463 1099 l 358 1053 z "},"Ţ":{"ha":743,"x_min":124,"x_max":756,"o":"m 756 992 l 744 901 l 481 901 l 369 0 l 274 0 l 385 901 l 124 901 l 135 992 l 756 992 m 368 -29 l 213 -318 l 138 -318 q 210 -174 175 -244 q 282 -29 246 -103 l 368 -29 z "},"ŕ":{"ha":407,"x_min":46,"x_max":439,"o":"m 392 472 q 310 459 350 472 q 239 422 271 446 q 185 365 207 399 q 158 289 164 331 l 122 0 l 46 0 l 114 556 l 179 556 l 168 413 q 219 477 189 449 q 284 526 250 506 q 353 557 318 546 q 418 568 388 568 l 392 472 m 207 671 l 357 857 l 439 857 q 353 763 396 810 q 267 671 311 717 l 207 671 z "},"ă":{"ha":732,"x_min":38,"x_max":665,"o":"m 38 246 q 65 370 38 311 q 138 473 92 429 q 242 542 183 517 q 365 568 301 568 q 442 557 407 568 q 503 527 476 546 q 546 485 529 508 q 569 440 563 463 l 589 556 l 660 556 l 592 0 l 515 0 l 522 57 q 526 86 525 72 q 531 113 528 100 q 496 67 518 89 q 443 28 474 46 q 375 -1 413 10 q 294 -11 338 -11 q 189 9 236 -11 q 108 64 142 29 q 56 146 75 99 q 38 246 38 193 m 114 257 q 128 181 114 215 q 167 119 142 146 q 228 78 193 93 q 307 64 264 64 q 401 83 357 64 q 479 133 446 101 q 532 209 513 165 q 551 301 551 253 q 538 377 551 342 q 499 438 524 413 q 438 478 474 464 q 360 493 403 493 q 265 475 310 493 q 188 425 221 457 q 134 350 154 393 q 114 257 114 307 m 414 694 q 330 711 368 694 q 265 757 292 728 q 224 826 238 786 q 215 913 211 867 l 263 913 q 269 846 258 876 q 300 792 279 815 q 352 755 321 768 q 421 742 383 742 q 493 755 460 742 q 552 792 526 768 q 594 846 578 815 q 617 913 611 876 l 665 913 q 637 826 660 867 q 579 757 614 786 q 502 711 544 728 q 414 694 460 694 z "},"ĺ":{"ha":268,"x_min":49,"x_max":399,"o":"m 125 0 l 49 0 l 179 1064 l 256 1064 l 125 0 m 167 1089 l 317 1275 l 399 1275 q 313 1181 356 1228 q 226 1089 271 1135 l 167 1089 z "},"ć":{"ha":572,"x_min":38,"x_max":546,"o":"m 449 110 l 489 53 q 399 6 447 22 q 297 -11 350 -11 q 193 9 240 -11 q 111 65 146 29 q 57 147 76 100 q 38 249 38 194 q 65 372 38 314 q 138 474 92 431 q 243 543 183 518 q 368 568 303 568 q 466 551 421 568 q 546 504 511 535 q 518 476 532 489 q 490 447 504 463 q 360 493 438 493 q 265 474 310 493 q 186 424 219 456 q 133 349 153 392 q 114 256 114 306 q 128 180 114 215 q 167 119 142 144 q 228 78 193 93 q 307 64 264 64 q 383 76 347 64 q 449 110 418 88 m 306 671 l 456 857 l 538 857 q 452 763 494 810 q 365 671 410 717 l 306 671 z "},"č":{"ha":572,"x_min":38,"x_max":572,"o":"m 449 110 l 489 53 q 399 6 447 22 q 297 -11 350 -11 q 193 9 240 -11 q 111 65 146 29 q 57 147 76 100 q 38 249 38 194 q 65 372 38 314 q 138 474 92 431 q 243 543 183 518 q 368 568 303 568 q 466 551 421 568 q 546 504 511 535 q 518 476 532 489 q 490 447 504 463 q 360 493 438 493 q 265 474 310 493 q 186 424 219 456 q 133 349 153 392 q 114 256 114 306 q 128 180 114 215 q 167 119 142 144 q 228 78 193 93 q 307 64 264 64 q 383 76 347 64 q 449 110 418 88 m 236 924 l 296 924 l 385 771 l 511 924 l 572 924 q 472 797 521 861 q 372 671 422 733 l 236 924 z "},"ę":{"ha":631,"x_min":38,"x_max":600,"o":"m 325 0 l 272 0 l 271 -10 q 177 16 219 -6 q 103 72 135 38 q 55 152 72 107 q 38 249 38 197 q 65 372 38 314 q 138 474 92 431 q 242 544 183 518 q 365 569 301 569 q 518 515 457 569 q 600 372 579 460 q 491 331 551 354 q 367 284 431 308 q 240 235 303 260 q 124 190 178 211 q 190 99 142 133 q 304 64 238 64 q 390 79 349 64 q 464 121 432 94 l 514 67 q 425 15 474 35 q 324 -10 376 -6 l 325 0 m 507 392 q 449 466 489 439 q 357 493 410 493 q 265 474 308 493 q 188 423 221 456 q 135 349 154 390 q 115 261 115 307 l 115 242 q 212 279 161 260 q 314 319 263 299 q 415 358 365 339 q 507 392 465 376 m 297 -11 q 284 -11 290 -11 q 271 -10 278 -11 q 261 -41 268 -29 q 244 -60 254 -53 q 224 -74 235 -68 q 204 -85 214 -79 q 149 -142 165 -110 q 133 -211 133 -175 q 165 -301 133 -267 q 253 -336 196 -336 q 337 -312 297 -336 q 399 -240 376 -289 q 376 -228 388 -233 q 353 -217 364 -222 q 319 -258 342 -242 q 268 -274 297 -274 q 215 -252 233 -274 q 197 -199 197 -231 q 215 -142 197 -162 q 256 -108 233 -122 q 297 -80 278 -94 q 321 -39 317 -65 l 325 -10 q 311 -11 318 -11 q 297 -11 304 -11 z "},"ě":{"ha":631,"x_min":38,"x_max":600,"o":"m 514 67 q 413 10 469 31 q 297 -11 356 -11 q 193 9 240 -11 q 111 65 146 29 q 57 147 76 100 q 38 249 38 194 q 65 372 38 314 q 138 474 92 431 q 242 544 183 518 q 365 569 301 569 q 518 515 457 569 q 600 372 579 460 q 491 331 551 354 q 367 284 431 308 q 240 235 303 260 q 124 190 178 211 q 190 99 142 133 q 304 64 238 64 q 390 79 349 64 q 464 121 432 94 l 514 67 m 507 392 q 449 466 489 439 q 357 493 410 493 q 265 474 308 493 q 188 423 221 456 q 135 349 154 390 q 115 261 115 307 l 115 242 q 212 279 161 260 q 314 319 263 299 q 415 358 365 339 q 507 392 465 376 m 225 924 l 285 924 l 374 771 l 500 924 l 561 924 q 460 797 510 861 q 361 671 411 733 l 225 924 z "},"ď":{"ha":733,"x_min":39,"x_max":892,"o":"m 39 246 q 65 373 39 314 q 136 475 92 432 q 239 543 181 518 q 363 568 297 568 q 440 557 406 568 q 501 528 475 546 q 545 486 528 510 q 571 439 563 463 l 647 1064 l 724 1064 l 593 0 l 517 0 l 524 57 q 529 87 526 72 q 533 115 532 101 q 436 26 499 64 q 290 -11 374 -11 q 185 9 232 -11 q 106 64 139 29 q 56 145 74 99 q 39 246 39 192 m 115 256 q 129 180 115 215 q 169 119 143 144 q 230 78 194 93 q 308 64 265 64 q 403 83 358 64 q 481 133 447 101 q 533 208 514 165 q 553 301 553 251 q 539 377 553 342 q 499 438 525 413 q 438 478 474 464 q 361 493 403 493 q 266 475 311 493 q 188 424 221 457 q 135 349 154 392 q 115 256 115 306 m 800 796 l 764 826 q 815 896 797 854 q 831 986 833 938 l 888 996 q 868 885 892 938 q 800 796 844 833 z "},"đ":{"ha":733,"x_min":39,"x_max":792,"o":"m 39 246 q 65 373 39 314 q 136 475 92 432 q 239 543 181 518 q 363 568 297 568 q 440 557 406 568 q 501 528 475 546 q 545 486 528 510 q 571 439 563 463 l 621 847 l 697 847 l 593 0 l 517 0 l 524 57 q 529 87 526 72 q 533 115 532 101 q 436 26 499 64 q 290 -11 374 -11 q 185 9 232 -11 q 106 64 139 29 q 56 145 74 99 q 39 246 39 192 m 115 256 q 129 180 115 215 q 169 119 143 144 q 230 78 194 93 q 308 64 265 64 q 403 83 358 64 q 481 133 447 101 q 533 208 514 165 q 553 301 553 251 q 539 377 553 342 q 499 438 525 413 q 438 478 474 464 q 361 493 403 493 q 266 475 311 493 q 188 424 221 457 q 135 349 154 392 q 115 256 115 306 m 378 847 l 621 847 l 629 914 l 386 914 l 378 847 m 647 1064 l 724 1064 l 706 914 l 629 914 l 647 1064 m 783 847 l 792 914 l 706 914 l 697 847 l 783 847 z "},"ń":{"ha":667,"x_min":46,"x_max":588,"o":"m 114 556 l 179 556 l 168 413 q 273 525 208 482 q 421 568 338 568 q 545 522 503 568 q 581 401 588 476 l 532 0 l 456 0 l 501 375 q 478 456 506 422 q 390 492 451 489 q 306 477 346 492 q 235 436 267 463 q 184 374 204 410 q 158 294 164 338 l 122 0 l 46 0 l 114 556 m 331 671 l 481 857 l 563 857 q 477 763 519 810 q 390 671 435 717 l 331 671 z "},"ň":{"ha":667,"x_min":46,"x_max":588,"o":"m 114 556 l 179 556 l 168 413 q 273 525 208 482 q 421 568 338 568 q 545 522 503 568 q 581 401 588 476 l 532 0 l 456 0 l 501 375 q 478 456 506 422 q 390 492 451 489 q 306 477 346 492 q 235 436 267 463 q 184 374 204 410 q 158 294 164 338 l 122 0 l 46 0 l 114 556 m 240 924 l 300 924 l 389 771 l 515 924 l 576 924 q 476 797 525 861 q 376 671 426 733 l 240 924 z "},"ő":{"ha":689,"x_min":38,"x_max":710,"o":"m 38 247 q 65 372 38 314 q 137 474 92 431 q 242 544 182 518 q 368 569 301 569 q 472 549 425 569 q 553 494 519 529 q 606 410 588 458 q 625 308 625 363 q 599 185 625 243 q 527 83 572 126 q 422 14 482 39 q 296 -11 363 -11 q 193 8 240 -11 q 111 62 146 28 q 57 143 76 96 q 38 247 38 190 m 114 256 q 128 180 114 215 q 168 119 143 144 q 228 78 193 93 q 304 64 263 64 q 397 83 353 64 q 474 133 440 101 q 527 208 507 165 q 547 300 547 251 q 533 376 547 340 q 493 437 518 411 q 433 478 468 463 q 357 493 399 493 q 265 474 308 493 q 188 423 221 456 q 134 347 154 390 q 114 256 114 304 m 476 671 q 552 763 515 717 q 626 857 589 810 l 710 857 q 624 763 667 810 q 538 671 582 717 l 476 671 m 172 671 l 322 857 l 404 857 q 319 763 361 810 q 232 671 276 717 l 172 671 z "},"ř":{"ha":407,"x_min":46,"x_max":468,"o":"m 392 472 q 310 459 350 472 q 239 422 271 446 q 185 365 207 399 q 158 289 164 331 l 122 0 l 46 0 l 114 556 l 179 556 l 168 413 q 219 477 189 449 q 284 526 250 506 q 353 557 318 546 q 418 568 388 568 l 392 472 m 132 924 l 192 924 l 281 771 l 407 924 l 468 924 q 367 797 417 861 q 268 671 318 733 l 132 924 z "},"ů":{"ha":665,"x_min":53,"x_max":594,"o":"m 318 704 q 333 668 318 683 q 368 653 347 653 q 413 672 394 653 q 432 715 432 690 q 418 752 432 738 q 382 767 404 767 q 338 749 357 767 q 318 704 318 731 m 268 700 q 278 744 268 724 q 304 781 288 765 q 342 806 321 797 q 388 815 364 815 q 455 788 428 815 q 482 721 482 761 q 472 676 482 697 q 446 640 463 656 q 408 615 429 624 q 363 606 386 606 q 295 633 322 606 q 268 700 268 660 m 525 -7 l 461 -7 l 472 143 q 369 31 435 74 q 219 -12 304 -12 q 95 33 138 -12 q 60 154 53 79 l 108 556 l 185 556 l 139 181 q 163 100 136 133 q 250 64 189 67 q 333 78 293 64 q 403 119 372 93 q 456 181 435 144 q 482 260 476 217 l 518 556 l 594 556 l 525 -7 z "},"ű":{"ha":667,"x_min":53,"x_max":696,"o":"m 525 -7 l 461 -7 l 472 143 q 369 31 435 74 q 219 -12 304 -12 q 95 33 138 -12 q 60 154 53 79 l 108 556 l 185 556 l 139 181 q 163 100 136 133 q 250 64 189 67 q 333 78 293 64 q 403 119 372 93 q 456 181 435 144 q 482 260 476 217 l 518 556 l 594 556 l 525 -7 m 463 671 q 538 763 501 717 q 613 857 575 810 l 696 857 q 610 763 653 810 q 524 671 568 717 l 463 671 m 158 671 l 308 857 l 390 857 q 305 763 347 810 q 218 671 263 717 l 158 671 z "},"ţ":{"ha":394,"x_min":-50,"x_max":397,"o":"m 186 799 l 263 799 l 232 550 l 397 550 l 389 481 l 224 481 l 164 0 l 88 0 l 147 481 l 36 481 l 44 550 l 156 550 l 186 799 m 181 -29 l 25 -318 l -50 -318 q 23 -174 -12 -244 q 94 -29 58 -103 l 181 -29 z "},"Ħ":{"ha":1063,"x_min":83,"x_max":1063,"o":"m 107 0 l 193 704 l 83 704 l 90 758 l 200 758 l 228 992 l 324 992 l 296 758 l 860 758 l 888 992 l 985 992 l 957 758 l 1063 758 l 1056 704 l 950 704 q 924 506 938 610 q 899 307 911 403 q 877 131 888 211 q 861 0 867 50 l 767 0 l 822 454 l 258 454 l 203 0 l 107 0 m 833 544 l 853 704 l 289 704 l 269 544 l 833 544 z "},"Ĥ":{"ha":1040,"x_min":94,"x_max":974,"o":"m 94 0 l 217 992 l 313 992 l 257 544 l 821 544 l 876 992 l 974 992 q 958 865 968 943 q 937 692 949 786 q 912 497 925 599 q 887 301 899 394 q 865 128 875 207 q 849 0 854 49 l 754 0 l 810 454 l 246 454 l 190 0 l 94 0 m 635 1308 q 702 1182 668 1246 q 771 1056 736 1118 l 710 1056 q 690 1092 701 1072 q 666 1132 678 1111 q 642 1173 654 1153 q 622 1208 631 1193 q 593 1173 610 1193 q 558 1132 576 1153 q 524 1092 540 1111 q 494 1056 507 1072 l 435 1056 l 635 1308 z "},"İ":{"ha":379,"x_min":94,"x_max":333,"o":"m 217 992 l 313 992 l 190 0 l 94 0 l 217 992 m 222 1110 q 243 1153 222 1136 q 286 1171 264 1171 q 319 1157 306 1171 q 333 1121 333 1143 q 315 1076 333 1093 q 272 1060 296 1060 q 238 1073 253 1060 q 222 1110 222 1086 z "},"Ğ":{"ha":949,"x_min":76,"x_max":924,"o":"m 865 454 l 818 60 q 682 8 757 26 q 528 -11 607 -11 q 338 22 421 -11 q 196 115 254 56 q 107 254 138 174 q 76 428 76 335 q 125 656 76 550 q 254 838 174 761 q 440 959 335 915 q 658 1003 546 1003 q 800 985 729 1003 q 924 932 871 967 l 867 854 q 764 898 824 882 q 646 914 704 914 q 470 877 556 914 q 319 776 385 840 q 213 627 253 713 q 172 446 172 542 q 198 304 172 371 q 271 188 224 238 q 386 108 318 138 q 539 79 454 79 q 637 90 585 79 q 738 121 689 100 l 768 371 l 554 371 l 564 454 l 865 454 m 642 1054 q 557 1071 596 1054 q 491 1117 518 1088 q 451 1186 464 1146 q 442 1272 438 1226 l 489 1272 q 495 1206 485 1236 q 526 1151 506 1175 q 578 1115 547 1128 q 647 1101 610 1101 q 719 1115 686 1101 q 778 1151 753 1128 q 821 1206 804 1175 q 843 1272 838 1236 l 892 1272 q 863 1186 886 1226 q 806 1117 840 1146 q 730 1071 772 1088 q 642 1054 688 1054 z "},"Ĵ":{"ha":414,"x_min":-121,"x_max":476,"o":"m -121 -203 l -110 -114 q -16 -92 -60 -111 q 63 -39 28 -74 q 121 47 97 -4 q 153 165 144 99 l 254 992 l 349 992 l 247 161 q 203 8 236 75 q 122 -106 171 -60 q 10 -176 72 -151 q -121 -203 -53 -201 m 340 1308 q 408 1182 374 1246 q 476 1056 442 1118 l 415 1056 q 395 1092 407 1072 q 372 1132 383 1111 q 348 1173 360 1153 q 328 1208 336 1193 q 299 1173 315 1193 q 264 1132 282 1153 q 229 1092 246 1111 q 200 1056 213 1072 l 140 1056 l 340 1308 z "},"ħ":{"ha":667,"x_min":46,"x_max":588,"o":"m 176 1064 l 253 1064 l 224 829 l 438 829 l 432 775 l 218 775 l 174 421 q 272 526 210 485 q 418 568 335 567 q 544 522 501 568 q 581 401 588 476 l 532 0 l 456 0 l 501 375 q 478 456 506 422 q 390 492 451 489 q 306 477 346 492 q 235 436 267 463 q 184 374 204 410 q 158 294 164 338 l 122 0 l 46 0 l 142 775 l 60 775 l 65 829 l 147 829 l 176 1064 z "},"ĥ":{"ha":667,"x_min":46,"x_max":640,"o":"m 176 1064 l 253 1064 l 174 421 q 272 526 210 485 q 418 568 335 567 q 544 522 501 568 q 581 401 588 476 l 532 0 l 456 0 l 501 375 q 478 456 506 422 q 390 492 451 489 q 306 477 346 492 q 235 436 267 463 q 184 374 204 410 q 158 294 164 338 l 122 0 l 46 0 l 176 1064 m 504 1308 q 572 1182 538 1246 q 640 1056 606 1118 l 579 1056 q 559 1092 571 1072 q 535 1132 547 1111 q 512 1173 524 1153 q 492 1208 500 1193 q 463 1173 479 1193 q 428 1132 446 1153 q 393 1092 410 1111 q 364 1056 376 1072 l 304 1056 l 504 1308 z "},"ı":{"ha":263,"x_min":46,"x_max":190,"o":"m 122 0 l 46 0 l 114 556 l 190 556 l 122 0 z "},"ğ":{"ha":733,"x_min":22,"x_max":667,"o":"m 39 246 q 65 372 39 314 q 136 474 92 431 q 239 543 181 518 q 361 568 297 568 q 443 556 407 568 q 506 524 479 543 q 549 483 532 506 q 571 440 565 461 q 580 497 574 468 q 590 556 586 526 l 661 556 l 594 10 q 563 -101 588 -50 q 498 -188 539 -151 q 399 -246 457 -225 q 265 -267 340 -267 q 131 -237 186 -267 q 22 -151 76 -208 l 78 -99 q 173 -172 126 -151 q 272 -193 219 -193 q 446 -138 389 -193 q 515 6 503 -83 q 519 25 518 17 q 524 57 519 33 q 526 70 524 61 q 529 90 528 79 q 533 109 531 100 q 535 121 535 118 q 440 28 503 68 q 292 -11 376 -11 q 188 8 235 -11 q 108 63 142 28 q 57 144 75 97 q 39 246 39 192 m 115 256 q 129 180 115 215 q 169 119 143 144 q 230 78 194 93 q 308 64 265 64 q 403 83 358 64 q 481 133 447 101 q 533 208 514 165 q 553 301 553 251 q 539 377 553 342 q 499 438 525 413 q 438 478 474 464 q 361 493 403 493 q 266 475 311 493 q 188 424 221 457 q 135 349 154 392 q 115 256 115 306 m 415 694 q 331 711 369 694 q 266 757 293 728 q 226 826 239 786 q 217 913 213 867 l 264 913 q 270 846 260 876 q 301 792 281 815 q 353 755 322 768 q 422 742 385 742 q 494 755 461 742 q 553 792 528 768 q 596 846 579 815 q 618 913 613 876 l 667 913 q 638 826 661 867 q 581 757 615 786 q 503 711 546 728 q 415 694 461 694 z "},"ĵ":{"ha":263,"x_min":-60,"x_max":335,"o":"m -12 -267 q -60 -211 -36 -240 q 10 -124 -18 -175 q 46 -4 38 -74 l 114 556 l 190 556 l 122 -4 q 76 -158 111 -92 q -12 -267 40 -224 m 197 922 q 265 796 232 860 q 335 669 299 732 l 274 669 q 253 706 265 686 q 230 746 242 725 q 206 787 218 767 q 185 822 194 807 q 156 787 172 807 q 122 746 139 767 q 88 706 104 725 q 58 669 71 686 l -1 669 l 197 922 z "},"Ċ":{"ha":893,"x_min":78,"x_max":910,"o":"m 819 67 q 694 14 771 39 q 521 -11 618 -11 q 333 24 415 -11 q 194 120 251 60 q 108 262 138 181 q 78 433 78 343 q 126 658 78 554 q 253 839 174 763 q 438 959 333 915 q 656 1003 542 1003 q 731 998 693 1003 q 803 983 769 993 q 864 961 836 974 q 910 933 892 949 q 897 915 901 922 q 887 901 892 908 q 875 883 882 893 q 858 858 868 874 q 760 900 818 886 q 649 914 703 914 q 468 876 554 914 q 317 776 382 839 q 213 629 251 713 q 175 454 175 546 q 200 314 175 381 q 272 197 225 247 q 385 116 318 146 q 536 86 453 86 q 615 92 576 86 q 686 109 653 99 q 745 131 719 119 q 786 153 771 142 l 819 67 m 588 1104 q 608 1148 588 1131 q 650 1165 628 1165 q 683 1151 669 1165 q 697 1115 697 1138 q 678 1071 697 1088 q 636 1054 660 1054 q 602 1067 617 1054 q 588 1104 588 1081 z "},"Ĉ":{"ha":893,"x_min":78,"x_max":910,"o":"m 819 67 q 694 14 771 39 q 521 -11 618 -11 q 333 24 415 -11 q 194 120 251 60 q 108 262 138 181 q 78 433 78 343 q 126 658 78 554 q 253 839 174 763 q 438 959 333 915 q 656 1003 542 1003 q 731 998 693 1003 q 803 983 769 993 q 864 961 836 974 q 910 933 892 949 q 897 915 901 922 q 887 901 892 908 q 875 883 882 893 q 858 858 868 874 q 760 900 818 886 q 649 914 703 914 q 468 876 554 914 q 317 776 382 839 q 213 629 251 713 q 175 454 175 546 q 200 314 175 381 q 272 197 225 247 q 385 116 318 146 q 536 86 453 86 q 615 92 576 86 q 686 109 653 99 q 745 131 719 119 q 786 153 771 142 l 819 67 m 675 1308 q 743 1182 710 1246 q 813 1056 776 1118 l 751 1056 q 731 1092 743 1072 q 708 1132 719 1111 q 684 1173 696 1153 q 664 1208 672 1193 q 635 1173 651 1193 q 600 1132 618 1153 q 565 1092 582 1111 q 536 1056 549 1072 l 476 1056 l 675 1308 z "},"Ġ":{"ha":949,"x_min":76,"x_max":924,"o":"m 865 454 l 818 60 q 682 8 757 26 q 528 -11 607 -11 q 338 22 421 -11 q 196 115 254 56 q 107 254 138 174 q 76 428 76 335 q 125 656 76 550 q 254 838 174 761 q 440 959 335 915 q 658 1003 546 1003 q 800 985 729 1003 q 924 932 871 967 l 867 854 q 764 898 824 882 q 646 914 704 914 q 470 877 556 914 q 319 776 385 840 q 213 627 253 713 q 172 446 172 542 q 198 304 172 371 q 271 188 224 238 q 386 108 318 138 q 539 79 454 79 q 637 90 585 79 q 738 121 689 100 l 768 371 l 554 371 l 564 454 l 865 454 m 576 1104 q 597 1148 576 1131 q 639 1165 617 1165 q 673 1151 658 1165 q 688 1115 688 1138 q 669 1071 688 1088 q 626 1054 650 1054 q 592 1067 607 1054 q 576 1104 576 1081 z "},"Ĝ":{"ha":949,"x_min":76,"x_max":924,"o":"m 865 454 l 818 60 q 682 8 757 26 q 528 -11 607 -11 q 338 22 421 -11 q 196 115 254 56 q 107 254 138 174 q 76 428 76 335 q 125 656 76 550 q 254 838 174 761 q 440 959 335 915 q 658 1003 546 1003 q 800 985 729 1003 q 924 932 871 967 l 867 854 q 764 898 824 882 q 646 914 704 914 q 470 877 556 914 q 319 776 385 840 q 213 627 253 713 q 172 446 172 542 q 198 304 172 371 q 271 188 224 238 q 386 108 318 138 q 539 79 454 79 q 637 90 585 79 q 738 121 689 100 l 768 371 l 554 371 l 564 454 l 865 454 m 681 1308 q 749 1182 715 1246 q 818 1056 782 1118 l 757 1056 q 735 1092 747 1072 q 712 1132 724 1111 q 688 1173 700 1153 q 668 1208 676 1193 q 639 1173 656 1193 q 605 1132 622 1153 q 571 1092 588 1111 q 542 1056 554 1072 l 482 1056 l 681 1308 z "},"Ŭ":{"ha":964,"x_min":114,"x_max":910,"o":"m 433 -11 q 297 13 358 -11 q 193 82 235 38 q 133 191 151 126 q 124 338 114 256 l 204 992 l 299 992 l 219 342 q 226 233 213 282 q 269 151 239 185 q 344 98 299 117 q 444 79 389 79 q 549 98 499 79 q 638 151 599 117 q 703 233 676 185 q 736 342 729 282 l 815 992 l 910 992 l 829 338 q 784 191 819 256 q 695 82 749 126 q 574 13 642 38 q 433 -11 507 -11 m 572 1054 q 488 1071 526 1054 q 422 1117 449 1088 q 381 1186 394 1146 q 372 1272 368 1226 l 419 1272 q 426 1206 415 1236 q 457 1151 436 1175 q 509 1115 478 1128 q 578 1101 540 1101 q 650 1115 617 1101 q 709 1151 683 1128 q 751 1206 735 1175 q 774 1272 768 1236 l 822 1272 q 794 1186 817 1226 q 737 1117 771 1146 q 660 1071 703 1088 q 572 1054 618 1054 z "},"Ŝ":{"ha":769,"x_min":14,"x_max":732,"o":"m 732 940 l 688 864 q 584 897 642 883 q 471 911 526 911 q 375 897 418 911 q 301 860 332 883 q 254 805 271 836 q 238 739 238 774 q 272 660 238 690 q 356 607 306 631 q 466 562 407 583 q 576 508 525 540 q 660 427 626 475 q 694 304 694 379 q 668 175 694 233 q 592 76 642 117 q 470 12 542 35 q 310 -11 399 -11 q 203 -1 251 -11 q 119 24 156 10 q 56 54 82 39 q 14 81 31 69 l 67 164 q 181 107 113 132 q 319 82 250 82 q 408 94 360 82 q 500 131 457 106 q 572 196 543 156 q 600 294 600 236 q 566 390 600 353 q 481 453 532 426 q 370 501 429 479 q 260 550 311 522 q 174 618 208 578 q 140 721 140 658 q 164 824 140 775 q 231 913 188 874 q 336 974 275 951 q 472 997 397 997 q 551 991 511 997 q 627 976 592 985 q 690 957 663 967 q 732 940 718 947 m 508 1308 q 576 1182 542 1246 q 644 1056 610 1118 l 583 1056 q 563 1092 575 1072 q 540 1132 551 1111 q 516 1173 528 1153 q 496 1208 504 1193 q 467 1173 483 1193 q 432 1132 450 1153 q 397 1092 414 1111 q 368 1056 381 1072 l 308 1056 l 508 1308 z "},"ċ":{"ha":572,"x_min":38,"x_max":546,"o":"m 449 110 l 489 53 q 399 6 447 22 q 297 -11 350 -11 q 193 9 240 -11 q 111 65 146 29 q 57 147 76 100 q 38 249 38 194 q 65 372 38 314 q 138 474 92 431 q 243 543 183 518 q 368 568 303 568 q 466 551 421 568 q 546 504 511 535 q 518 476 532 489 q 490 447 504 463 q 360 493 438 493 q 265 474 310 493 q 186 424 219 456 q 133 349 153 392 q 114 256 114 306 q 128 180 114 215 q 167 119 142 144 q 228 78 193 93 q 307 64 264 64 q 383 76 347 64 q 449 110 418 88 m 338 751 q 357 795 338 778 q 400 813 376 813 q 433 799 419 813 q 447 763 447 785 q 428 718 447 735 q 386 701 410 701 q 352 715 367 701 q 338 751 338 728 z "},"ĉ":{"ha":572,"x_min":38,"x_max":546,"o":"m 449 110 l 489 53 q 399 6 447 22 q 297 -11 350 -11 q 193 9 240 -11 q 111 65 146 29 q 57 147 76 100 q 38 249 38 194 q 65 372 38 314 q 138 474 92 431 q 243 543 183 518 q 368 568 303 568 q 466 551 421 568 q 546 504 511 535 q 518 476 532 489 q 490 447 504 463 q 360 493 438 493 q 265 474 310 493 q 186 424 219 456 q 133 349 153 392 q 114 256 114 306 q 128 180 114 215 q 167 119 142 144 q 228 78 193 93 q 307 64 264 64 q 383 76 347 64 q 449 110 418 88 m 403 922 q 470 796 436 860 q 539 669 504 732 l 478 669 q 458 706 469 686 q 434 746 446 725 q 410 787 422 767 q 390 822 399 807 q 361 787 378 807 q 326 746 344 767 q 292 706 308 725 q 263 669 275 686 l 203 669 l 403 922 z "},"ġ":{"ha":733,"x_min":22,"x_max":661,"o":"m 39 246 q 65 372 39 314 q 136 474 92 431 q 239 543 181 518 q 361 568 297 568 q 443 556 407 568 q 506 524 479 543 q 549 483 532 506 q 571 440 565 461 q 580 497 574 468 q 590 556 586 526 l 661 556 l 594 10 q 563 -101 588 -50 q 498 -188 539 -151 q 399 -246 457 -225 q 265 -267 340 -267 q 131 -237 186 -267 q 22 -151 76 -208 l 78 -99 q 173 -172 126 -151 q 272 -193 219 -193 q 446 -138 389 -193 q 515 6 503 -83 q 519 25 518 17 q 524 57 519 33 q 526 70 524 61 q 529 90 528 79 q 533 109 531 100 q 535 121 535 118 q 440 28 503 68 q 292 -11 376 -11 q 188 8 235 -11 q 108 63 142 28 q 57 144 75 97 q 39 246 39 192 m 115 256 q 129 180 115 215 q 169 119 143 144 q 230 78 194 93 q 308 64 265 64 q 403 83 358 64 q 481 133 447 101 q 533 208 514 165 q 553 301 553 251 q 539 377 553 342 q 499 438 525 413 q 438 478 474 464 q 361 493 403 493 q 266 475 311 493 q 188 424 221 457 q 135 349 154 392 q 115 256 115 306 m 367 751 q 386 795 367 778 q 429 813 406 813 q 463 799 449 813 q 476 763 476 785 q 458 718 476 735 q 415 701 439 701 q 381 715 396 701 q 367 751 367 728 z "},"ĝ":{"ha":733,"x_min":22,"x_max":661,"o":"m 39 246 q 65 372 39 314 q 136 474 92 431 q 239 543 181 518 q 361 568 297 568 q 443 556 407 568 q 506 524 479 543 q 549 483 532 506 q 571 440 565 461 q 580 497 574 468 q 590 556 586 526 l 661 556 l 594 10 q 563 -101 588 -50 q 498 -188 539 -151 q 399 -246 457 -225 q 265 -267 340 -267 q 131 -237 186 -267 q 22 -151 76 -208 l 78 -99 q 173 -172 126 -151 q 272 -193 219 -193 q 446 -138 389 -193 q 515 6 503 -83 q 519 25 518 17 q 524 57 519 33 q 526 70 524 61 q 529 90 528 79 q 533 109 531 100 q 535 121 535 118 q 440 28 503 68 q 292 -11 376 -11 q 188 8 235 -11 q 108 63 142 28 q 57 144 75 97 q 39 246 39 192 m 115 256 q 129 180 115 215 q 169 119 143 144 q 230 78 194 93 q 308 64 265 64 q 403 83 358 64 q 481 133 447 101 q 533 208 514 165 q 553 301 553 251 q 539 377 553 342 q 499 438 525 413 q 438 478 474 464 q 361 493 403 493 q 266 475 311 493 q 188 424 221 457 q 135 349 154 392 q 115 256 115 306 m 424 924 q 491 797 457 861 q 560 671 525 733 l 499 671 q 478 707 490 688 q 455 747 467 726 q 431 788 443 768 q 411 824 419 808 q 382 788 399 808 q 347 747 365 768 q 313 707 329 726 q 283 671 296 688 l 224 671 l 424 924 z "},"ŭ":{"ha":665,"x_min":53,"x_max":621,"o":"m 525 -7 l 461 -7 l 472 143 q 369 31 435 74 q 219 -12 304 -12 q 95 33 138 -12 q 60 154 53 79 l 108 556 l 185 556 l 139 181 q 163 100 136 133 q 250 64 189 67 q 333 78 293 64 q 403 119 372 93 q 456 181 435 144 q 482 260 476 217 l 518 556 l 594 556 l 525 -7 m 369 694 q 285 711 324 694 q 220 757 247 728 q 180 826 193 786 q 171 913 167 867 l 218 913 q 224 846 214 876 q 256 792 235 815 q 308 755 276 768 q 376 742 339 742 q 449 755 415 742 q 508 792 482 768 q 550 846 533 815 q 572 913 567 876 l 621 913 q 592 826 615 867 q 535 757 569 786 q 458 711 500 728 q 369 694 415 694 z "},"ŝ":{"ha":460,"x_min":10,"x_max":429,"o":"m 401 503 l 354 449 q 313 477 343 464 q 249 490 282 490 q 216 486 233 490 q 183 472 199 482 q 158 445 168 461 q 149 406 149 429 q 166 360 149 378 q 209 331 183 343 q 265 306 235 318 q 320 276 294 293 q 363 235 346 260 q 381 171 381 210 q 367 101 381 133 q 326 43 353 68 q 263 3 300 18 q 178 -11 225 -11 q 83 6 131 -11 q 10 58 36 22 q 26 74 17 64 q 43 92 35 83 q 57 106 51 100 q 64 113 63 113 q 80 97 68 106 q 109 81 92 89 q 147 68 126 74 q 186 63 167 63 q 225 68 204 63 q 263 85 246 74 q 292 116 281 97 q 304 160 304 135 q 287 205 304 188 q 243 235 269 222 q 187 259 217 247 q 131 288 157 271 q 87 329 104 304 q 69 394 69 354 q 88 473 69 440 q 133 526 106 506 q 192 556 160 546 q 256 565 225 565 q 333 550 292 565 q 401 503 374 535 m 292 924 q 360 797 326 861 q 429 671 394 733 l 368 671 q 348 707 360 688 q 324 747 336 726 q 301 788 313 768 q 281 824 289 808 q 251 788 268 808 q 217 747 235 768 q 182 707 199 726 q 153 671 165 688 l 93 671 l 292 924 z "},"œ":{"ha":957,"x_min":38,"x_max":928,"o":"m 842 67 q 740 10 797 31 q 625 -11 683 -11 q 539 1 579 -11 q 467 38 499 14 q 385 1 429 14 q 296 -11 342 -11 q 193 8 240 -11 q 111 62 146 28 q 57 143 76 96 q 38 247 38 190 q 65 372 38 314 q 137 474 92 431 q 242 544 182 518 q 368 569 301 569 q 454 556 414 569 q 526 519 494 543 q 606 556 564 543 q 693 569 649 569 q 846 515 785 569 q 928 372 907 460 q 819 331 879 354 q 694 284 758 308 q 568 235 631 260 q 451 190 506 211 q 517 99 469 133 q 632 64 565 64 q 718 79 676 64 q 792 121 760 94 l 842 67 m 357 493 q 265 474 308 493 q 188 423 221 456 q 134 347 154 390 q 114 256 114 304 q 128 180 114 215 q 168 119 143 144 q 228 78 193 93 q 304 64 263 64 q 413 90 363 64 q 377 163 389 122 q 365 247 365 204 q 390 365 365 310 q 458 465 415 421 q 411 485 438 478 q 357 493 385 493 m 835 392 q 777 466 817 439 q 685 493 738 493 q 592 474 636 493 q 515 423 549 456 q 463 349 482 390 q 443 261 443 307 l 443 242 q 540 279 489 260 q 642 319 590 299 q 743 358 693 339 q 835 392 793 376 z "},"Œ":{"ha":1319,"x_min":78,"x_max":1313,"o":"m 525 -11 q 346 24 428 -11 q 204 121 264 60 q 111 265 144 182 q 78 443 78 349 q 125 658 78 556 q 251 836 172 760 q 434 958 331 913 q 650 1003 538 1003 q 754 992 701 1003 l 1313 992 l 1301 906 l 814 906 l 769 543 l 1201 543 l 1190 454 l 758 454 l 714 89 l 1221 89 l 1210 0 l 633 0 q 579 -8 606 -6 q 525 -11 553 -11 m 639 911 q 463 874 547 911 q 313 775 378 838 q 210 629 249 713 q 172 453 172 546 q 199 307 172 375 q 275 188 226 239 q 390 108 324 138 q 536 79 457 79 q 577 81 557 79 q 618 86 597 82 l 718 903 q 639 911 678 911 z "},"Ÿ":{"ha":882,"x_min":99,"x_max":932,"o":"m 485 346 l 442 0 l 346 0 l 389 346 q 351 427 374 376 q 300 540 328 478 q 243 669 272 601 q 186 798 214 736 q 135 910 158 860 q 99 992 113 961 l 206 992 q 253 886 225 950 q 314 751 282 822 q 378 606 346 679 q 436 471 410 532 l 447 429 l 469 471 q 560 606 511 532 q 658 751 610 679 q 750 886 707 822 q 824 992 793 950 l 932 992 l 485 346 m 353 1124 q 372 1168 353 1150 q 415 1186 392 1186 q 449 1172 435 1186 q 464 1135 464 1157 q 444 1090 464 1107 q 401 1072 425 1072 q 367 1086 382 1072 q 353 1124 353 1100 m 601 1124 q 621 1168 601 1150 q 664 1186 640 1186 q 698 1172 683 1186 q 713 1135 713 1157 q 693 1090 713 1107 q 650 1072 674 1072 q 616 1086 631 1072 q 601 1124 601 1100 z "},"Ẽ":{"ha":849,"x_min":94,"x_max":842,"o":"m 94 0 l 217 992 l 842 992 l 831 906 l 300 906 l 256 543 l 731 543 l 719 454 l 244 454 l 200 89 l 750 89 l 739 0 l 94 0 m 554 1119 q 519 1151 535 1143 q 485 1158 504 1158 q 460 1156 474 1158 q 434 1145 447 1153 q 410 1124 421 1138 q 394 1089 400 1110 l 350 1092 q 369 1140 354 1119 q 402 1176 383 1161 q 442 1197 421 1190 q 485 1204 464 1204 q 540 1192 517 1204 q 583 1156 564 1179 q 618 1124 603 1132 q 653 1117 633 1117 q 676 1119 663 1117 q 703 1130 690 1122 q 727 1151 717 1138 q 743 1186 738 1165 l 789 1183 q 769 1135 783 1156 q 736 1099 756 1114 q 695 1078 717 1085 q 653 1071 674 1071 q 597 1084 621 1071 q 554 1119 574 1097 z "},"Ŗ":{"ha":836,"x_min":94,"x_max":760,"o":"m 94 0 l 217 992 l 457 992 q 567 976 514 992 q 660 929 619 961 q 724 849 700 897 q 747 736 747 801 q 735 647 747 692 q 700 560 724 601 q 639 485 676 519 q 550 428 601 450 q 593 336 564 396 q 654 211 622 276 q 715 88 686 146 q 760 0 744 29 l 644 0 q 606 77 632 25 q 551 188 581 129 q 494 305 522 247 q 446 400 465 363 q 417 397 432 397 q 386 397 401 397 l 238 397 l 189 0 l 94 0 m 249 488 l 396 488 q 519 513 469 488 q 597 574 568 538 q 639 650 626 610 q 651 721 651 690 q 639 788 651 756 q 601 847 626 821 q 538 888 576 872 q 449 903 500 903 l 300 903 l 249 488 m 419 -29 l 265 -318 l 190 -318 q 262 -174 226 -244 q 333 -29 297 -103 l 419 -29 z "},"Ĩ":{"ha":379,"x_min":61,"x_max":500,"o":"m 217 992 l 313 992 l 190 0 l 94 0 l 217 992 m 267 1101 q 232 1133 247 1125 q 197 1140 217 1140 q 173 1138 186 1140 q 147 1127 160 1135 q 123 1106 133 1119 q 107 1071 113 1092 l 61 1074 q 81 1122 67 1101 q 114 1158 94 1143 q 155 1179 133 1172 q 197 1186 176 1186 q 253 1174 229 1186 q 296 1138 276 1161 q 330 1106 315 1114 q 364 1099 344 1099 q 388 1101 374 1099 q 415 1112 401 1104 q 438 1133 428 1119 q 454 1168 449 1147 l 500 1165 q 481 1117 496 1138 q 447 1081 467 1096 q 406 1060 428 1067 q 364 1053 385 1053 q 309 1066 332 1053 q 267 1101 286 1079 z "},"Ļ":{"ha":779,"x_min":94,"x_max":728,"o":"m 94 0 l 217 992 l 311 992 l 200 90 l 728 90 l 717 0 l 94 0 m 486 -29 l 332 -318 l 257 -318 q 328 -174 293 -244 q 400 -29 364 -103 l 486 -29 z "},"Ē":{"ha":849,"x_min":94,"x_max":842,"o":"m 94 0 l 217 992 l 842 992 l 831 906 l 300 906 l 256 543 l 731 543 l 719 454 l 244 454 l 200 89 l 750 89 l 739 0 l 94 0 m 382 1060 l 388 1114 l 710 1114 l 704 1060 l 382 1060 z "},"Ģ":{"ha":949,"x_min":76,"x_max":924,"o":"m 865 454 l 818 60 q 682 8 757 26 q 528 -11 607 -11 q 338 22 421 -11 q 196 115 254 56 q 107 254 138 174 q 76 428 76 335 q 125 656 76 550 q 254 838 174 761 q 440 959 335 915 q 658 1003 546 1003 q 800 985 729 1003 q 924 932 871 967 l 867 854 q 764 898 824 882 q 646 914 704 914 q 470 877 556 914 q 319 776 385 840 q 213 627 253 713 q 172 446 172 542 q 198 304 172 371 q 271 188 224 238 q 386 108 318 138 q 539 79 454 79 q 637 90 585 79 q 738 121 689 100 l 768 371 l 554 371 l 564 454 l 865 454 m 539 -29 l 383 -318 l 308 -318 q 381 -174 346 -244 q 453 -29 417 -103 l 539 -29 z "},"Ŧ":{"ha":743,"x_min":124,"x_max":756,"o":"m 240 643 l 247 697 l 360 697 l 385 901 l 124 901 l 135 992 l 756 992 l 744 901 l 481 901 l 456 697 l 569 697 l 563 643 l 449 643 l 369 0 l 274 0 l 353 643 l 240 643 z "},"ŗ":{"ha":407,"x_min":-21,"x_max":418,"o":"m 392 472 q 310 459 350 472 q 239 422 271 446 q 185 365 207 399 q 158 289 164 331 l 122 0 l 46 0 l 114 556 l 179 556 l 169 413 q 220 477 190 449 q 284 526 250 506 q 353 557 318 546 q 418 568 388 568 l 392 472 m 210 -29 l 54 -318 l -21 -318 q 52 -174 17 -244 q 124 -29 88 -103 l 210 -29 z "},"ē":{"ha":631,"x_min":38,"x_max":600,"o":"m 514 67 q 413 10 469 31 q 297 -11 356 -11 q 193 9 240 -11 q 111 65 146 29 q 57 147 76 100 q 38 249 38 194 q 65 372 38 314 q 138 474 92 431 q 242 544 183 518 q 365 569 301 569 q 518 515 457 569 q 600 372 579 460 q 491 331 551 354 q 367 284 431 308 q 240 235 303 260 q 124 190 178 211 q 190 99 142 133 q 304 64 238 64 q 390 79 349 64 q 464 121 432 94 l 514 67 m 507 392 q 449 466 489 439 q 357 493 410 493 q 265 474 308 493 q 188 423 221 456 q 135 349 154 390 q 115 261 115 307 l 115 242 q 212 279 161 260 q 314 319 263 299 q 415 358 365 339 q 507 392 465 376 m 218 676 l 225 731 l 547 731 l 540 676 l 218 676 z "},"ģ":{"ha":733,"x_min":22,"x_max":661,"o":"m 39 246 q 65 372 39 314 q 136 474 92 431 q 239 543 181 518 q 361 568 297 568 q 443 556 407 568 q 506 524 479 543 q 549 483 532 506 q 571 440 565 461 q 580 497 574 468 q 590 556 586 526 l 661 556 l 594 10 q 563 -101 588 -50 q 498 -188 539 -151 q 399 -246 457 -225 q 265 -267 340 -267 q 131 -237 186 -267 q 22 -151 76 -208 l 78 -99 q 173 -172 126 -151 q 272 -193 219 -193 q 446 -138 389 -193 q 515 6 503 -83 q 519 25 518 17 q 524 57 519 33 q 526 70 524 61 q 529 90 528 79 q 533 109 531 100 q 535 121 535 118 q 440 28 503 68 q 292 -11 376 -11 q 188 8 235 -11 q 108 63 142 28 q 57 144 75 97 q 39 246 39 192 m 115 256 q 129 180 115 215 q 169 119 143 144 q 230 78 194 93 q 308 64 265 64 q 403 83 358 64 q 481 133 447 101 q 533 208 514 165 q 553 301 553 251 q 539 377 553 342 q 499 438 525 413 q 438 478 474 464 q 361 493 403 493 q 266 475 311 493 q 188 424 221 457 q 135 349 154 392 q 115 256 115 306 m 360 704 l 515 993 l 590 993 q 517 849 553 919 q 446 704 482 778 l 360 704 z "},"ŧ":{"ha":394,"x_min":36,"x_max":403,"o":"m 74 676 l 81 731 l 178 731 l 186 799 l 263 799 l 254 731 l 403 731 l 396 676 l 247 676 l 232 550 l 397 550 l 389 481 l 224 481 l 165 0 l 89 0 l 147 481 l 36 481 l 44 550 l 156 550 l 171 676 l 74 676 z "},"Ā":{"ha":896,"x_min":-28,"x_max":829,"o":"m 829 0 q 790 133 814 50 q 738 314 765 215 q 678 519 710 413 q 619 724 647 625 q 567 904 592 822 q 528 1038 543 986 q 456 904 500 986 q 359 724 411 822 q 250 519 307 625 q 141 314 193 413 q 44 133 89 215 q -28 0 0 50 l 67 0 q 151 157 101 64 q 253 354 200 250 l 633 354 q 688 157 661 250 q 733 0 714 64 l 829 0 m 483 794 q 492 813 486 800 q 503 838 499 826 q 508 813 506 826 q 511 794 510 800 q 557 635 531 729 q 613 436 583 540 l 296 436 q 398 635 349 540 q 483 794 447 729 m 371 1071 l 376 1125 l 699 1125 l 693 1071 l 371 1071 z "},"Į":{"ha":379,"x_min":-42,"x_max":313,"o":"m 190 0 l 94 0 l 217 992 l 313 992 l 190 0 m 150 0 l 97 0 l 96 -10 q 86 -41 93 -29 q 69 -60 79 -53 q 49 -74 60 -68 q 29 -85 39 -79 q -26 -142 -10 -110 q -42 -211 -42 -175 q -10 -301 -42 -267 q 78 -336 21 -336 q 162 -312 122 -336 q 224 -240 201 -289 q 201 -228 213 -233 q 178 -217 189 -222 q 144 -258 167 -242 q 93 -274 122 -274 q 40 -252 58 -274 q 22 -199 22 -231 q 40 -143 22 -162 q 81 -109 58 -124 q 123 -80 103 -94 q 146 -39 143 -65 l 150 0 z "},"ĩ":{"ha":263,"x_min":-49,"x_max":390,"o":"m 122 0 l 46 0 l 114 556 l 190 556 l 122 0 m 157 693 q 122 724 138 717 q 88 732 107 732 q 63 729 76 732 q 37 719 50 726 q 13 697 24 711 q -3 663 3 683 l -49 665 q -29 714 -43 693 q 4 749 -15 735 q 45 771 24 764 q 88 778 67 778 q 143 765 119 778 q 186 729 167 753 q 220 698 206 706 q 254 690 235 690 q 278 693 264 690 q 305 703 292 696 q 328 725 318 711 q 344 760 339 739 l 390 757 q 372 708 386 729 q 338 673 357 688 q 297 651 318 658 q 254 644 275 644 q 199 658 222 644 q 157 693 176 671 z "},"ļ":{"ha":268,"x_min":-90,"x_max":256,"o":"m 125 0 l 49 0 l 179 1064 l 256 1064 l 125 0 m 140 -29 l -15 -318 l -90 -318 q -17 -174 -53 -244 q 54 -29 18 -103 l 140 -29 z "},"Ė":{"ha":849,"x_min":94,"x_max":842,"o":"m 94 0 l 217 992 l 842 992 l 831 906 l 300 906 l 256 543 l 731 543 l 719 454 l 244 454 l 200 89 l 750 89 l 739 0 l 94 0 m 500 1104 q 520 1148 500 1131 q 563 1165 540 1165 q 596 1151 582 1165 q 610 1115 610 1138 q 591 1071 610 1088 q 549 1054 572 1054 q 515 1067 529 1054 q 500 1104 500 1081 z "},"Ī":{"ha":379,"x_min":94,"x_max":444,"o":"m 217 992 l 313 992 l 190 0 l 94 0 l 217 992 m 117 1071 l 122 1125 l 444 1125 l 439 1071 l 117 1071 z "},"Ņ":{"ha":1128,"x_min":94,"x_max":1061,"o":"m 1061 992 l 933 -46 q 849 70 900 3 q 738 214 797 138 q 615 370 678 290 q 493 526 551 450 q 387 669 435 603 q 308 783 339 735 q 298 799 306 789 q 285 819 290 810 l 285 775 l 189 0 l 94 0 l 222 1038 q 306 919 256 986 q 416 778 357 853 q 538 624 475 703 q 658 470 600 544 q 767 330 717 396 q 849 215 817 264 q 858 198 851 208 q 871 178 865 188 l 872 224 l 967 992 l 1061 992 m 551 -29 l 397 -318 l 322 -318 q 394 -174 358 -244 q 465 -29 429 -103 l 551 -29 z "},"Ķ":{"ha":864,"x_min":94,"x_max":901,"o":"m 699 0 q 531 256 611 132 q 361 514 450 381 q 306 465 333 489 q 249 418 278 442 q 224 209 235 310 q 199 0 213 108 l 94 0 l 217 992 l 321 992 l 269 575 q 265 553 268 564 q 260 529 263 542 q 275 546 267 539 q 290 563 283 553 q 534 776 414 667 q 779 992 654 886 l 901 992 q 673 785 788 889 q 443 579 558 682 q 631 290 542 431 q 818 0 721 149 l 699 0 m 479 -29 l 325 -318 l 250 -318 q 322 -174 286 -244 q 393 -29 357 -103 l 479 -29 z "},"ņ":{"ha":667,"x_min":46,"x_max":588,"o":"m 114 556 l 179 556 l 168 413 q 273 525 208 482 q 421 568 338 568 q 545 522 503 568 q 581 401 588 476 l 532 0 l 456 0 l 501 375 q 478 456 506 422 q 390 492 451 489 q 306 477 346 492 q 235 436 267 463 q 184 374 204 410 q 158 294 164 338 l 122 0 l 46 0 l 114 556 m 339 -29 l 185 -318 l 110 -318 q 181 -174 146 -244 q 253 -29 217 -103 l 339 -29 z "},"ķ":{"ha":568,"x_min":46,"x_max":532,"o":"m 492 569 l 532 522 q 419 427 472 474 q 307 332 367 381 l 508 0 l 419 0 l 247 281 l 146 197 l 122 0 l 46 0 l 176 1064 l 253 1064 l 158 289 q 325 428 244 361 q 492 569 406 496 m 339 -29 l 185 -318 l 110 -318 q 181 -174 146 -244 q 253 -29 217 -103 l 339 -29 z "},"Ō":{"ha":1147,"x_min":68,"x_max":1097,"o":"m 81 494 q 144 691 93 599 q 273 853 196 783 q 447 963 350 922 q 649 1003 544 1003 q 828 967 746 1003 q 969 868 910 931 q 1063 722 1029 806 q 1097 544 1097 639 q 1050 330 1097 431 q 923 153 1003 229 q 740 33 843 78 q 524 -11 636 -11 q 332 28 419 -11 q 184 137 244 68 q 96 298 124 206 q 81 494 68 390 m 175 494 q 187 333 164 408 q 259 201 210 257 q 379 112 308 144 q 535 79 450 79 q 711 115 626 79 q 860 214 796 151 q 964 360 925 276 q 1003 536 1003 443 q 975 683 1003 614 q 899 802 947 751 q 783 882 850 853 q 638 911 717 911 q 473 878 551 911 q 331 789 394 846 q 226 656 268 732 q 175 494 185 581 m 500 1071 l 506 1125 l 828 1125 l 822 1071 l 500 1071 z "},"Ū":{"ha":964,"x_min":114,"x_max":910,"o":"m 433 -11 q 297 13 358 -11 q 193 82 235 38 q 133 191 151 126 q 124 338 114 256 l 204 992 l 299 992 l 219 342 q 226 233 213 282 q 269 151 239 185 q 344 98 299 117 q 444 79 389 79 q 549 98 499 79 q 638 151 599 117 q 703 233 676 185 q 736 342 729 282 l 815 992 l 910 992 l 829 338 q 784 191 819 256 q 695 82 749 126 q 574 13 642 38 q 433 -11 507 -11 m 417 1071 l 424 1125 l 746 1125 l 739 1071 l 417 1071 z "},"ō":{"ha":688,"x_min":31,"x_max":624,"o":"m 39 278 q 75 391 46 338 q 149 484 104 444 q 249 547 193 524 q 367 569 306 569 q 471 549 424 569 q 552 494 518 529 q 605 410 586 458 q 624 308 624 363 q 597 185 624 243 q 526 83 571 126 q 421 14 481 39 q 294 -11 361 -11 q 183 10 233 -11 q 99 71 133 32 q 47 163 64 110 q 39 278 31 215 m 115 278 q 122 194 110 233 q 158 126 133 156 q 221 81 183 97 q 303 64 258 64 q 395 83 351 64 q 472 133 439 101 q 526 208 506 165 q 546 300 546 251 q 531 376 546 340 q 492 437 517 411 q 432 478 467 463 q 356 493 397 493 q 269 476 311 493 q 196 431 228 460 q 142 362 164 401 q 115 278 121 322 m 224 676 l 231 731 l 553 731 l 546 676 l 224 676 z "},"ū":{"ha":665,"x_min":53,"x_max":594,"o":"m 525 -7 l 461 -7 l 472 143 q 369 31 435 74 q 219 -12 304 -12 q 95 33 138 -12 q 60 154 53 79 l 108 556 l 185 556 l 139 181 q 163 100 136 133 q 250 64 189 67 q 333 78 293 64 q 403 119 372 93 q 456 181 435 144 q 482 260 476 217 l 518 556 l 594 556 l 525 -7 m 206 676 l 213 731 l 535 731 l 528 676 l 206 676 z "},"ā":{"ha":732,"x_min":38,"x_max":660,"o":"m 38 246 q 65 370 38 311 q 138 473 92 429 q 242 542 183 517 q 365 568 301 568 q 442 557 407 568 q 503 527 476 546 q 546 485 529 508 q 569 440 563 463 l 589 556 l 660 556 l 592 0 l 515 0 l 522 57 q 526 86 525 72 q 531 113 528 100 q 496 67 518 89 q 443 28 474 46 q 375 -1 413 10 q 294 -11 338 -11 q 189 9 236 -11 q 108 64 142 29 q 56 146 75 99 q 38 246 38 193 m 114 257 q 128 181 114 215 q 167 119 142 146 q 228 78 193 93 q 307 64 264 64 q 401 83 357 64 q 479 133 446 101 q 532 209 513 165 q 551 301 551 253 q 538 377 551 342 q 499 438 524 413 q 438 478 474 464 q 360 493 403 493 q 265 475 310 493 q 188 425 221 457 q 134 350 154 393 q 114 257 114 307 m 250 676 l 257 731 l 579 731 l 572 676 l 250 676 z "},"Ų":{"ha":964,"x_min":114,"x_max":910,"o":"m 490 0 l 438 0 l 436 -10 l 436 -11 l 433 -11 q 297 13 358 -11 q 193 82 235 38 q 133 191 151 126 q 124 338 114 256 l 204 992 l 299 992 l 219 342 q 226 233 213 282 q 269 151 239 185 q 344 98 299 117 q 444 79 389 79 q 549 98 499 79 q 638 151 599 117 q 703 233 676 185 q 736 342 729 282 l 815 992 l 910 992 l 829 338 q 791 204 821 264 q 716 100 761 144 q 613 28 671 56 q 490 -7 554 1 l 490 0 m 436 -11 q 426 -42 433 -31 q 410 -60 419 -53 q 390 -74 400 -68 q 369 -85 379 -79 q 315 -142 331 -110 q 299 -211 299 -175 q 330 -301 299 -267 q 419 -336 361 -336 q 503 -312 464 -336 q 564 -240 542 -289 q 542 -228 553 -233 q 518 -217 531 -222 q 485 -258 507 -242 q 433 -274 463 -274 q 381 -252 400 -274 q 363 -199 363 -231 q 381 -143 363 -162 q 421 -109 399 -124 q 463 -80 443 -94 q 486 -39 482 -65 l 490 -7 q 463 -10 476 -8 q 436 -11 450 -11 z "},"ī":{"ha":263,"x_min":7,"x_max":336,"o":"m 122 0 l 46 0 l 114 556 l 190 556 l 122 0 m 7 676 l 14 731 l 336 731 l 329 676 l 7 676 z "},"ų":{"ha":667,"x_min":53,"x_max":594,"o":"m 513 0 l 461 0 l 472 143 q 369 31 435 74 q 219 -12 304 -12 q 95 33 138 -12 q 60 154 53 79 l 108 556 l 185 556 l 139 181 q 163 100 136 133 q 250 64 189 67 q 333 78 293 64 q 403 119 372 93 q 456 181 435 144 q 482 260 476 217 l 518 556 l 594 556 l 525 -7 l 511 -7 l 513 0 m 461 0 l 460 0 l 458 -10 q 449 -41 456 -29 q 432 -60 442 -53 q 412 -74 422 -68 q 392 -85 401 -79 q 337 -142 353 -110 q 321 -211 321 -175 q 352 -301 321 -267 q 440 -336 383 -336 q 524 -312 485 -336 q 586 -240 564 -289 q 563 -228 575 -233 q 540 -217 551 -222 q 507 -258 529 -242 q 456 -274 485 -274 q 403 -252 421 -274 q 385 -199 385 -231 q 403 -143 385 -162 q 443 -109 421 -124 q 485 -80 465 -94 q 508 -39 504 -65 l 513 -7 l 461 -7 l 461 0 z "},"Ũ":{"ha":964,"x_min":114,"x_max":910,"o":"m 433 -11 q 297 13 358 -11 q 193 82 235 38 q 133 191 151 126 q 124 338 114 256 l 204 992 l 299 992 l 219 342 q 226 233 213 282 q 269 151 239 185 q 344 98 299 117 q 444 79 389 79 q 549 98 499 79 q 638 151 599 117 q 703 233 676 185 q 736 342 729 282 l 815 992 l 910 992 l 829 338 q 784 191 819 256 q 695 82 749 126 q 574 13 642 38 q 433 -11 507 -11 m 571 1101 q 536 1133 551 1125 q 501 1140 521 1140 q 477 1138 490 1140 q 451 1127 464 1135 q 427 1106 438 1119 q 411 1071 417 1092 l 365 1074 q 385 1122 371 1101 q 418 1158 399 1143 q 459 1179 438 1172 q 501 1186 481 1186 q 557 1174 533 1186 q 600 1138 581 1161 q 634 1106 619 1114 q 668 1099 649 1099 q 692 1101 678 1099 q 719 1112 706 1104 q 743 1133 732 1119 q 760 1168 754 1147 l 804 1165 q 785 1117 800 1138 q 751 1081 771 1096 q 710 1060 732 1067 q 668 1053 689 1053 q 613 1066 636 1053 q 571 1101 590 1079 z "},"ũ":{"ha":665,"x_min":53,"x_max":601,"o":"m 525 -7 l 461 -7 l 472 143 q 369 31 435 74 q 219 -12 304 -12 q 95 33 138 -12 q 60 154 53 79 l 108 556 l 185 556 l 139 181 q 163 100 136 133 q 250 64 189 67 q 333 78 293 64 q 403 119 372 93 q 456 181 435 144 q 482 260 476 217 l 518 556 l 594 556 l 525 -7 m 367 693 q 333 724 347 717 q 299 732 318 732 q 274 729 288 732 q 248 719 261 726 q 224 697 235 711 q 208 663 214 683 l 163 665 q 181 714 167 693 q 215 749 196 735 q 256 771 235 764 q 299 778 278 778 q 354 765 331 778 q 397 729 378 753 q 431 698 417 706 q 465 690 446 690 q 489 693 475 690 q 516 703 503 696 q 540 725 529 711 q 556 760 550 739 l 601 757 q 582 708 596 729 q 549 673 568 688 q 508 651 529 658 q 465 644 486 644 q 410 658 433 644 q 367 693 386 671 z "},"ė":{"ha":631,"x_min":38,"x_max":600,"o":"m 514 67 q 413 10 469 31 q 297 -11 356 -11 q 193 9 240 -11 q 111 65 146 29 q 57 147 76 100 q 38 249 38 194 q 65 372 38 314 q 138 474 92 431 q 242 544 183 518 q 365 569 301 569 q 518 515 457 569 q 600 372 579 460 q 491 331 551 354 q 367 284 431 308 q 240 235 303 260 q 124 190 178 211 q 190 99 142 133 q 304 64 238 64 q 390 79 349 64 q 464 121 432 94 l 514 67 m 507 392 q 449 466 489 439 q 357 493 410 493 q 265 474 308 493 q 188 423 221 456 q 135 349 154 390 q 115 261 115 307 l 115 242 q 212 279 161 260 q 314 319 263 299 q 415 358 365 339 q 507 392 465 376 m 328 751 q 347 795 328 778 q 390 813 367 813 q 424 799 410 813 q 438 763 438 785 q 419 718 438 735 q 376 701 400 701 q 342 715 357 701 q 328 751 328 728 z "},"į":{"ha":263,"x_min":-93,"x_max":232,"o":"m 122 751 q 142 795 122 778 q 185 813 161 813 q 218 799 204 813 q 232 763 232 785 q 213 718 232 735 q 171 701 194 701 q 137 715 151 701 q 122 751 122 728 m 122 0 l 46 0 l 114 556 l 190 556 l 122 0 m 99 0 l 46 0 l 44 -10 q 35 -41 42 -29 q 18 -60 28 -53 q -2 -74 8 -68 q -22 -85 -12 -79 q -77 -142 -61 -110 q -93 -211 -93 -175 q -62 -301 -93 -267 q 26 -336 -31 -336 q 110 -312 71 -336 q 172 -240 150 -289 q 149 -228 161 -233 q 126 -217 138 -222 q 93 -258 115 -242 q 42 -274 71 -274 q -11 -252 7 -274 q -29 -199 -29 -231 q -11 -143 -29 -162 q 29 -109 7 -124 q 71 -80 51 -94 q 94 -39 90 -65 l 99 0 z "},"…":{"ha":747,"x_min":50,"x_max":619,"o":"m 50 51 q 69 96 50 78 q 113 114 89 114 q 147 99 132 114 q 161 63 161 85 q 141 17 161 35 q 99 0 121 0 q 65 14 79 0 q 50 51 50 28 m 278 51 q 298 96 278 78 q 342 114 318 114 q 376 99 361 114 q 390 63 390 85 q 370 17 390 35 q 328 0 350 0 q 293 14 308 0 q 278 51 278 28 m 507 51 q 527 96 507 78 q 571 114 547 114 q 605 99 590 114 q 619 63 619 85 q 599 17 619 35 q 557 0 578 0 q 522 14 538 0 q 507 51 507 28 z "},"‰":{"ha":1367,"x_min":81,"x_max":1288,"o":"m 596 146 q 617 90 596 113 q 675 67 639 67 q 746 96 717 67 q 775 165 775 125 q 753 222 775 199 q 696 244 732 244 q 625 215 654 244 q 596 146 596 186 m 665 -12 q 558 31 600 -12 q 515 140 515 75 q 531 211 515 178 q 573 269 547 244 q 633 309 599 294 q 706 324 668 324 q 765 312 738 324 q 813 280 793 300 q 845 232 833 260 q 857 174 857 204 q 841 101 857 135 q 798 42 825 67 q 737 2 771 17 q 665 -12 703 -12 m 163 535 q 184 478 163 501 q 242 456 206 456 q 311 485 282 456 q 340 554 340 514 q 319 610 340 588 q 264 632 299 632 q 192 603 222 632 q 163 535 163 575 m 232 376 q 124 419 167 376 q 81 528 81 463 q 97 599 81 565 q 140 658 113 633 q 201 698 167 683 q 274 713 236 713 q 332 701 304 713 q 380 669 360 689 q 412 621 400 649 q 424 561 424 593 q 408 489 424 522 q 365 431 392 456 q 303 391 338 406 q 232 376 268 376 m 169 0 q 420 350 294 176 q 672 700 546 524 l 761 700 q 510 350 635 524 q 258 0 385 176 l 169 0 m 1026 146 q 1048 90 1026 113 q 1106 67 1069 67 q 1176 96 1147 67 q 1206 165 1206 125 q 1184 222 1206 199 q 1126 244 1163 244 q 1056 215 1085 244 q 1026 146 1026 186 m 1096 -12 q 988 31 1031 -12 q 946 140 946 75 q 962 211 946 178 q 1003 269 978 244 q 1064 309 1029 294 q 1136 324 1099 324 q 1196 312 1168 324 q 1244 280 1224 300 q 1276 232 1264 260 q 1288 174 1288 204 q 1272 101 1288 135 q 1228 42 1256 67 q 1167 2 1201 17 q 1096 -12 1133 -12 z "},"ˆ":{"ha":625,"x_min":239,"x_max":575,"o":"m 438 924 q 506 797 472 861 q 575 671 539 733 l 514 671 q 494 707 506 688 q 470 747 482 726 q 447 788 458 768 q 426 824 435 808 q 397 788 414 808 q 363 747 381 768 q 328 707 344 726 q 299 671 311 688 l 239 671 l 438 924 z "},"˜":{"ha":828,"x_min":311,"x_max":750,"o":"m 517 693 q 482 724 497 717 q 447 732 467 732 q 423 729 436 732 q 397 719 410 726 q 373 697 383 711 q 357 663 363 683 l 311 665 q 331 714 317 693 q 364 749 344 735 q 405 771 383 764 q 447 778 426 778 q 503 765 479 778 q 546 729 526 753 q 580 698 565 706 q 614 690 594 690 q 638 693 624 690 q 665 703 651 696 q 688 725 678 711 q 704 760 699 739 l 750 757 q 731 708 746 729 q 697 673 717 688 q 656 651 678 658 q 614 644 635 644 q 559 658 582 644 q 517 693 536 671 z "},"ﬁ":{"ha":717,"x_min":49,"x_max":644,"o":"m 49 481 l 58 556 l 154 556 l 174 718 q 286 973 194 888 q 514 1064 378 1058 l 504 990 q 333 916 401 988 q 250 718 265 844 l 231 556 l 644 556 l 576 0 l 500 0 l 558 481 l 221 481 l 163 0 l 86 0 l 144 481 l 49 481 z "},"ﬂ":{"ha":710,"x_min":49,"x_max":697,"o":"m 49 479 l 58 554 l 154 554 l 174 718 q 286 973 194 888 q 514 1064 378 1058 l 697 1064 l 567 0 l 490 0 l 611 990 l 504 990 q 333 916 401 988 q 250 718 265 844 l 231 554 l 413 554 l 403 479 l 221 479 l 163 0 l 86 0 l 144 479 l 49 479 z "},"˚":{"ha":664,"x_min":339,"x_max":551,"o":"m 388 704 q 403 668 388 683 q 439 653 418 653 q 484 672 465 653 q 503 715 503 690 q 489 752 503 738 q 453 767 475 767 q 408 749 428 767 q 388 704 388 731 m 339 700 q 349 744 339 724 q 375 781 358 765 q 413 806 392 797 q 458 815 435 815 q 525 788 499 815 q 551 721 551 761 q 516 640 551 674 q 433 606 481 606 q 366 633 393 606 q 339 700 339 660 z "},"⁄":{"ha":481,"x_min":-43,"x_max":558,"o":"m -43 0 l 476 1057 l 558 1057 l 39 0 l -43 0 z "},"ƒ":{"ha":488,"x_min":-136,"x_max":542,"o":"m 249 479 l 203 110 q 90 -145 182 -60 q -136 -235 -1 -231 l -128 -162 q 44 -87 -24 -158 q 126 110 111 -17 l 172 479 l 76 479 l 86 554 l 182 554 l 201 718 q 314 973 222 888 q 542 1064 406 1058 l 532 990 q 361 916 429 988 q 278 718 293 844 l 258 554 l 440 554 l 431 479 l 249 479 z "},"†":{"ha":475,"x_min":108,"x_max":418,"o":"m 156 44 l 218 554 l 108 554 l 118 633 l 228 633 l 251 828 l 332 828 l 308 633 l 418 633 l 408 554 l 299 554 l 236 44 l 156 44 z "},"‡":{"ha":557,"x_min":64,"x_max":492,"o":"m 196 44 l 232 335 l 64 335 l 74 414 l 242 414 l 258 554 l 149 554 l 158 633 l 268 633 l 293 828 l 374 828 l 349 633 l 458 633 l 449 554 l 339 554 l 322 414 l 492 414 l 482 335 l 313 335 l 276 44 l 196 44 z "},"™":{"ha":811,"x_min":135,"x_max":779,"o":"m 431 1067 q 463 1011 443 1046 q 503 940 482 976 q 544 871 525 904 q 574 819 563 838 l 779 1067 l 733 692 l 697 692 l 729 950 q 731 959 729 954 q 732 967 732 964 q 694 921 717 949 q 648 863 672 893 q 602 807 624 833 q 568 764 581 781 q 542 808 560 778 q 505 870 524 838 q 471 931 486 903 q 451 967 456 958 l 451 950 l 419 692 l 385 692 l 431 1067 m 363 1051 l 358 1018 l 263 1018 l 222 692 l 190 692 l 231 1018 l 135 1018 l 139 1051 l 363 1051 z "},"−":{"ha":696,"x_min":78,"x_max":592,"o":"m 582 239 l 78 239 l 88 318 l 592 318 l 582 239 z "},"∫":{"ha":447,"x_min":-32,"x_max":488,"o":"m 243 879 q 267 977 251 943 q 306 1026 283 1011 q 356 1043 328 1042 q 413 1044 383 1044 l 488 1044 l 478 965 l 410 965 q 374 958 389 965 q 348 935 358 951 q 331 889 338 918 q 318 817 324 860 l 214 -25 q 189 -135 206 -97 q 151 -189 172 -172 q 101 -207 129 -206 q 43 -208 74 -208 l -32 -208 l -22 -129 l 46 -129 q 83 -122 68 -129 q 108 -99 97 -115 q 125 -53 118 -82 q 138 19 132 -25 l 243 879 z "},"∏":{"ha":642,"x_min":92,"x_max":574,"o":"m 172 -92 l 92 -92 l 232 1050 l 574 1050 l 433 -92 l 353 -92 l 483 971 l 303 971 l 172 -92 z "},"π":{"ha":553,"x_min":49,"x_max":514,"o":"m 204 392 l 156 0 l 74 0 l 122 392 l 49 392 l 58 471 l 514 471 l 504 392 l 438 392 l 389 0 l 308 0 l 357 392 l 204 392 z "},"€":{"ha":754,"x_min":56,"x_max":740,"o":"m 78 556 l 174 556 q 233 699 194 632 q 324 815 271 765 q 444 892 378 864 q 590 921 511 921 q 682 908 643 921 q 740 883 721 894 l 696 813 q 578 842 646 842 q 465 822 517 842 q 372 763 413 801 q 301 672 331 725 q 254 556 271 619 l 567 556 l 561 510 l 244 510 q 241 491 242 500 q 239 472 240 482 q 235 438 236 454 q 233 407 235 422 l 549 407 l 543 361 l 235 361 q 261 233 239 288 q 317 141 283 178 q 394 86 351 104 q 481 68 436 68 q 545 78 513 68 q 610 104 578 88 l 644 33 q 469 -11 560 -11 q 344 15 401 -11 q 243 90 286 42 q 175 207 200 139 q 149 361 150 275 l 56 361 l 61 407 l 150 407 q 152 432 151 419 q 156 458 153 444 q 158 483 157 471 q 163 510 160 496 l 72 510 l 78 556 z "},"≤":{"ha":781,"x_min":89,"x_max":758,"o":"m 685 413 l 672 303 q 387 480 528 392 q 103 657 246 568 q 430 833 267 744 q 758 1010 593 922 l 746 901 q 290 657 514 779 q 488 534 389 594 q 685 413 586 474 m 593 103 l 89 103 l 99 182 l 603 182 l 593 103 z "},"≥":{"ha":778,"x_min":78,"x_max":760,"o":"m 117 413 q 344 534 231 474 q 571 657 458 594 q 374 780 472 719 q 178 901 275 840 l 190 1010 q 474 833 333 922 q 760 657 615 744 q 431 480 594 568 q 104 303 268 392 l 117 413 m 88 182 l 592 182 l 582 103 l 78 103 l 88 182 z "},"≠":{"ha":929,"x_min":72,"x_max":835,"o":"m 835 528 l 825 447 l 558 447 q 467 351 513 399 q 374 256 421 303 l 801 256 l 792 176 l 296 176 l 113 -12 l 72 29 l 215 176 l 83 176 l 93 256 l 292 256 q 385 351 339 303 q 478 447 431 399 l 117 447 l 126 528 l 556 528 l 763 742 l 803 699 l 636 528 l 835 528 z "},"≈":{"ha":624,"x_min":82,"x_max":549,"o":"m 288 276 q 253 308 268 300 q 218 315 238 315 q 194 313 207 315 q 167 302 181 310 q 144 281 154 294 q 128 246 133 267 l 82 249 q 101 297 88 276 q 135 333 115 318 q 176 354 154 347 q 218 361 197 361 q 274 349 250 361 q 317 313 297 336 q 351 281 336 289 q 385 274 365 274 q 408 276 394 274 q 435 287 422 279 q 459 308 449 294 q 475 343 469 322 l 521 340 q 502 292 517 313 q 468 256 488 271 q 427 235 449 242 q 385 228 406 228 q 330 241 353 228 q 288 276 307 254 m 314 485 q 279 516 294 508 q 244 524 264 524 q 220 521 233 524 q 194 510 207 518 q 170 489 181 503 q 154 454 160 475 l 108 457 q 128 506 114 485 q 161 541 142 526 q 202 563 181 556 q 244 569 224 569 q 300 557 276 569 q 343 521 324 544 q 378 490 363 497 q 413 482 393 482 q 436 485 422 482 q 463 495 450 488 q 487 517 476 503 q 503 551 497 531 l 549 549 q 529 500 543 521 q 496 465 515 479 q 455 443 476 450 q 413 436 433 436 q 357 449 381 436 q 314 485 333 463 z "},"∑":{"ha":656,"x_min":26,"x_max":685,"o":"m 143 -22 l 522 -22 l 543 -100 l 26 -100 l 256 475 l 168 1050 l 685 1050 l 644 971 l 265 971 l 343 475 l 143 -22 z "},"Ω":{"ha":943,"x_min":44,"x_max":864,"o":"m 54 79 l 261 79 q 198 124 228 97 q 147 185 168 150 q 112 267 125 221 q 99 374 99 314 q 128 552 99 468 q 215 699 158 636 q 350 798 271 761 q 529 835 429 835 q 697 798 629 835 q 802 702 764 761 q 852 568 840 643 q 851 414 864 493 q 817 291 840 344 q 764 197 794 238 q 697 128 733 157 q 622 79 661 100 l 811 79 l 801 0 l 507 0 l 517 79 q 605 127 563 97 q 681 199 647 157 q 738 293 714 240 q 769 411 761 346 q 768 549 779 486 q 726 657 757 611 q 644 729 696 703 q 521 756 593 756 q 389 729 447 756 q 288 657 331 703 q 219 550 246 611 q 183 418 193 489 q 186 297 175 351 q 224 200 197 242 q 286 128 250 158 q 364 79 322 97 l 354 0 l 44 0 l 54 79 z "},"√":{"ha":750,"x_min":49,"x_max":772,"o":"m 56 501 l 210 501 l 321 172 l 713 846 l 772 846 l 304 33 l 165 450 l 49 450 l 56 501 z "},"∆":{"ha":576,"x_min":64,"x_max":514,"o":"m 368 1021 l 514 375 l 64 375 l 368 1021 m 147 425 l 442 425 l 349 860 l 147 425 z "},"◊":{"ha":578,"x_min":82,"x_max":532,"o":"m 82 528 l 368 1021 l 532 528 l 246 33 l 82 528 m 143 528 l 264 172 l 472 528 l 350 882 l 143 528 z "},"∞":{"ha":694,"x_min":100,"x_max":601,"o":"m 463 313 q 394 325 426 313 q 344 361 363 338 q 285 325 319 338 q 214 313 250 313 q 163 322 185 313 q 128 345 142 331 q 107 377 114 360 q 100 413 100 394 q 109 454 100 433 q 135 492 118 475 q 179 521 153 510 q 240 532 206 532 q 308 519 276 532 q 360 482 340 506 q 419 519 383 506 q 490 532 454 532 q 540 523 519 532 q 575 499 561 514 q 595 467 589 485 q 601 432 601 450 q 593 391 601 413 q 567 352 585 369 q 524 324 550 335 q 463 313 497 313 m 326 425 q 299 465 326 449 q 236 481 271 481 q 174 460 194 481 q 154 417 154 440 q 169 381 154 397 q 221 364 185 364 q 285 380 254 364 q 325 419 315 396 l 326 422 l 326 425 m 378 419 q 381 398 374 408 q 403 380 389 388 q 434 368 417 372 q 468 364 451 364 q 531 385 511 364 q 550 428 550 406 q 534 464 550 447 q 483 481 518 481 q 417 463 447 481 q 379 422 388 446 l 378 419 z "}}}
